<?xml version="1.0" encoding="UTF-8"?>
<svg xmlns="http://www.w3.org/2000/svg" xmlns:xlink="http://www.w3.org/1999/xlink"
     width="22770.0" height="2133.0" viewBox="48265.0 -78535.0 22770.0 2133.0">
<defs>
<style type="text/css">
.l10d0 {stroke: rgb(42, 139, 255); fill: rgb(42, 139, 255); fill-opacity: 0.5;}
</style>
</defs>
<rect x="48265.0" y="-78535.0" width="22770.0" height="2133.0" fill="#222" stroke="none"/>
<g id="(10, 0)" transform="scale(1 -1)">
<polygon class="l10d0" points="69828.0,77437.0 69828.0,77459.0 69904.0,77459.0 69904.0,77470.0 69946.0,77470.0 69946.0,77459.0 69960.0,77459.0 69960.0,77437.0 69828.0,77437.0"/>
<polygon class="l10d0" points="69946.0,77500.0 69946.0,77470.0 69904.0,77470.0 69904.0,77500.0 69946.0,77500.0"/>
<polygon class="l10d0" points="69300.0,77459.0 69354.0,77459.0 69354.0,77492.5 69772.0,77492.5 69772.0,77459.0 69828.0,77459.0 69828.0,77437.0 69300.0,77437.0 69300.0,77459.0"/>
<polygon class="l10d0" points="55044.00000000001,77459.0 55098.0,77459.0 55098.0,77492.5 55516.0,77492.5 55516.0,77459.0 55572.0,77459.0 55572.0,77437.0 55044.00000000001,77437.0 55044.00000000001,77459.0"/>
<polygon class="l10d0" points="65076.0,77459.0 65109.0,77459.0 65109.0,77492.5 69267.0,77492.5 69267.0,77459.0 69300.0,77459.0 69300.0,77437.0 65076.0,77437.0 65076.0,77459.0"/>
<polygon class="l10d0" points="60852.0,77459.0 60885.0,77459.0 60885.0,77492.5 65043.00000000001,77492.5 65043.00000000001,77459.0 65076.0,77459.0 65076.0,77437.0 60852.0,77437.0 60852.0,77459.0"/>
<polygon class="l10d0" points="56628.0,77459.0 56661.0,77459.0 56661.0,77492.5 60819.00000000001,77492.5 60819.00000000001,77459.0 60852.0,77459.0 60852.0,77437.0 56628.0,77437.0 56628.0,77459.0"/>
<polygon class="l10d0" points="51546.0,77459.0 51591.0,77459.0 51591.0,77492.5 51633.00000000001,77492.5 51633.00000000001,77459.0 51678.0,77459.0 51678.0,77437.0 51546.0,77437.0 51546.0,77459.0"/>
<polygon class="l10d0" points="53988.0,77459.0 54048.5,77459.0 54048.5,77492.5 54983.5,77492.5 54983.5,77459.0 55044.00000000001,77459.0 55044.00000000001,77437.0 53988.0,77437.0 53988.0,77459.0"/>
<polygon class="l10d0" points="70000.0,77437.0 69960.0,77437.0 69960.0,77459.0 69994.0,77459.0 69994.0,77495.5 70000.0,77495.5 70000.0,77437.0"/>
<polygon class="l10d0" points="70000.0,77500.0 70000.0,77495.5 69994.0,77495.5 69994.0,77500.0 70000.0,77500.0"/>
<polygon class="l10d0" points="50160.0,77459.0 50194.0,77459.0 50194.0,77495.5 50239.0,77495.5 50239.0,77470.0 50284.0,77470.0 50284.0,77459.0 50340.5,77459.0 50340.5,77492.5 50429.5,77492.5 50429.5,77459.0 50510.0,77459.0 50510.0,77470.0 50552.00000000001,77470.0 50552.00000000001,77459.0 50622.0,77459.0 50622.0,77437.0 50160.0,77437.0 50160.0,77459.0"/>
<polygon class="l10d0" points="50284.0,77500.0 50284.0,77470.0 50239.0,77470.0 50239.0,77495.5 50194.0,77495.5 50194.0,77500.0 50284.0,77500.0"/>
<polygon class="l10d0" points="50552.00000000001,77500.0 50552.00000000001,77470.0 50510.0,77470.0 50510.0,77500.0 50552.00000000001,77500.0"/>
<polygon class="l10d0" points="50622.0,77459.0 50656.0,77459.0 50656.0,77495.5 50701.0,77495.5 50701.0,77470.0 50746.0,77470.0 50746.0,77459.0 50802.5,77459.0 50802.5,77492.5 50891.5,77492.5 50891.5,77459.0 50972.0,77459.0 50972.0,77470.0 51014.0,77470.0 51014.0,77459.0 51084.0,77459.0 51084.0,77437.0 50622.0,77437.0 50622.0,77459.0"/>
<polygon class="l10d0" points="50746.0,77500.0 50746.0,77470.0 50701.0,77470.0 50701.0,77495.5 50656.0,77495.5 50656.0,77500.0 50746.0,77500.0"/>
<polygon class="l10d0" points="51014.0,77500.0 51014.0,77470.0 50972.0,77470.0 50972.0,77500.0 51014.0,77500.0"/>
<polygon class="l10d0" points="51678.0,77459.0 51712.0,77459.0 51712.0,77495.5 51757.00000000001,77495.5 51757.00000000001,77470.0 51802.0,77470.0 51802.0,77459.0 51858.5,77459.0 51858.5,77492.5 51947.5,77492.5 51947.5,77459.0 52028.0,77459.0 52028.0,77470.0 52070.00000000001,77470.0 52070.00000000001,77459.0 52140.0,77459.0 52140.0,77437.0 51678.0,77437.0 51678.0,77459.0"/>
<polygon class="l10d0" points="51802.0,77500.0 51802.0,77470.0 51757.00000000001,77470.0 51757.00000000001,77495.5 51712.0,77495.5 51712.0,77500.0 51802.0,77500.0"/>
<polygon class="l10d0" points="52070.00000000001,77500.0 52070.00000000001,77470.0 52028.0,77470.0 52028.0,77500.0 52070.00000000001,77500.0"/>
<polygon class="l10d0" points="51084.0,77459.0 51118.0,77459.0 51118.0,77495.5 51163.0,77495.5 51163.0,77470.0 51208.00000000001,77470.0 51208.00000000001,77459.0 51264.5,77459.0 51264.5,77492.5 51353.5,77492.5 51353.5,77459.0 51434.0,77459.0 51434.0,77470.0 51476.0,77470.0 51476.0,77459.0 51546.0,77459.0 51546.0,77437.0 51084.0,77437.0 51084.0,77459.0"/>
<polygon class="l10d0" points="51208.00000000001,77500.0 51208.00000000001,77470.0 51163.0,77470.0 51163.0,77495.5 51118.0,77495.5 51118.0,77500.0 51208.00000000001,77500.0"/>
<polygon class="l10d0" points="51476.0,77500.0 51476.0,77470.0 51434.0,77470.0 51434.0,77500.0 51476.0,77500.0"/>
<polygon class="l10d0" points="52140.0,77459.0 52174.0,77459.0 52174.0,77495.5 52219.00000000001,77495.5 52219.00000000001,77470.0 52264.0,77470.0 52264.0,77459.0 52320.50000000001,77459.0 52320.50000000001,77492.5 52409.5,77492.5 52409.5,77459.0 52490.0,77459.0 52490.0,77470.0 52532.00000000001,77470.0 52532.00000000001,77459.0 52602.0,77459.0 52602.0,77437.0 52140.0,77437.0 52140.0,77459.0"/>
<polygon class="l10d0" points="52264.0,77500.0 52264.0,77470.0 52219.00000000001,77470.0 52219.00000000001,77495.5 52174.0,77495.5 52174.0,77500.0 52264.0,77500.0"/>
<polygon class="l10d0" points="52532.00000000001,77500.0 52532.00000000001,77470.0 52490.0,77470.0 52490.0,77500.0 52532.00000000001,77500.0"/>
<polygon class="l10d0" points="52602.0,77459.0 52636.0,77459.0 52636.0,77495.5 52681.00000000001,77495.5 52681.00000000001,77470.0 52726.0,77470.0 52726.0,77459.0 52782.50000000001,77459.0 52782.50000000001,77492.5 52871.5,77492.5 52871.5,77459.0 52952.0,77459.0 52952.0,77470.0 52994.00000000001,77470.0 52994.00000000001,77459.0 53064.0,77459.0 53064.0,77437.0 52602.0,77437.0 52602.0,77459.0"/>
<polygon class="l10d0" points="52726.0,77500.0 52726.0,77470.0 52681.00000000001,77470.0 52681.00000000001,77495.5 52636.0,77495.5 52636.0,77500.0 52726.0,77500.0"/>
<polygon class="l10d0" points="52994.00000000001,77500.0 52994.00000000001,77470.0 52952.0,77470.0 52952.0,77500.0 52994.00000000001,77500.0"/>
<polygon class="l10d0" points="53064.0,77459.0 53098.0,77459.0 53098.0,77495.5 53143.00000000001,77495.5 53143.00000000001,77470.0 53188.0,77470.0 53188.0,77459.0 53244.50000000001,77459.0 53244.50000000001,77492.5 53333.5,77492.5 53333.5,77459.0 53414.0,77459.0 53414.0,77470.0 53456.00000000001,77470.0 53456.00000000001,77459.0 53526.0,77459.0 53526.0,77437.0 53064.0,77437.0 53064.0,77459.0"/>
<polygon class="l10d0" points="53188.0,77500.0 53188.0,77470.0 53143.00000000001,77470.0 53143.00000000001,77495.5 53098.0,77495.5 53098.0,77500.0 53188.0,77500.0"/>
<polygon class="l10d0" points="53456.00000000001,77500.0 53456.00000000001,77470.0 53414.0,77470.0 53414.0,77500.0 53456.00000000001,77500.0"/>
<polygon class="l10d0" points="53526.0,77459.0 53560.0,77459.0 53560.0,77495.5 53604.99999999999,77495.5 53604.99999999999,77470.0 53650.0,77470.0 53650.0,77459.0 53706.50000000001,77459.0 53706.50000000001,77492.5 53795.50000000001,77492.5 53795.50000000001,77459.0 53876.0,77459.0 53876.0,77470.0 53918.00000000001,77470.0 53918.00000000001,77459.0 53988.0,77459.0 53988.0,77437.0 53526.0,77437.0 53526.0,77459.0"/>
<polygon class="l10d0" points="53650.0,77500.0 53650.0,77470.0 53604.99999999999,77470.0 53604.99999999999,77495.5 53560.0,77495.5 53560.0,77500.0 53650.0,77500.0"/>
<polygon class="l10d0" points="53918.00000000001,77500.0 53918.00000000001,77470.0 53876.0,77470.0 53876.0,77500.0 53918.00000000001,77500.0"/>
<polygon class="l10d0" points="49300.0,77459.0 49455.0,77459.0 49455.0,77470.0 49497.0,77470.0 49497.0,77459.0 49739.50000000001,77459.0 49739.50000000001,77470.0 49784.5,77470.0 49784.5,77495.5 49829.5,77495.5 49829.5,77459.0 50160.0,77459.0 50160.0,77437.0 49300.0,77437.0 49300.0,77459.0"/>
<polygon class="l10d0" points="49497.0,77500.0 49497.0,77470.0 49455.0,77470.0 49455.0,77500.0 49497.0,77500.0"/>
<polygon class="l10d0" points="49829.5,77500.0 49829.5,77495.5 49784.5,77495.5 49784.5,77470.0 49739.50000000001,77470.0 49739.50000000001,77500.0 49829.5,77500.0"/>
<polygon class="l10d0" points="55572.0,77459.0 56486.0,77459.0 56486.0,77470.0 56531.00000000001,77470.0 56531.00000000001,77495.5 56576.0,77495.5 56576.0,77459.0 56628.0,77459.0 56628.0,77437.0 55572.0,77437.0 55572.0,77459.0"/>
<polygon class="l10d0" points="56576.0,77500.0 56576.0,77495.5 56531.00000000001,77495.5 56531.00000000001,77470.0 56486.0,77470.0 56486.0,77500.0 56576.0,77500.0"/>
</g>
</svg>