<?xml version="1.0" encoding="UTF-8"?>
<svg xmlns="http://www.w3.org/2000/svg" xmlns:xlink="http://www.w3.org/1999/xlink"
     width="22770.0" height="3470.0" viewBox="48265.0 -78535.0 22770.0 3470.0">
<defs>
<style type="text/css">
.l127d0 {stroke: rgb(207, 255, 149); fill: rgb(207, 255, 149); fill-opacity: 0.5;}
</style>
</defs>
<rect x="48265.0" y="-78535.0" width="22770.0" height="3470.0" fill="#222" stroke="none"/>
<g id="(127, 0)" transform="scale(1 -1)">
<polygon class="l127d0" points="49300.0,77500.0 70000.0,77500.0 70000.0,76100.0 49300.0,76100.0 49300.0,77500.0"/>
<polygon class="l127d0" points="69960.0,77500.0 69960.0,77448.0 69828.0,77448.0 69828.0,77500.0 69960.0,77500.0"/>
<polygon class="l127d0" points="69828.0,77500.0 69828.0,77448.0 69300.0,77448.0 69300.0,77500.0 69828.0,77500.0"/>
<polygon class="l127d0" points="55572.0,77500.0 55572.0,77448.0 55044.00000000001,77448.0 55044.00000000001,77500.0 55572.0,77500.0"/>
<polygon class="l127d0" points="69300.0,77500.0 69300.0,77448.0 65076.0,77448.0 65076.0,77500.0 69300.0,77500.0"/>
<polygon class="l127d0" points="65076.0,77500.0 65076.0,77448.0 60852.0,77448.0 60852.0,77500.0 65076.0,77500.0"/>
<polygon class="l127d0" points="60852.0,77500.0 60852.0,77448.0 56628.0,77448.0 56628.0,77500.0 60852.0,77500.0"/>
<polygon class="l127d0" points="51678.0,77500.0 51678.0,77448.0 51546.0,77448.0 51546.0,77500.0 51678.0,77500.0"/>
<polygon class="l127d0" points="55044.00000000001,77500.0 55044.00000000001,77448.0 53988.0,77448.0 53988.0,77500.0 55044.00000000001,77500.0"/>
<polygon class="l127d0" points="70000.0,77500.0 70000.0,77448.0 69960.0,77448.0 69960.0,77500.0 70000.0,77500.0"/>
<polygon class="l127d0" points="50622.0,77500.0 50622.0,77448.0 50160.0,77448.0 50160.0,77500.0 50622.0,77500.0"/>
<polygon class="l127d0" points="51084.0,77500.0 51084.0,77448.0 50622.0,77448.0 50622.0,77500.0 51084.0,77500.0"/>
<polygon class="l127d0" points="52140.0,77500.0 52140.0,77448.0 51678.0,77448.0 51678.0,77500.0 52140.0,77500.0"/>
<polygon class="l127d0" points="51546.0,77500.0 51546.0,77448.0 51084.0,77448.0 51084.0,77500.0 51546.0,77500.0"/>
<polygon class="l127d0" points="52602.0,77500.0 52602.0,77448.0 52140.0,77448.0 52140.0,77500.0 52602.0,77500.0"/>
<polygon class="l127d0" points="53064.0,77500.0 53064.0,77448.0 52602.0,77448.0 52602.0,77500.0 53064.0,77500.0"/>
<polygon class="l127d0" points="53526.0,77500.0 53526.0,77448.0 53064.0,77448.0 53064.0,77500.0 53526.0,77500.0"/>
<polygon class="l127d0" points="53988.0,77500.0 53988.0,77448.0 53526.0,77448.0 53526.0,77500.0 53988.0,77500.0"/>
<polygon class="l127d0" points="49300.0,77500.0 50160.0,77500.0 50160.0,77448.0 49300.0,77448.0 49300.0,77500.0"/>
<polygon class="l127d0" points="56628.0,77500.0 56628.0,77448.0 55572.0,77448.0 55572.0,77500.0 56628.0,77500.0"/>
</g>
</svg>