<?xml version="1.0" encoding="UTF-8"?>
<svg xmlns="http://www.w3.org/2000/svg" xmlns:xlink="http://www.w3.org/1999/xlink"
     width="22770.0" height="3407.0" viewBox="48265.0 -78535.0 22770.0 3407.0">
<defs>
<style type="text/css">
.l14d0 {stroke: rgb(255, 128, 243); fill: rgb(255, 128, 243); fill-opacity: 0.5;}
</style>
</defs>
<rect x="48265.0" y="-78535.0" width="22770.0" height="3407.0" fill="#222" stroke="none"/>
<g id="(14, 0)" transform="scale(1 -1)">
<polygon class="l14d0" points="70000.0,77500.0 70000.0,77394.0 69785.0,77394.0 69785.0,77500.0 70000.0,77500.0"/>
<polygon class="l14d0" points="69871.0,77500.0 69871.0,77394.0 69257.0,77394.0 69257.0,77500.0 69871.0,77500.0"/>
<polygon class="l14d0" points="55615.0,77500.0 55615.0,77394.0 55001.0,77394.0 55001.0,77500.0 55615.0,77500.0"/>
<polygon class="l14d0" points="69343.0,77500.0 69343.0,77394.0 65033.00000000001,77394.0 65033.00000000001,77500.0 69343.0,77500.0"/>
<polygon class="l14d0" points="65119.00000000001,77500.0 65119.00000000001,77394.0 60809.0,77394.0 60809.0,77500.0 65119.00000000001,77500.0"/>
<polygon class="l14d0" points="60895.00000000001,77500.0 60895.00000000001,77394.0 56585.0,77394.0 56585.0,77500.0 60895.00000000001,77500.0"/>
<polygon class="l14d0" points="51721.0,77500.0 51721.0,77394.0 51503.0,77394.0 51503.0,77500.0 51721.0,77500.0"/>
<polygon class="l14d0" points="55087.0,77500.0 55087.0,77394.0 53945.00000000001,77394.0 53945.00000000001,77500.0 55087.0,77500.0"/>
<polygon class="l14d0" points="70000.0,77500.0 70000.0,77394.0 69917.0,77394.0 69917.0,77500.0 70000.0,77500.0"/>
<polygon class="l14d0" points="50665.0,77500.0 50665.0,77394.0 50117.0,77394.0 50117.0,77500.0 50665.0,77500.0"/>
<polygon class="l14d0" points="51127.00000000001,77500.0 51127.00000000001,77394.0 50579.0,77394.0 50579.0,77500.0 51127.00000000001,77500.0"/>
<polygon class="l14d0" points="52183.00000000001,77500.0 52183.00000000001,77394.0 51635.0,77394.0 51635.0,77500.0 52183.00000000001,77500.0"/>
<polygon class="l14d0" points="51589.0,77500.0 51589.0,77394.0 51041.0,77394.0 51041.0,77500.0 51589.0,77500.0"/>
<polygon class="l14d0" points="52645.00000000001,77500.0 52645.00000000001,77394.0 52097.0,77394.0 52097.0,77500.0 52645.00000000001,77500.0"/>
<polygon class="l14d0" points="53107.00000000001,77500.0 53107.00000000001,77394.0 52559.0,77394.0 52559.0,77500.0 53107.00000000001,77500.0"/>
<polygon class="l14d0" points="53569.00000000001,77500.0 53569.00000000001,77394.0 53021.0,77394.0 53021.0,77500.0 53569.00000000001,77500.0"/>
<polygon class="l14d0" points="54031.00000000001,77500.0 54031.00000000001,77394.0 53483.00000000001,77394.0 53483.00000000001,77500.0 54031.00000000001,77500.0"/>
<polygon class="l14d0" points="49300.0,77500.0 50203.0,77500.0 50203.0,77394.0 49300.0,77394.0 49300.0,77500.0"/>
<polygon class="l14d0" points="56671.0,77500.0 56671.0,77394.0 55529.0,77394.0 55529.0,77500.0 56671.0,77500.0"/>
<polygon class="l14d0" points="70000.0,77500.0 70000.0,77171.0 69983.0,77171.0 69983.0,77500.0 70000.0,77500.0"/>
<polygon class="l14d0" points="70000.0,76163.0 69983.0,76163.0 69983.0,76494.0 70000.0,76494.0 70000.0,76163.0"/>
<polygon class="l14d0" points="70000.0,76386.0 69983.0,76386.0 69983.0,76717.0 70000.0,76717.0 70000.0,76386.0"/>
</g>
</svg>