<?xml version="1.0" encoding="UTF-8"?>
<svg xmlns="http://www.w3.org/2000/svg" xmlns:xlink="http://www.w3.org/1999/xlink"
     width="22770.0" height="2144.0" viewBox="48265.0 -78535.0 22770.0 2144.0">
<defs>
<style type="text/css">
.l40d0 {stroke: rgb(255, 70, 0); fill: rgb(255, 70, 0); fill-opacity: 0.5;}
</style>
</defs>
<rect x="48265.0" y="-78535.0" width="22770.0" height="2144.0" fill="#222" stroke="none"/>
<g id="(40, 0)" transform="scale(1 -1)">
<polygon class="l40d0" points="69970.0,77426.0 69818.0,77426.0 69818.0,77470.0 69970.0,77470.0 69970.0,77426.0"/>
<polygon class="l40d0" points="69782.0,77500.0 69782.0,77470.0 69838.0,77470.0 69838.0,77426.0 69290.0,77426.0 69290.0,77470.0 69344.0,77470.0 69344.0,77500.0 69782.0,77500.0"/>
<polygon class="l40d0" points="55526.0,77500.0 55526.0,77470.0 55582.00000000001,77470.0 55582.00000000001,77426.0 55034.0,77426.0 55034.0,77470.0 55088.0,77470.0 55088.0,77500.0 55526.0,77500.0"/>
<polygon class="l40d0" points="69277.0,77500.0 69277.0,77470.0 69310.0,77470.0 69310.0,77426.0 65066.0,77426.0 65066.0,77470.0 65099.0,77470.0 65099.0,77500.0 69277.0,77500.0"/>
<polygon class="l40d0" points="65053.0,77500.0 65053.0,77470.0 65086.0,77470.0 65086.0,77426.0 60841.99999999999,77426.0 60841.99999999999,77470.0 60875.0,77470.0 60875.0,77500.0 65053.0,77500.0"/>
<polygon class="l40d0" points="60829.0,77500.0 60829.0,77470.0 60862.0,77470.0 60862.0,77426.0 56618.00000000001,77426.0 56618.00000000001,77470.0 56651.0,77470.0 56651.0,77500.0 60829.0,77500.0"/>
<polygon class="l40d0" points="51643.00000000001,77500.0 51643.00000000001,77470.0 51688.0,77470.0 51688.0,77426.0 51536.0,77426.0 51536.0,77470.0 51581.00000000001,77470.0 51581.00000000001,77500.0 51643.00000000001,77500.0"/>
<polygon class="l40d0" points="54993.50000000001,77500.0 54993.50000000001,77470.0 55054.0,77470.0 55054.0,77426.0 53978.0,77426.0 53978.0,77470.0 54038.5,77470.0 54038.5,77500.0 54993.50000000001,77500.0"/>
<polygon class="l40d0" points="70000.0,77426.0 69950.0,77426.0 69950.0,77470.0 69984.0,77470.0 69984.0,77495.5 70000.0,77495.5 70000.0,77426.0"/>
<polygon class="l40d0" points="50439.50000000001,77500.0 50439.50000000001,77470.0 50632.0,77470.0 50632.0,77426.0 50150.0,77426.0 50150.0,77470.0 50184.0,77470.0 50184.0,77495.5 50239.0,77495.5 50239.0,77470.0 50330.5,77470.0 50330.5,77500.0 50439.50000000001,77500.0"/>
<polygon class="l40d0" points="50901.5,77500.0 50901.5,77470.0 51094.0,77470.0 51094.0,77426.0 50612.0,77426.0 50612.0,77470.0 50646.0,77470.0 50646.0,77495.5 50701.0,77495.5 50701.0,77470.0 50792.5,77470.0 50792.5,77500.0 50901.5,77500.0"/>
<polygon class="l40d0" points="51957.50000000001,77500.0 51957.50000000001,77470.0 52150.0,77470.0 52150.0,77426.0 51668.00000000001,77426.0 51668.00000000001,77470.0 51702.0,77470.0 51702.0,77495.5 51757.00000000001,77495.5 51757.00000000001,77470.0 51848.5,77470.0 51848.5,77500.0 51957.50000000001,77500.0"/>
<polygon class="l40d0" points="51363.5,77500.0 51363.5,77470.0 51556.00000000001,77470.0 51556.00000000001,77426.0 51074.0,77426.0 51074.0,77470.0 51108.0,77470.0 51108.0,77495.5 51163.0,77495.5 51163.0,77470.0 51254.49999999999,77470.0 51254.49999999999,77500.0 51363.5,77500.0"/>
<polygon class="l40d0" points="52419.50000000001,77500.0 52419.50000000001,77470.0 52612.0,77470.0 52612.0,77426.0 52129.99999999999,77426.0 52129.99999999999,77470.0 52164.0,77470.0 52164.0,77495.5 52219.00000000001,77495.5 52219.00000000001,77470.0 52310.5,77470.0 52310.5,77500.0 52419.50000000001,77500.0"/>
<polygon class="l40d0" points="52881.50000000001,77500.0 52881.50000000001,77470.0 53074.0,77470.0 53074.0,77426.0 52591.99999999999,77426.0 52591.99999999999,77470.0 52626.0,77470.0 52626.0,77495.5 52681.00000000001,77495.5 52681.00000000001,77470.0 52772.5,77470.0 52772.5,77500.0 52881.50000000001,77500.0"/>
<polygon class="l40d0" points="53343.50000000001,77500.0 53343.50000000001,77470.0 53536.0,77470.0 53536.0,77426.0 53054.0,77426.0 53054.0,77470.0 53088.0,77470.0 53088.0,77495.5 53143.00000000001,77495.5 53143.00000000001,77470.0 53234.5,77470.0 53234.5,77500.0 53343.50000000001,77500.0"/>
<polygon class="l40d0" points="53805.50000000001,77500.0 53805.50000000001,77470.0 53998.0,77470.0 53998.0,77426.0 53516.0,77426.0 53516.0,77470.0 53550.0,77470.0 53550.0,77495.5 53604.99999999999,77495.5 53604.99999999999,77470.0 53696.5,77470.0 53696.5,77500.0 53805.50000000001,77500.0"/>
<polygon class="l40d0" points="49300.0,77470.0 49784.5,77470.0 49784.5,77495.5 49839.50000000001,77495.5 49839.50000000001,77470.0 50170.0,77470.0 50170.0,77426.0 49300.0,77426.0 49300.0,77470.0"/>
<polygon class="l40d0" points="55562.0,77470.0 56531.00000000001,77470.0 56531.00000000001,77495.5 56586.0,77495.5 56586.0,77470.0 56638.0,77470.0 56638.0,77426.0 55562.0,77426.0 55562.0,77470.0"/>
</g>
</svg>