<?xml version="1.0" encoding="UTF-8"?>
<svg xmlns="http://www.w3.org/2000/svg" xmlns:xlink="http://www.w3.org/1999/xlink"
     width="22770.0" height="3340.0" viewBox="48265.0 -78535.0 22770.0 3340.0">
<defs>
<style type="text/css">
.l61d0 {stroke: rgb(187, 255, 106); fill: rgb(187, 255, 106); fill-opacity: 0.5;}
</style>
</defs>
<rect x="48265.0" y="-78535.0" width="22770.0" height="3340.0" fill="#222" stroke="none"/>
<g id="(61, 0)" transform="scale(1 -1)">
<polygon class="l61d0" points="70000.0,76904.0 65324.0,76904.0 65324.0,76984.0 70000.0,76984.0 70000.0,76904.0"/>
<polygon class="l61d0" points="70000.0,76400.0 64024.0,76400.0 64024.0,76480.0 70000.0,76480.0 70000.0,76400.0"/>
<polygon class="l61d0" points="49300.0,77488.0 70000.0,77488.0 70000.0,77408.0 49300.0,77408.0 49300.0,77488.0"/>
<polygon class="l61d0" points="49300.0,77095.5 70000.0,77095.5 70000.0,77072.5 49300.0,77072.5 49300.0,77095.5"/>
<polygon class="l61d0" points="49300.0,77207.5 59576.5,77207.5 59576.5,77184.5 49300.0,77184.5 49300.0,77207.5"/>
<polygon class="l61d0" points="70000.0,77296.5 59553.5,77296.5 59553.5,77319.5 70000.0,77319.5 70000.0,77296.5"/>
<polygon class="l61d0" points="56781.50000000001,77375.5 66440.5,77375.5 66440.5,77352.5 56781.50000000001,77352.5 56781.50000000001,77375.5"/>
<polygon class="l61d0" points="49300.0,76255.5 65252.5,76255.5 65252.5,76232.5 49300.0,76232.5 49300.0,76255.5"/>
<polygon class="l61d0" points="49300.0,76367.5 53504.49999999999,76367.5 53504.49999999999,76344.5 49300.0,76344.5 49300.0,76367.5"/>
<polygon class="l61d0" points="70000.0,77240.5 53481.50000000001,77240.5 53481.50000000001,77263.5 70000.0,77263.5 70000.0,77240.5"/>
<polygon class="l61d0" points="51699.5,76535.5 54494.50000000001,76535.5 54494.50000000001,76512.5 51699.5,76512.5 51699.5,76535.5"/>
<polygon class="l61d0" points="65955.5,76871.5 66374.5,76871.5 66374.5,76848.5 65955.5,76848.5 65955.5,76871.5"/>
<polygon class="l61d0" points="66351.5,76848.5 66351.5,76916.0 66374.5,76916.0 66374.5,76848.5 66351.5,76848.5"/>
<polygon class="l61d0" points="54999.5,77352.5 54999.5,77420.0 55022.5,77420.0 55022.5,77352.5 54999.5,77352.5"/>
<polygon class="l61d0" points="69942.0,77500.0 69942.0,77488.0 69960.0,77488.0 69960.0,77408.0 69828.0,77408.0 69828.0,77488.0 69908.0,77488.0 69908.0,77500.0 69942.0,77500.0"/>
<polygon class="l61d0" points="69828.0,77488.0 69828.0,77408.0 69300.0,77408.0 69300.0,77488.0 69828.0,77488.0"/>
<polygon class="l61d0" points="55572.0,77488.0 55572.0,77408.0 55044.00000000001,77408.0 55044.00000000001,77488.0 55572.0,77488.0"/>
<polygon class="l61d0" points="69300.0,77488.0 69300.0,77408.0 65076.0,77408.0 65076.0,77488.0 69300.0,77488.0"/>
<polygon class="l61d0" points="65076.0,77488.0 65076.0,77408.0 60852.0,77408.0 60852.0,77488.0 65076.0,77488.0"/>
<polygon class="l61d0" points="60852.0,77488.0 60852.0,77408.0 56628.0,77408.0 56628.0,77488.0 60852.0,77488.0"/>
<polygon class="l61d0" points="51678.0,77488.0 51678.0,77408.0 51546.0,77408.0 51546.0,77488.0 51678.0,77488.0"/>
<polygon class="l61d0" points="55044.00000000001,77488.0 55044.00000000001,77408.0 53988.0,77408.0 53988.0,77488.0 55044.00000000001,77488.0"/>
<polygon class="l61d0" points="70000.0,77408.0 69960.0,77408.0 69960.0,77488.0 70000.0,77488.0 70000.0,77408.0"/>
<polygon class="l61d0" points="50280.0,77500.0 50280.0,77488.0 50514.0,77488.0 50514.0,77500.0 50548.0,77500.0 50548.0,77488.0 50622.0,77488.0 50622.0,77408.0 50160.0,77408.0 50160.0,77488.0 50246.0,77488.0 50246.0,77500.0 50280.0,77500.0"/>
<polygon class="l61d0" points="50742.0,77500.0 50742.0,77488.0 50976.0,77488.0 50976.0,77500.0 51010.0,77500.0 51010.0,77488.0 51084.0,77488.0 51084.0,77408.0 50622.0,77408.0 50622.0,77488.0 50708.0,77488.0 50708.0,77500.0 50742.0,77500.0"/>
<polygon class="l61d0" points="51798.0,77500.0 51798.0,77488.0 52032.00000000001,77488.0 52032.00000000001,77500.0 52066.0,77500.0 52066.0,77488.0 52140.0,77488.0 52140.0,77408.0 51678.0,77408.0 51678.0,77488.0 51764.0,77488.0 51764.0,77500.0 51798.0,77500.0"/>
<polygon class="l61d0" points="51204.0,77500.0 51204.0,77488.0 51438.0,77488.0 51438.0,77500.0 51472.0,77500.0 51472.0,77488.0 51546.0,77488.0 51546.0,77408.0 51084.0,77408.0 51084.0,77488.0 51170.0,77488.0 51170.0,77500.0 51204.0,77500.0"/>
<polygon class="l61d0" points="52260.0,77500.0 52260.0,77488.0 52494.00000000001,77488.0 52494.00000000001,77500.0 52528.0,77500.0 52528.0,77488.0 52602.0,77488.0 52602.0,77408.0 52140.0,77408.0 52140.0,77488.0 52226.0,77488.0 52226.0,77500.0 52260.0,77500.0"/>
<polygon class="l61d0" points="52722.0,77500.0 52722.0,77488.0 52956.00000000001,77488.0 52956.00000000001,77500.0 52990.0,77500.0 52990.0,77488.0 53064.0,77488.0 53064.0,77408.0 52602.0,77408.0 52602.0,77488.0 52688.0,77488.0 52688.0,77500.0 52722.0,77500.0"/>
<polygon class="l61d0" points="53184.0,77500.0 53184.0,77488.0 53418.00000000001,77488.0 53418.00000000001,77500.0 53452.0,77500.0 53452.0,77488.0 53526.0,77488.0 53526.0,77408.0 53064.0,77408.0 53064.0,77488.0 53150.0,77488.0 53150.0,77500.0 53184.0,77500.0"/>
<polygon class="l61d0" points="53646.0,77500.0 53646.0,77488.0 53879.99999999999,77488.0 53879.99999999999,77500.0 53914.0,77500.0 53914.0,77488.0 53988.0,77488.0 53988.0,77408.0 53526.0,77408.0 53526.0,77488.0 53612.0,77488.0 53612.0,77500.0 53646.0,77500.0"/>
<polygon class="l61d0" points="49300.0,77488.0 49454.0,77488.0 49454.0,77500.0 49495.5,77500.0 49495.5,77488.0 49741.5,77488.0 49741.5,77500.0 49783.0,77500.0 49783.0,77488.0 49975.0,77488.0 49975.0,77500.0 50009.0,77500.0 50009.0,77488.0 50160.0,77488.0 50160.0,77408.0 49300.0,77408.0 49300.0,77488.0"/>
<polygon class="l61d0" points="55624.0,77500.0 55624.0,77488.0 55718.00000000001,77488.0 55718.00000000001,77500.0 55752.0,77500.0 55752.0,77488.0 55846.0,77488.0 55846.0,77500.0 55880.00000000001,77500.0 55880.00000000001,77488.0 55974.0,77488.0 55974.0,77500.0 56008.00000000001,77500.0 56008.00000000001,77488.0 56102.0,77488.0 56102.0,77500.0 56136.0,77500.0 56136.0,77488.0 56230.00000000001,77488.0 56230.00000000001,77500.0 56264.0,77500.0 56264.0,77488.0 56358.00000000001,77488.0 56358.00000000001,77500.0 56391.99999999999,77500.0 56391.99999999999,77488.0 56490.0,77488.0 56490.0,77500.0 56524.0,77500.0 56524.0,77488.0 56628.0,77488.0 56628.0,77408.0 55572.0,77408.0 55572.0,77488.0 55590.0,77488.0 55590.0,77500.0 55624.0,77500.0"/>
<polygon class="l61d0" points="54991.99999999999,77378.0 55030.00000000001,77378.0 55030.00000000001,77350.0 54991.99999999999,77350.0 54991.99999999999,77378.0"/>
<polygon class="l61d0" points="65948.0,76874.0 65986.0,76874.0 65986.0,76846.0 65948.0,76846.0 65948.0,76874.0"/>
<polygon class="l61d0" points="51691.99999999999,76538.0 51729.99999999999,76538.0 51729.99999999999,76510.0 51691.99999999999,76510.0 51691.99999999999,76538.0"/>
<polygon class="l61d0" points="54464.0,76538.0 54502.0,76538.0 54502.0,76510.0 54464.0,76510.0 54464.0,76538.0"/>
<polygon class="l61d0" points="53474.0,77266.0 53512.0,77266.0 53512.0,77238.0 53474.0,77238.0 53474.0,77266.0"/>
<polygon class="l61d0" points="53474.0,76370.0 53512.0,76370.0 53512.0,76342.0 53474.0,76342.0 53474.0,76370.0"/>
<polygon class="l61d0" points="65222.0,76258.0 65260.0,76258.0 65260.0,76230.0 65222.0,76230.0 65222.0,76258.0"/>
<polygon class="l61d0" points="56774.0,77378.0 56812.0,77378.0 56812.0,77350.0 56774.0,77350.0 56774.0,77378.0"/>
<polygon class="l61d0" points="66410.0,77378.0 66448.0,77378.0 66448.0,77350.0 66410.0,77350.0 66410.0,77378.0"/>
<polygon class="l61d0" points="59546.0,77322.0 59584.0,77322.0 59584.0,77294.0 59546.0,77294.0 59546.0,77322.0"/>
<polygon class="l61d0" points="59546.0,77210.0 59584.0,77210.0 59584.0,77182.0 59546.0,77182.0 59546.0,77210.0"/>
<polygon class="l61d0" points="64024.0,77488.0 65024.0,77488.0 65024.0,77408.0 64024.0,77408.0 64024.0,77488.0"/>
<polygon class="l61d0" points="64024.0,76480.0 65024.0,76480.0 65024.0,76400.0 64024.0,76400.0 64024.0,76480.0"/>
<polygon class="l61d0" points="65324.0,76984.0 66324.0,76984.0 66324.0,76904.0 65324.0,76904.0 65324.0,76984.0"/>
</g>
</svg>