<?xml version="1.0" encoding="UTF-8"?>
<svg xmlns="http://www.w3.org/2000/svg" xmlns:xlink="http://www.w3.org/1999/xlink"
     width="22383.9" height="3434.9" viewBox="48633.55 -78517.45 22383.9 3434.9">
<defs>
<style type="text/css">
.l62d0 {stroke: rgb(128, 197, 255); fill: rgb(128, 197, 255); fill-opacity: 0.5;}
</style>
</defs>
<rect x="48633.55" y="-78517.45" width="22383.9" height="3434.9" fill="#222" stroke="none"/>
<g id="(62, 0)" transform="scale(1 -1)">
<polygon class="l62d0" points="69809.0,77500.0 69809.0,76846.0 69781.0,76846.0 69781.0,77500.0 69809.0,77500.0"/>
<polygon class="l62d0" points="70000.0,76100.0 69979.0,76100.0 69979.0,77434.0 70000.0,77434.0 70000.0,76100.0"/>
<polygon class="l62d0" points="54997.0,76100.0 54997.0,77378.0 55025.0,77378.0 55025.0,76100.0 54997.0,76100.0"/>
<polygon class="l62d0" points="65953.0,76100.0 65953.0,76874.0 65981.0,76874.0 65981.0,76100.0 65953.0,76100.0"/>
<polygon class="l62d0" points="52979.0,77500.0 52979.0,77070.0 52951.0,77070.0 52951.0,77500.0 52979.0,77500.0"/>
<polygon class="l62d0" points="51659.0,77500.0 51659.0,76510.0 51631.00000000001,76510.0 51631.00000000001,77500.0 51659.0,77500.0"/>
<polygon class="l62d0" points="51631.00000000001,76538.0 51725.0,76538.0 51725.0,76510.0 51631.00000000001,76510.0 51631.00000000001,76538.0"/>
<polygon class="l62d0" points="54497.0,77500.0 54497.0,76510.0 54469.00000000001,76510.0 54469.00000000001,77500.0 54497.0,77500.0"/>
<polygon class="l62d0" points="51697.0,76100.0 51697.0,76538.0 51725.0,76538.0 51725.0,76100.0 51697.0,76100.0"/>
<polygon class="l62d0" points="52781.00000000001,77500.0 52781.00000000001,77070.0 52753.0,77070.0 52753.0,77500.0 52781.00000000001,77500.0"/>
<polygon class="l62d0" points="49679.0,77500.0 49679.0,76100.0 49651.0,76100.0 49651.0,77500.0 49679.0,77500.0"/>
<polygon class="l62d0" points="49915.0,76100.0 49915.0,76426.0 49943.0,76426.0 49943.0,76100.0 49915.0,76100.0"/>
<polygon class="l62d0" points="49943.0,77500.0 49943.0,77126.0 49915.0,77126.0 49915.0,77500.0 49943.0,77500.0"/>
<polygon class="l62d0" points="63935.0,77500.0 63935.0,76342.0 63907.00000000001,76342.0 63907.00000000001,77500.0 63935.0,77500.0"/>
<polygon class="l62d0" points="53479.0,76342.0 53479.0,77266.0 53507.00000000001,77266.0 53507.00000000001,76342.0 53479.0,76342.0"/>
<polygon class="l62d0" points="65227.0,76230.0 65227.0,77434.0 65255.00000000001,77434.0 65255.00000000001,76230.0 65227.0,76230.0"/>
<polygon class="l62d0" points="64633.00000000001,76100.0 64633.00000000001,76370.0 64661.0,76370.0 64661.0,76100.0 64633.00000000001,76100.0"/>
<polygon class="l62d0" points="62851.0,76100.0 62851.0,76426.0 62879.0,76426.0 62879.0,76100.0 62851.0,76100.0"/>
<polygon class="l62d0" points="62879.0,77500.0 62879.0,77126.0 62851.0,77126.0 62851.0,77500.0 62879.0,77500.0"/>
<polygon class="l62d0" points="56779.0,76100.0 56779.0,76426.0 56807.00000000001,76426.0 56807.00000000001,76100.0 56779.0,76100.0"/>
<polygon class="l62d0" points="56779.0,77126.0 56779.0,77378.0 56807.00000000001,77378.0 56807.00000000001,77126.0 56779.0,77126.0"/>
<polygon class="l62d0" points="66443.0,77500.0 66443.0,77350.0 66415.0,77350.0 66415.0,77500.0 66443.0,77500.0"/>
<polygon class="l62d0" points="59551.0,77182.0 59551.0,77322.0 59579.0,77322.0 59579.0,77182.0 59551.0,77182.0"/>
<polygon class="l62d0" points="55619.00000000001,77500.0 55619.00000000001,76100.0 55591.0,76100.0 55591.0,77500.0 55619.00000000001,77500.0"/>
<polygon class="l62d0" points="52946.0,77098.0 52984.0,77098.0 52984.0,77070.0 52946.0,77070.0 52946.0,77098.0"/>
<polygon class="l62d0" points="52748.0,77098.0 52786.0,77098.0 52786.0,77070.0 52748.0,77070.0 52748.0,77098.0"/>
<polygon class="l62d0" points="49910.0,76426.0 49948.0,76426.0 49948.0,76398.0 49910.0,76398.0 49910.0,76426.0"/>
<polygon class="l62d0" points="49910.0,77154.0 49948.0,77154.0 49948.0,77126.0 49910.0,77126.0 49910.0,77154.0"/>
<polygon class="l62d0" points="69776.0,76874.0 69814.0,76874.0 69814.0,76846.0 69776.0,76846.0 69776.0,76874.0"/>
<polygon class="l62d0" points="63902.0,76370.0 63940.0,76370.0 63940.0,76342.0 63902.0,76342.0 63902.0,76370.0"/>
<polygon class="l62d0" points="70000.0,77406.0 69974.0,77406.0 69974.0,77434.0 70000.0,77434.0 70000.0,77406.0"/>
<polygon class="l62d0" points="65222.0,77434.0 65260.0,77434.0 65260.0,77406.0 65222.0,77406.0 65222.0,77434.0"/>
<polygon class="l62d0" points="64628.0,76370.0 64666.0,76370.0 64666.0,76342.0 64628.0,76342.0 64628.0,76370.0"/>
<polygon class="l62d0" points="62846.0,76426.0 62884.0,76426.0 62884.0,76398.0 62846.0,76398.0 62846.0,76426.0"/>
<polygon class="l62d0" points="62846.0,77154.0 62884.0,77154.0 62884.0,77126.0 62846.0,77126.0 62846.0,77154.0"/>
<polygon class="l62d0" points="56774.0,76426.0 56812.0,76426.0 56812.0,76398.0 56774.0,76398.0 56774.0,76426.0"/>
<polygon class="l62d0" points="56774.0,77154.0 56812.0,77154.0 56812.0,77126.0 56774.0,77126.0 56774.0,77154.0"/>
<polygon class="l62d0" points="54991.99999999999,77378.0 55030.00000000001,77378.0 55030.00000000001,77350.0 54991.99999999999,77350.0 54991.99999999999,77378.0"/>
<polygon class="l62d0" points="65948.0,76874.0 65986.0,76874.0 65986.0,76846.0 65948.0,76846.0 65948.0,76874.0"/>
<polygon class="l62d0" points="51691.99999999999,76538.0 51729.99999999999,76538.0 51729.99999999999,76510.0 51691.99999999999,76510.0 51691.99999999999,76538.0"/>
<polygon class="l62d0" points="54464.0,76538.0 54502.0,76538.0 54502.0,76510.0 54464.0,76510.0 54464.0,76538.0"/>
<polygon class="l62d0" points="53474.0,77266.0 53512.0,77266.0 53512.0,77238.0 53474.0,77238.0 53474.0,77266.0"/>
<polygon class="l62d0" points="53474.0,76370.0 53512.0,76370.0 53512.0,76342.0 53474.0,76342.0 53474.0,76370.0"/>
<polygon class="l62d0" points="65222.0,76258.0 65260.0,76258.0 65260.0,76230.0 65222.0,76230.0 65222.0,76258.0"/>
<polygon class="l62d0" points="56774.0,77378.0 56812.0,77378.0 56812.0,77350.0 56774.0,77350.0 56774.0,77378.0"/>
<polygon class="l62d0" points="66410.0,77378.0 66448.0,77378.0 66448.0,77350.0 66410.0,77350.0 66410.0,77378.0"/>
<polygon class="l62d0" points="59546.0,77322.0 59584.0,77322.0 59584.0,77294.0 59546.0,77294.0 59546.0,77322.0"/>
<polygon class="l62d0" points="59546.0,77210.0 59584.0,77210.0 59584.0,77182.0 59546.0,77182.0 59546.0,77210.0"/>
<polygon class="l62d0" points="64024.0,77488.0 65024.0,77488.0 65024.0,77408.0 64024.0,77408.0 64024.0,77488.0"/>
<polygon class="l62d0" points="64024.0,76480.0 65024.0,76480.0 65024.0,76400.0 64024.0,76400.0 64024.0,76480.0"/>
<polygon class="l62d0" points="65324.0,76984.0 66324.0,76984.0 66324.0,76904.0 65324.0,76904.0 65324.0,76984.0"/>
<polygon class="l62d0" points="64024.0,77488.0 65024.0,77488.0 65024.0,77408.0 64024.0,77408.0 64024.0,77488.0"/>
<polygon class="l62d0" points="64024.0,76480.0 65024.0,76480.0 65024.0,76400.0 64024.0,76400.0 64024.0,76480.0"/>
<polygon class="l62d0" points="65324.0,76984.0 66324.0,76984.0 66324.0,76904.0 65324.0,76904.0 65324.0,76984.0"/>
</g>
</svg>