<?xml version="1.0" encoding="UTF-8"?>
<svg xmlns="http://www.w3.org/2000/svg" xmlns:xlink="http://www.w3.org/1999/xlink"
     width="22770.0" height="3458.0" viewBox="48265.0 -78523.0 22770.0 3458.0">
<defs>
<style type="text/css">
.l65d0 {stroke: rgb(127, 21, 255); fill: rgb(127, 21, 255); fill-opacity: 0.5;}
</style>
</defs>
<rect x="48265.0" y="-78523.0" width="22770.0" height="3458.0" fill="#222" stroke="none"/>
<g id="(65, 0)" transform="scale(1 -1)">
<polygon class="l65d0" points="70000.0,77238.0 65161.0,77238.0 65161.0,77266.0 70000.0,77266.0 70000.0,77238.0"/>
<polygon class="l65d0" points="49300.0,76594.0 65189.0,76594.0 65189.0,76566.0 49300.0,76566.0 49300.0,76594.0"/>
<polygon class="l65d0" points="49300.0,76314.0 60437.0,76314.0 60437.0,76286.0 49300.0,76286.0 49300.0,76314.0"/>
<polygon class="l65d0" points="49300.0,76426.0 59546.0,76426.0 59546.0,76398.0 49300.0,76398.0 49300.0,76426.0"/>
<polygon class="l65d0" points="59518.00000000001,77378.0 66509.0,77378.0 66509.0,77350.0 59518.00000000001,77350.0 59518.00000000001,77378.0"/>
<polygon class="l65d0" points="49300.0,76482.0 59447.0,76482.0 59447.0,76454.0 49300.0,76454.0 49300.0,76482.0"/>
<polygon class="l65d0" points="67128.0,76263.0 67182.0,76263.0 67182.0,76225.0 67128.0,76225.0 67128.0,76263.0"/>
<polygon class="l65d0" points="60990.0,76263.0 61044.00000000001,76263.0 61044.00000000001,76225.0 60990.0,76225.0 60990.0,76263.0"/>
<polygon class="l65d0" points="60990.0,77215.0 61044.00000000001,77215.0 61044.00000000001,77177.0 60990.0,77177.0 60990.0,77215.0"/>
<polygon class="l65d0" points="65151.0,77271.0 65199.0,77271.0 65199.0,77233.0 65151.0,77233.0 65151.0,77271.0"/>
<polygon class="l65d0" points="65151.0,76599.0 65199.0,76599.0 65199.0,76561.0 65151.0,76561.0 65151.0,76599.0"/>
<polygon class="l65d0" points="60399.0,76319.0 60447.0,76319.0 60447.0,76281.0 60399.0,76281.0 60399.0,76319.0"/>
<polygon class="l65d0" points="59508.00000000001,76431.0 59556.00000000001,76431.0 59556.00000000001,76393.0 59508.00000000001,76393.0 59508.00000000001,76431.0"/>
<polygon class="l65d0" points="59508.00000000001,77383.0 59556.00000000001,77383.0 59556.00000000001,77345.0 59508.00000000001,77345.0 59508.00000000001,77383.0"/>
<polygon class="l65d0" points="67136.0,76258.0 67174.0,76258.0 67174.0,76230.0 67136.0,76230.0 67136.0,76258.0"/>
<polygon class="l65d0" points="66476.0,77378.0 66514.0,77378.0 66514.0,77350.0 66476.0,77350.0 66476.0,77378.0"/>
<polygon class="l65d0" points="60998.0,76258.0 61036.0,76258.0 61036.0,76230.0 60998.0,76230.0 60998.0,76258.0"/>
<polygon class="l65d0" points="60998.0,77210.0 61036.0,77210.0 61036.0,77182.0 60998.0,77182.0 60998.0,77210.0"/>
<polygon class="l65d0" points="59414.0,76482.0 59452.0,76482.0 59452.0,76454.0 59414.0,76454.0 59414.0,76482.0"/>
<polygon class="l65d0" points="64024.0,77488.0 65024.0,77488.0 65024.0,77408.0 64024.0,77408.0 64024.0,77488.0"/>
<polygon class="l65d0" points="64024.0,76480.0 65024.0,76480.0 65024.0,76400.0 64024.0,76400.0 64024.0,76480.0"/>
<polygon class="l65d0" points="65324.0,76984.0 66324.0,76984.0 66324.0,76904.0 65324.0,76904.0 65324.0,76984.0"/>
<polygon class="l65d0" points="64024.0,76100.0 64024.0,76262.0 64693.00000000001,76262.0 64693.00000000001,76100.0 64024.0,76100.0"/>
<polygon class="l65d0" points="64024.0,76100.0 64024.0,76262.0 65024.0,76262.0 65024.0,76100.0 64024.0,76100.0"/>
<polygon class="l65d0" points="64024.0,77488.0 65024.0,77488.0 65024.0,77408.0 64024.0,77408.0 64024.0,77488.0"/>
<polygon class="l65d0" points="64024.0,76480.0 65024.0,76480.0 65024.0,76400.0 64024.0,76400.0 64024.0,76480.0"/>
<polygon class="l65d0" points="65324.0,76984.0 66324.0,76984.0 66324.0,76904.0 65324.0,76904.0 65324.0,76984.0"/>
</g>
</svg>