<?xml version="1.0" encoding="UTF-8"?>
<svg xmlns="http://www.w3.org/2000/svg" xmlns:xlink="http://www.w3.org/1999/xlink"
     width="22092.4" height="3126.4" viewBox="48911.8 -78465.2 22092.4 3126.4">
<defs>
<style type="text/css">
.l71d0 {stroke: rgb(255, 149, 255); fill: rgb(255, 149, 255); fill-opacity: 0.5;}
</style>
</defs>
<rect x="48911.8" y="-78465.2" width="22092.4" height="3126.4" fill="#222" stroke="none"/>
<g id="(71, 0)" transform="scale(1 -1)">
<polygon class="l71d0" points="52952.0,77097.0 52978.0,77097.0 52978.0,77071.0 52952.0,77071.0 52952.0,77097.0"/>
<polygon class="l71d0" points="52754.0,77097.0 52779.99999999999,77097.0 52779.99999999999,77071.0 52754.0,77071.0 52754.0,77097.0"/>
<polygon class="l71d0" points="49916.0,76425.0 49942.0,76425.0 49942.0,76399.0 49916.0,76399.0 49916.0,76425.0"/>
<polygon class="l71d0" points="49916.0,77153.0 49942.0,77153.0 49942.0,77127.0 49916.0,77127.0 49916.0,77153.0"/>
<polygon class="l71d0" points="69782.0,76873.0 69808.0,76873.0 69808.0,76847.0 69782.0,76847.0 69782.0,76873.0"/>
<polygon class="l71d0" points="63908.00000000001,76369.0 63934.0,76369.0 63934.0,76343.0 63908.00000000001,76343.0 63908.00000000001,76369.0"/>
<polygon class="l71d0" points="70000.0,77407.0 69980.0,77407.0 69980.0,77433.0 70000.0,77433.0 70000.0,77407.0"/>
<polygon class="l71d0" points="65228.0,77433.0 65254.0,77433.0 65254.0,77407.0 65228.0,77407.0 65228.0,77433.0"/>
<polygon class="l71d0" points="64634.0,76369.0 64660.0,76369.0 64660.0,76343.0 64634.0,76343.0 64634.0,76369.0"/>
<polygon class="l71d0" points="62852.0,76425.0 62878.0,76425.0 62878.0,76399.0 62852.0,76399.0 62852.0,76425.0"/>
<polygon class="l71d0" points="62852.0,77153.0 62878.0,77153.0 62878.0,77127.0 62852.0,77127.0 62852.0,77153.0"/>
<polygon class="l71d0" points="56780.00000000001,76425.0 56806.00000000001,76425.0 56806.00000000001,76399.0 56780.00000000001,76399.0 56780.00000000001,76425.0"/>
<polygon class="l71d0" points="56780.00000000001,77153.0 56806.00000000001,77153.0 56806.00000000001,77127.0 56780.00000000001,77127.0 56780.00000000001,77153.0"/>
<polygon class="l71d0" points="64979.0,77461.0 65005.00000000001,77461.0 65005.00000000001,77435.0 64979.0,77435.0 64979.0,77461.0"/>
<polygon class="l71d0" points="64927.0,77461.0 64953.0,77461.0 64953.0,77435.0 64927.0,77435.0 64927.0,77461.0"/>
<polygon class="l71d0" points="64875.0,77461.0 64901.0,77461.0 64901.0,77435.0 64875.0,77435.0 64875.0,77461.0"/>
<polygon class="l71d0" points="64823.0,77461.0 64849.0,77461.0 64849.0,77435.0 64823.0,77435.0 64823.0,77461.0"/>
<polygon class="l71d0" points="64771.0,77461.0 64797.0,77461.0 64797.0,77435.0 64771.0,77435.0 64771.0,77461.0"/>
<polygon class="l71d0" points="64719.00000000001,77461.0 64745.00000000001,77461.0 64745.00000000001,77435.0 64719.00000000001,77435.0 64719.00000000001,77461.0"/>
<polygon class="l71d0" points="64666.99999999999,77461.0 64693.00000000001,77461.0 64693.00000000001,77435.0 64666.99999999999,77435.0 64666.99999999999,77461.0"/>
<polygon class="l71d0" points="64615.0,77461.0 64641.0,77461.0 64641.0,77435.0 64615.0,77435.0 64615.0,77461.0"/>
<polygon class="l71d0" points="64563.0,77461.0 64589.0,77461.0 64589.0,77435.0 64563.0,77435.0 64563.0,77461.0"/>
<polygon class="l71d0" points="64511.0,77461.0 64537.0,77461.0 64537.0,77435.0 64511.0,77435.0 64511.0,77461.0"/>
<polygon class="l71d0" points="64459.0,77461.0 64485.0,77461.0 64485.0,77435.0 64459.0,77435.0 64459.0,77461.0"/>
<polygon class="l71d0" points="64407.00000000001,77461.0 64433.00000000001,77461.0 64433.00000000001,77435.0 64407.00000000001,77435.0 64407.00000000001,77461.0"/>
<polygon class="l71d0" points="64355.00000000001,77461.0 64381.00000000001,77461.0 64381.00000000001,77435.0 64355.00000000001,77435.0 64355.00000000001,77461.0"/>
<polygon class="l71d0" points="64303.0,77461.0 64329.0,77461.0 64329.0,77435.0 64303.0,77435.0 64303.0,77461.0"/>
<polygon class="l71d0" points="64251.0,77461.0 64277.0,77461.0 64277.0,77435.0 64251.0,77435.0 64251.0,77461.0"/>
<polygon class="l71d0" points="64199.0,77461.0 64225.0,77461.0 64225.0,77435.0 64199.0,77435.0 64199.0,77461.0"/>
<polygon class="l71d0" points="64147.0,77461.0 64173.0,77461.0 64173.0,77435.0 64147.0,77435.0 64147.0,77461.0"/>
<polygon class="l71d0" points="64095.00000000001,77461.0 64121.0,77461.0 64121.0,77435.0 64095.00000000001,77435.0 64095.00000000001,77461.0"/>
<polygon class="l71d0" points="64043.00000000001,77461.0 64069.00000000001,77461.0 64069.00000000001,77435.0 64043.00000000001,77435.0 64043.00000000001,77461.0"/>
<polygon class="l71d0" points="64979.0,76453.0 65005.00000000001,76453.0 65005.00000000001,76427.0 64979.0,76427.0 64979.0,76453.0"/>
<polygon class="l71d0" points="64927.0,76453.0 64953.0,76453.0 64953.0,76427.0 64927.0,76427.0 64927.0,76453.0"/>
<polygon class="l71d0" points="64875.0,76453.0 64901.0,76453.0 64901.0,76427.0 64875.0,76427.0 64875.0,76453.0"/>
<polygon class="l71d0" points="64823.0,76453.0 64849.0,76453.0 64849.0,76427.0 64823.0,76427.0 64823.0,76453.0"/>
<polygon class="l71d0" points="64771.0,76453.0 64797.0,76453.0 64797.0,76427.0 64771.0,76427.0 64771.0,76453.0"/>
<polygon class="l71d0" points="64719.00000000001,76453.0 64745.00000000001,76453.0 64745.00000000001,76427.0 64719.00000000001,76427.0 64719.00000000001,76453.0"/>
<polygon class="l71d0" points="64666.99999999999,76453.0 64693.00000000001,76453.0 64693.00000000001,76427.0 64666.99999999999,76427.0 64666.99999999999,76453.0"/>
<polygon class="l71d0" points="64615.0,76453.0 64641.0,76453.0 64641.0,76427.0 64615.0,76427.0 64615.0,76453.0"/>
<polygon class="l71d0" points="64563.0,76453.0 64589.0,76453.0 64589.0,76427.0 64563.0,76427.0 64563.0,76453.0"/>
<polygon class="l71d0" points="64511.0,76453.0 64537.0,76453.0 64537.0,76427.0 64511.0,76427.0 64511.0,76453.0"/>
<polygon class="l71d0" points="64459.0,76453.0 64485.0,76453.0 64485.0,76427.0 64459.0,76427.0 64459.0,76453.0"/>
<polygon class="l71d0" points="64407.00000000001,76453.0 64433.00000000001,76453.0 64433.00000000001,76427.0 64407.00000000001,76427.0 64407.00000000001,76453.0"/>
<polygon class="l71d0" points="64355.00000000001,76453.0 64381.00000000001,76453.0 64381.00000000001,76427.0 64355.00000000001,76427.0 64355.00000000001,76453.0"/>
<polygon class="l71d0" points="64303.0,76453.0 64329.0,76453.0 64329.0,76427.0 64303.0,76427.0 64303.0,76453.0"/>
<polygon class="l71d0" points="64251.0,76453.0 64277.0,76453.0 64277.0,76427.0 64251.0,76427.0 64251.0,76453.0"/>
<polygon class="l71d0" points="64199.0,76453.0 64225.0,76453.0 64225.0,76427.0 64199.0,76427.0 64199.0,76453.0"/>
<polygon class="l71d0" points="64147.0,76453.0 64173.0,76453.0 64173.0,76427.0 64147.0,76427.0 64147.0,76453.0"/>
<polygon class="l71d0" points="64095.00000000001,76453.0 64121.0,76453.0 64121.0,76427.0 64095.00000000001,76427.0 64095.00000000001,76453.0"/>
<polygon class="l71d0" points="64043.00000000001,76453.0 64069.00000000001,76453.0 64069.00000000001,76427.0 64043.00000000001,76427.0 64043.00000000001,76453.0"/>
<polygon class="l71d0" points="66279.0,76957.0 66305.0,76957.0 66305.0,76931.0 66279.0,76931.0 66279.0,76957.0"/>
<polygon class="l71d0" points="66227.0,76957.0 66253.0,76957.0 66253.0,76931.0 66227.0,76931.0 66227.0,76957.0"/>
<polygon class="l71d0" points="66175.0,76957.0 66201.0,76957.0 66201.0,76931.0 66175.0,76931.0 66175.0,76957.0"/>
<polygon class="l71d0" points="66123.0,76957.0 66149.0,76957.0 66149.0,76931.0 66123.0,76931.0 66123.0,76957.0"/>
<polygon class="l71d0" points="66071.0,76957.0 66097.0,76957.0 66097.0,76931.0 66071.0,76931.0 66071.0,76957.0"/>
<polygon class="l71d0" points="66019.0,76957.0 66045.0,76957.0 66045.0,76931.0 66019.0,76931.0 66019.0,76957.0"/>
<polygon class="l71d0" points="65967.0,76957.0 65993.0,76957.0 65993.0,76931.0 65967.0,76931.0 65967.0,76957.0"/>
<polygon class="l71d0" points="65915.0,76957.0 65941.0,76957.0 65941.0,76931.0 65915.0,76931.0 65915.0,76957.0"/>
<polygon class="l71d0" points="65863.0,76957.0 65889.0,76957.0 65889.0,76931.0 65863.0,76931.0 65863.0,76957.0"/>
<polygon class="l71d0" points="65811.0,76957.0 65837.0,76957.0 65837.0,76931.0 65811.0,76931.0 65811.0,76957.0"/>
<polygon class="l71d0" points="65759.0,76957.0 65785.0,76957.0 65785.0,76931.0 65759.0,76931.0 65759.0,76957.0"/>
<polygon class="l71d0" points="65707.0,76957.0 65733.0,76957.0 65733.0,76931.0 65707.0,76931.0 65707.0,76957.0"/>
<polygon class="l71d0" points="65655.0,76957.0 65681.0,76957.0 65681.0,76931.0 65655.0,76931.0 65655.0,76957.0"/>
<polygon class="l71d0" points="65603.0,76957.0 65629.0,76957.0 65629.0,76931.0 65603.0,76931.0 65603.0,76957.0"/>
<polygon class="l71d0" points="65551.0,76957.0 65577.0,76957.0 65577.0,76931.0 65551.0,76931.0 65551.0,76957.0"/>
<polygon class="l71d0" points="65499.0,76957.0 65525.0,76957.0 65525.0,76931.0 65499.0,76931.0 65499.0,76957.0"/>
<polygon class="l71d0" points="65447.0,76957.0 65473.0,76957.0 65473.0,76931.0 65447.0,76931.0 65447.0,76957.0"/>
<polygon class="l71d0" points="65395.00000000001,76957.0 65421.0,76957.0 65421.0,76931.0 65395.00000000001,76931.0 65395.00000000001,76957.0"/>
<polygon class="l71d0" points="65343.00000000001,76957.0 65369.00000000001,76957.0 65369.00000000001,76931.0 65343.00000000001,76931.0 65343.00000000001,76957.0"/>
</g>
</svg>