<?xml version="1.0" encoding="UTF-8"?>
<svg xmlns="http://www.w3.org/2000/svg" xmlns:xlink="http://www.w3.org/1999/xlink"
     width="8522.799999999992" height="2112.7999999999993" viewBox="59032.600000000006 -77848.4 8522.799999999992 2112.7999999999993">
<defs>
<style type="text/css">
.l73d0 {stroke: rgb(21, 255, 149); fill: rgb(21, 255, 149); fill-opacity: 0.5;}
</style>
</defs>
<rect x="59032.600000000006" y="-77848.4" width="8522.799999999992" height="2112.7999999999993" fill="#222" stroke="none"/>
<g id="(73, 0)" transform="scale(1 -1)">
<polygon class="l73d0" points="67142.0,76257.0 67168.0,76257.0 67168.0,76231.0 67142.0,76231.0 67142.0,76257.0"/>
<polygon class="l73d0" points="66482.0,77377.0 66508.0,77377.0 66508.0,77351.0 66482.0,77351.0 66482.0,77377.0"/>
<polygon class="l73d0" points="61004.0,76257.0 61030.00000000001,76257.0 61030.00000000001,76231.0 61004.0,76231.0 61004.0,76257.0"/>
<polygon class="l73d0" points="61004.0,77209.0 61030.00000000001,77209.0 61030.00000000001,77183.0 61004.0,77183.0 61004.0,77209.0"/>
<polygon class="l73d0" points="59420.00000000001,76481.0 59446.0,76481.0 59446.0,76455.0 59420.00000000001,76455.0 59420.00000000001,76481.0"/>
<polygon class="l73d0" points="64979.0,77461.0 65005.00000000001,77461.0 65005.00000000001,77435.0 64979.0,77435.0 64979.0,77461.0"/>
<polygon class="l73d0" points="64927.0,77461.0 64953.0,77461.0 64953.0,77435.0 64927.0,77435.0 64927.0,77461.0"/>
<polygon class="l73d0" points="64875.0,77461.0 64901.0,77461.0 64901.0,77435.0 64875.0,77435.0 64875.0,77461.0"/>
<polygon class="l73d0" points="64823.0,77461.0 64849.0,77461.0 64849.0,77435.0 64823.0,77435.0 64823.0,77461.0"/>
<polygon class="l73d0" points="64771.0,77461.0 64797.0,77461.0 64797.0,77435.0 64771.0,77435.0 64771.0,77461.0"/>
<polygon class="l73d0" points="64719.00000000001,77461.0 64745.00000000001,77461.0 64745.00000000001,77435.0 64719.00000000001,77435.0 64719.00000000001,77461.0"/>
<polygon class="l73d0" points="64666.99999999999,77461.0 64693.00000000001,77461.0 64693.00000000001,77435.0 64666.99999999999,77435.0 64666.99999999999,77461.0"/>
<polygon class="l73d0" points="64615.0,77461.0 64641.0,77461.0 64641.0,77435.0 64615.0,77435.0 64615.0,77461.0"/>
<polygon class="l73d0" points="64563.0,77461.0 64589.0,77461.0 64589.0,77435.0 64563.0,77435.0 64563.0,77461.0"/>
<polygon class="l73d0" points="64511.0,77461.0 64537.0,77461.0 64537.0,77435.0 64511.0,77435.0 64511.0,77461.0"/>
<polygon class="l73d0" points="64459.0,77461.0 64485.0,77461.0 64485.0,77435.0 64459.0,77435.0 64459.0,77461.0"/>
<polygon class="l73d0" points="64407.00000000001,77461.0 64433.00000000001,77461.0 64433.00000000001,77435.0 64407.00000000001,77435.0 64407.00000000001,77461.0"/>
<polygon class="l73d0" points="64355.00000000001,77461.0 64381.00000000001,77461.0 64381.00000000001,77435.0 64355.00000000001,77435.0 64355.00000000001,77461.0"/>
<polygon class="l73d0" points="64303.0,77461.0 64329.0,77461.0 64329.0,77435.0 64303.0,77435.0 64303.0,77461.0"/>
<polygon class="l73d0" points="64251.0,77461.0 64277.0,77461.0 64277.0,77435.0 64251.0,77435.0 64251.0,77461.0"/>
<polygon class="l73d0" points="64199.0,77461.0 64225.0,77461.0 64225.0,77435.0 64199.0,77435.0 64199.0,77461.0"/>
<polygon class="l73d0" points="64147.0,77461.0 64173.0,77461.0 64173.0,77435.0 64147.0,77435.0 64147.0,77461.0"/>
<polygon class="l73d0" points="64095.00000000001,77461.0 64121.0,77461.0 64121.0,77435.0 64095.00000000001,77435.0 64095.00000000001,77461.0"/>
<polygon class="l73d0" points="64043.00000000001,77461.0 64069.00000000001,77461.0 64069.00000000001,77435.0 64043.00000000001,77435.0 64043.00000000001,77461.0"/>
<polygon class="l73d0" points="64979.0,76453.0 65005.00000000001,76453.0 65005.00000000001,76427.0 64979.0,76427.0 64979.0,76453.0"/>
<polygon class="l73d0" points="64927.0,76453.0 64953.0,76453.0 64953.0,76427.0 64927.0,76427.0 64927.0,76453.0"/>
<polygon class="l73d0" points="64875.0,76453.0 64901.0,76453.0 64901.0,76427.0 64875.0,76427.0 64875.0,76453.0"/>
<polygon class="l73d0" points="64823.0,76453.0 64849.0,76453.0 64849.0,76427.0 64823.0,76427.0 64823.0,76453.0"/>
<polygon class="l73d0" points="64771.0,76453.0 64797.0,76453.0 64797.0,76427.0 64771.0,76427.0 64771.0,76453.0"/>
<polygon class="l73d0" points="64719.00000000001,76453.0 64745.00000000001,76453.0 64745.00000000001,76427.0 64719.00000000001,76427.0 64719.00000000001,76453.0"/>
<polygon class="l73d0" points="64666.99999999999,76453.0 64693.00000000001,76453.0 64693.00000000001,76427.0 64666.99999999999,76427.0 64666.99999999999,76453.0"/>
<polygon class="l73d0" points="64615.0,76453.0 64641.0,76453.0 64641.0,76427.0 64615.0,76427.0 64615.0,76453.0"/>
<polygon class="l73d0" points="64563.0,76453.0 64589.0,76453.0 64589.0,76427.0 64563.0,76427.0 64563.0,76453.0"/>
<polygon class="l73d0" points="64511.0,76453.0 64537.0,76453.0 64537.0,76427.0 64511.0,76427.0 64511.0,76453.0"/>
<polygon class="l73d0" points="64459.0,76453.0 64485.0,76453.0 64485.0,76427.0 64459.0,76427.0 64459.0,76453.0"/>
<polygon class="l73d0" points="64407.00000000001,76453.0 64433.00000000001,76453.0 64433.00000000001,76427.0 64407.00000000001,76427.0 64407.00000000001,76453.0"/>
<polygon class="l73d0" points="64355.00000000001,76453.0 64381.00000000001,76453.0 64381.00000000001,76427.0 64355.00000000001,76427.0 64355.00000000001,76453.0"/>
<polygon class="l73d0" points="64303.0,76453.0 64329.0,76453.0 64329.0,76427.0 64303.0,76427.0 64303.0,76453.0"/>
<polygon class="l73d0" points="64251.0,76453.0 64277.0,76453.0 64277.0,76427.0 64251.0,76427.0 64251.0,76453.0"/>
<polygon class="l73d0" points="64199.0,76453.0 64225.0,76453.0 64225.0,76427.0 64199.0,76427.0 64199.0,76453.0"/>
<polygon class="l73d0" points="64147.0,76453.0 64173.0,76453.0 64173.0,76427.0 64147.0,76427.0 64147.0,76453.0"/>
<polygon class="l73d0" points="64095.00000000001,76453.0 64121.0,76453.0 64121.0,76427.0 64095.00000000001,76427.0 64095.00000000001,76453.0"/>
<polygon class="l73d0" points="64043.00000000001,76453.0 64069.00000000001,76453.0 64069.00000000001,76427.0 64043.00000000001,76427.0 64043.00000000001,76453.0"/>
<polygon class="l73d0" points="66279.0,76957.0 66305.0,76957.0 66305.0,76931.0 66279.0,76931.0 66279.0,76957.0"/>
<polygon class="l73d0" points="66227.0,76957.0 66253.0,76957.0 66253.0,76931.0 66227.0,76931.0 66227.0,76957.0"/>
<polygon class="l73d0" points="66175.0,76957.0 66201.0,76957.0 66201.0,76931.0 66175.0,76931.0 66175.0,76957.0"/>
<polygon class="l73d0" points="66123.0,76957.0 66149.0,76957.0 66149.0,76931.0 66123.0,76931.0 66123.0,76957.0"/>
<polygon class="l73d0" points="66071.0,76957.0 66097.0,76957.0 66097.0,76931.0 66071.0,76931.0 66071.0,76957.0"/>
<polygon class="l73d0" points="66019.0,76957.0 66045.0,76957.0 66045.0,76931.0 66019.0,76931.0 66019.0,76957.0"/>
<polygon class="l73d0" points="65967.0,76957.0 65993.0,76957.0 65993.0,76931.0 65967.0,76931.0 65967.0,76957.0"/>
<polygon class="l73d0" points="65915.0,76957.0 65941.0,76957.0 65941.0,76931.0 65915.0,76931.0 65915.0,76957.0"/>
<polygon class="l73d0" points="65863.0,76957.0 65889.0,76957.0 65889.0,76931.0 65863.0,76931.0 65863.0,76957.0"/>
<polygon class="l73d0" points="65811.0,76957.0 65837.0,76957.0 65837.0,76931.0 65811.0,76931.0 65811.0,76957.0"/>
<polygon class="l73d0" points="65759.0,76957.0 65785.0,76957.0 65785.0,76931.0 65759.0,76931.0 65759.0,76957.0"/>
<polygon class="l73d0" points="65707.0,76957.0 65733.0,76957.0 65733.0,76931.0 65707.0,76931.0 65707.0,76957.0"/>
<polygon class="l73d0" points="65655.0,76957.0 65681.0,76957.0 65681.0,76931.0 65655.0,76931.0 65655.0,76957.0"/>
<polygon class="l73d0" points="65603.0,76957.0 65629.0,76957.0 65629.0,76931.0 65603.0,76931.0 65603.0,76957.0"/>
<polygon class="l73d0" points="65551.0,76957.0 65577.0,76957.0 65577.0,76931.0 65551.0,76931.0 65551.0,76957.0"/>
<polygon class="l73d0" points="65499.0,76957.0 65525.0,76957.0 65525.0,76931.0 65499.0,76931.0 65499.0,76957.0"/>
<polygon class="l73d0" points="65447.0,76957.0 65473.0,76957.0 65473.0,76931.0 65447.0,76931.0 65447.0,76957.0"/>
<polygon class="l73d0" points="65395.00000000001,76957.0 65421.0,76957.0 65421.0,76931.0 65395.00000000001,76931.0 65395.00000000001,76957.0"/>
<polygon class="l73d0" points="65343.00000000001,76957.0 65369.00000000001,76957.0 65369.00000000001,76931.0 65343.00000000001,76931.0 65343.00000000001,76957.0"/>
<polygon class="l73d0" points="64657.50000000001,76253.0 64683.5,76253.0 64683.5,76227.0 64657.50000000001,76227.0 64657.50000000001,76253.0"/>
<polygon class="l73d0" points="64657.50000000001,76201.0 64683.5,76201.0 64683.5,76175.0 64657.50000000001,76175.0 64657.50000000001,76201.0"/>
<polygon class="l73d0" points="64657.50000000001,76149.0 64683.5,76149.0 64683.5,76123.0 64657.50000000001,76123.0 64657.50000000001,76149.0"/>
<polygon class="l73d0" points="64605.50000000001,76253.0 64631.50000000001,76253.0 64631.50000000001,76227.0 64605.50000000001,76227.0 64605.50000000001,76253.0"/>
<polygon class="l73d0" points="64605.50000000001,76201.0 64631.50000000001,76201.0 64631.50000000001,76175.0 64605.50000000001,76175.0 64605.50000000001,76201.0"/>
<polygon class="l73d0" points="64605.50000000001,76149.0 64631.50000000001,76149.0 64631.50000000001,76123.0 64605.50000000001,76123.0 64605.50000000001,76149.0"/>
<polygon class="l73d0" points="64553.5,76253.0 64579.49999999999,76253.0 64579.49999999999,76227.0 64553.5,76227.0 64553.5,76253.0"/>
<polygon class="l73d0" points="64553.5,76201.0 64579.49999999999,76201.0 64579.49999999999,76175.0 64553.5,76175.0 64553.5,76201.0"/>
<polygon class="l73d0" points="64553.5,76149.0 64579.49999999999,76149.0 64579.49999999999,76123.0 64553.5,76123.0 64553.5,76149.0"/>
<polygon class="l73d0" points="64501.5,76253.0 64527.5,76253.0 64527.5,76227.0 64501.5,76227.0 64501.5,76253.0"/>
<polygon class="l73d0" points="64501.5,76201.0 64527.5,76201.0 64527.5,76175.0 64501.5,76175.0 64501.5,76201.0"/>
<polygon class="l73d0" points="64501.5,76149.0 64527.5,76149.0 64527.5,76123.0 64501.5,76123.0 64501.5,76149.0"/>
<polygon class="l73d0" points="64449.5,76253.0 64475.5,76253.0 64475.5,76227.0 64449.5,76227.0 64449.5,76253.0"/>
<polygon class="l73d0" points="64449.5,76201.0 64475.5,76201.0 64475.5,76175.0 64449.5,76175.0 64449.5,76201.0"/>
<polygon class="l73d0" points="64449.5,76149.0 64475.5,76149.0 64475.5,76123.0 64449.5,76123.0 64449.5,76149.0"/>
<polygon class="l73d0" points="64397.5,76253.0 64423.5,76253.0 64423.5,76227.0 64397.5,76227.0 64397.5,76253.0"/>
<polygon class="l73d0" points="64397.5,76201.0 64423.5,76201.0 64423.5,76175.0 64397.5,76175.0 64397.5,76201.0"/>
<polygon class="l73d0" points="64397.5,76149.0 64423.5,76149.0 64423.5,76123.0 64397.5,76123.0 64397.5,76149.0"/>
<polygon class="l73d0" points="64345.50000000001,76253.0 64371.5,76253.0 64371.5,76227.0 64345.50000000001,76227.0 64345.50000000001,76253.0"/>
<polygon class="l73d0" points="64345.50000000001,76201.0 64371.5,76201.0 64371.5,76175.0 64345.50000000001,76175.0 64345.50000000001,76201.0"/>
<polygon class="l73d0" points="64345.50000000001,76149.0 64371.5,76149.0 64371.5,76123.0 64345.50000000001,76123.0 64345.50000000001,76149.0"/>
<polygon class="l73d0" points="64293.50000000001,76253.0 64319.50000000001,76253.0 64319.50000000001,76227.0 64293.50000000001,76227.0 64293.50000000001,76253.0"/>
<polygon class="l73d0" points="64293.50000000001,76201.0 64319.50000000001,76201.0 64319.50000000001,76175.0 64293.50000000001,76175.0 64293.50000000001,76201.0"/>
<polygon class="l73d0" points="64293.50000000001,76149.0 64319.50000000001,76149.0 64319.50000000001,76123.0 64293.50000000001,76123.0 64293.50000000001,76149.0"/>
<polygon class="l73d0" points="64241.5,76253.0 64267.50000000001,76253.0 64267.50000000001,76227.0 64241.5,76227.0 64241.5,76253.0"/>
<polygon class="l73d0" points="64241.5,76201.0 64267.50000000001,76201.0 64267.50000000001,76175.0 64241.5,76175.0 64241.5,76201.0"/>
<polygon class="l73d0" points="64241.5,76149.0 64267.50000000001,76149.0 64267.50000000001,76123.0 64241.5,76123.0 64241.5,76149.0"/>
<polygon class="l73d0" points="64189.5,76253.0 64215.5,76253.0 64215.5,76227.0 64189.5,76227.0 64189.5,76253.0"/>
<polygon class="l73d0" points="64189.5,76201.0 64215.5,76201.0 64215.5,76175.0 64189.5,76175.0 64189.5,76201.0"/>
<polygon class="l73d0" points="64189.5,76149.0 64215.5,76149.0 64215.5,76123.0 64189.5,76123.0 64189.5,76149.0"/>
<polygon class="l73d0" points="64137.5,76253.0 64163.5,76253.0 64163.5,76227.0 64137.5,76227.0 64137.5,76253.0"/>
<polygon class="l73d0" points="64137.5,76201.0 64163.5,76201.0 64163.5,76175.0 64137.5,76175.0 64137.5,76201.0"/>
<polygon class="l73d0" points="64137.5,76149.0 64163.5,76149.0 64163.5,76123.0 64137.5,76123.0 64137.5,76149.0"/>
<polygon class="l73d0" points="64085.5,76253.0 64111.5,76253.0 64111.5,76227.0 64085.5,76227.0 64085.5,76253.0"/>
<polygon class="l73d0" points="64085.5,76201.0 64111.5,76201.0 64111.5,76175.0 64085.5,76175.0 64085.5,76201.0"/>
<polygon class="l73d0" points="64085.5,76149.0 64111.5,76149.0 64111.5,76123.0 64085.5,76123.0 64085.5,76149.0"/>
<polygon class="l73d0" points="64033.5,76253.0 64059.5,76253.0 64059.5,76227.0 64033.5,76227.0 64033.5,76253.0"/>
<polygon class="l73d0" points="64033.5,76201.0 64059.5,76201.0 64059.5,76175.0 64033.5,76175.0 64033.5,76201.0"/>
<polygon class="l73d0" points="64033.5,76149.0 64059.5,76149.0 64059.5,76123.0 64033.5,76123.0 64033.5,76149.0"/>
</g>
</svg>