<?xml version="1.0" encoding="UTF-8"?>
<svg xmlns="http://www.w3.org/2000/svg" xmlns:xlink="http://www.w3.org/1999/xlink"
     width="7893.6" height="737.6" viewBox="48941.2 -77858.8 7893.6 737.6">
<defs>
<style type="text/css">
.l30d0 {stroke: rgb(128, 255, 220); fill: rgb(128, 255, 220); fill-opacity: 0.5;}
</style>
</defs>
<rect x="48941.2" y="-77858.8" width="7893.6" height="737.6" fill="#222" stroke="none"/>
<g id="(30, 0)" transform="scale(1 -1)">
<polygon class="l30d0" points="49525.0,77500.0 49525.0,77480.0 49507.0,77480.0 49507.0,77500.0 49525.0,77500.0"/>
<polygon class="l30d0" points="49597.0,77500.0 49597.0,77480.0 49579.0,77480.0 49579.0,77500.0 49597.0,77500.0"/>
<polygon class="l30d0" points="49673.0,77500.0 49673.0,77480.0 49655.0,77480.0 49655.0,77500.0 49673.0,77500.0"/>
<polygon class="l30d0" points="49729.0,77500.0 49729.0,77480.0 49711.0,77480.0 49711.0,77500.0 49729.0,77500.0"/>
<polygon class="l30d0" points="49965.0,77500.0 49965.0,77480.0 49947.0,77480.0 49947.0,77500.0 49965.0,77500.0"/>
<polygon class="l30d0" points="50037.0,77500.0 50037.0,77480.0 50019.0,77480.0 50019.0,77500.0 50037.0,77500.0"/>
<polygon class="l30d0" points="50093.0,77500.0 50093.0,77480.0 50075.0,77480.0 50075.0,77500.0 50093.0,77500.0"/>
<polygon class="l30d0" points="49300.0,77500.0 49393.0,77500.0 49393.0,77484.5 49300.0,77484.5 49300.0,77500.0"/>
<polygon class="l30d0" points="49525.0,77500.0 49525.0,77480.0 49507.0,77480.0 49507.0,77500.0 49525.0,77500.0"/>
<polygon class="l30d0" points="49597.0,77500.0 49597.0,77480.0 49579.0,77480.0 49579.0,77500.0 49597.0,77500.0"/>
<polygon class="l30d0" points="49673.0,77500.0 49673.0,77480.0 49655.0,77480.0 49655.0,77500.0 49673.0,77500.0"/>
<polygon class="l30d0" points="49729.0,77500.0 49729.0,77480.0 49711.0,77480.0 49711.0,77500.0 49729.0,77500.0"/>
<polygon class="l30d0" points="49965.0,77500.0 49965.0,77480.0 49947.0,77480.0 49947.0,77500.0 49965.0,77500.0"/>
<polygon class="l30d0" points="50037.0,77500.0 50037.0,77480.0 50019.0,77480.0 50019.0,77500.0 50037.0,77500.0"/>
<polygon class="l30d0" points="50093.0,77500.0 50093.0,77480.0 50075.0,77480.0 50075.0,77500.0 50093.0,77500.0"/>
<polygon class="l30d0" points="55908.00000000001,77500.0 55908.00000000001,77480.0 55890.0,77480.0 55890.0,77500.0 55908.00000000001,77500.0"/>
<polygon class="l30d0" points="55964.0,77500.0 55964.0,77480.0 55946.0,77480.0 55946.0,77500.0 55964.0,77500.0"/>
<polygon class="l30d0" points="56036.0,77500.0 56036.0,77480.0 56018.00000000001,77480.0 56018.00000000001,77500.0 56036.0,77500.0"/>
<polygon class="l30d0" points="56091.99999999999,77500.0 56091.99999999999,77480.0 56074.0,77480.0 56074.0,77500.0 56091.99999999999,77500.0"/>
<polygon class="l30d0" points="56164.0,77500.0 56164.0,77480.0 56146.0,77480.0 56146.0,77500.0 56164.0,77500.0"/>
<polygon class="l30d0" points="56220.00000000001,77500.0 56220.00000000001,77480.0 56202.0,77480.0 56202.0,77500.0 56220.00000000001,77500.0"/>
<polygon class="l30d0" points="56291.99999999999,77500.0 56291.99999999999,77480.0 56274.0,77480.0 56274.0,77500.0 56291.99999999999,77500.0"/>
<polygon class="l30d0" points="56348.0,77500.0 56348.0,77480.0 56330.00000000001,77480.0 56330.00000000001,77500.0 56348.0,77500.0"/>
<polygon class="l30d0" points="56420.00000000001,77500.0 56420.00000000001,77480.0 56402.0,77480.0 56402.0,77500.0 56420.00000000001,77500.0"/>
<polygon class="l30d0" points="56476.0,77500.0 56476.0,77480.0 56458.00000000001,77480.0 56458.00000000001,77500.0 56476.0,77500.0"/>
</g>
</svg>