<?xml version="1.0" encoding="UTF-8"?>
<svg xmlns="http://www.w3.org/2000/svg" xmlns:xlink="http://www.w3.org/1999/xlink"
     width="22770.0" height="2100.0" viewBox="48265.0 -78535.0 22770.0 2100.0">
<defs>
<style type="text/css">
.l43d0 {stroke: rgb(255, 64, 99); fill: rgb(255, 64, 99); fill-opacity: 0.5;}
</style>
</defs>
<rect x="48265.0" y="-78535.0" width="22770.0" height="2100.0" fill="#222" stroke="none"/>
<g id="(43, 0)" transform="scale(1 -1)">
<polygon class="l43d0" points="69964.0,77500.0 69964.0,77470.0 69886.0,77470.0 69886.0,77500.0 69964.0,77500.0"/>
<polygon class="l43d0" points="70000.0,77500.0 70000.0,77495.5 69956.0,77495.5 69956.0,77500.0 70000.0,77500.0"/>
<polygon class="l43d0" points="50302.00000000001,77500.0 50302.00000000001,77470.0 50239.0,77470.0 50239.0,77495.5 50156.0,77495.5 50156.0,77500.0 50302.00000000001,77500.0"/>
<polygon class="l43d0" points="50570.0,77500.0 50570.0,77470.0 50492.0,77470.0 50492.0,77500.0 50570.0,77500.0"/>
<polygon class="l43d0" points="50764.0,77500.0 50764.0,77470.0 50701.0,77470.0 50701.0,77495.5 50618.0,77495.5 50618.0,77500.0 50764.0,77500.0"/>
<polygon class="l43d0" points="51032.0,77500.0 51032.0,77470.0 50954.0,77470.0 50954.0,77500.0 51032.0,77500.0"/>
<polygon class="l43d0" points="51820.00000000001,77500.0 51820.00000000001,77470.0 51757.00000000001,77470.0 51757.00000000001,77495.5 51674.0,77495.5 51674.0,77500.0 51820.00000000001,77500.0"/>
<polygon class="l43d0" points="52088.0,77500.0 52088.0,77470.0 52010.0,77470.0 52010.0,77500.0 52088.0,77500.0"/>
<polygon class="l43d0" points="51226.0,77500.0 51226.0,77470.0 51163.0,77470.0 51163.0,77495.5 51080.0,77495.5 51080.0,77500.0 51226.0,77500.0"/>
<polygon class="l43d0" points="51494.00000000001,77500.0 51494.00000000001,77470.0 51416.0,77470.0 51416.0,77500.0 51494.00000000001,77500.0"/>
<polygon class="l43d0" points="52282.00000000001,77500.0 52282.00000000001,77470.0 52219.00000000001,77470.0 52219.00000000001,77495.5 52136.0,77495.5 52136.0,77500.0 52282.00000000001,77500.0"/>
<polygon class="l43d0" points="52550.0,77500.0 52550.0,77470.0 52472.0,77470.0 52472.0,77500.0 52550.0,77500.0"/>
<polygon class="l43d0" points="52744.00000000001,77500.0 52744.00000000001,77470.0 52681.00000000001,77470.0 52681.00000000001,77495.5 52598.0,77495.5 52598.0,77500.0 52744.00000000001,77500.0"/>
<polygon class="l43d0" points="53012.0,77500.0 53012.0,77470.0 52934.0,77470.0 52934.0,77500.0 53012.0,77500.0"/>
<polygon class="l43d0" points="53206.00000000001,77500.0 53206.00000000001,77470.0 53143.00000000001,77470.0 53143.00000000001,77495.5 53060.0,77495.5 53060.0,77500.0 53206.00000000001,77500.0"/>
<polygon class="l43d0" points="53474.0,77500.0 53474.0,77470.0 53396.0,77470.0 53396.0,77500.0 53474.0,77500.0"/>
<polygon class="l43d0" points="53668.00000000001,77500.0 53668.00000000001,77470.0 53604.99999999999,77470.0 53604.99999999999,77495.5 53522.0,77495.5 53522.0,77500.0 53668.00000000001,77500.0"/>
<polygon class="l43d0" points="53936.0,77500.0 53936.0,77470.0 53858.00000000001,77470.0 53858.00000000001,77500.0 53936.0,77500.0"/>
<polygon class="l43d0" points="49300.0,77500.0 50164.0,77500.0 50164.0,77470.0 49839.50000000001,77470.0 49839.50000000001,77495.5 49784.5,77495.5 49784.5,77470.0 49437.0,77470.0 49437.0,77478.0 49300.0,77478.0 49300.0,77500.0"/>
<polygon class="l43d0" points="56632.00000000001,77500.0 56632.00000000001,77495.5 56531.00000000001,77495.5 56531.00000000001,77470.0 55568.00000000001,77470.0 55568.00000000001,77500.0 56632.00000000001,77500.0"/>
</g>
</svg>