<?xml version="1.0" encoding="UTF-8"?>
<svg xmlns="http://www.w3.org/2000/svg" xmlns:xlink="http://www.w3.org/1999/xlink"
     width="22518.1" height="2086.6" viewBox="48441.45 -78523.55 22518.1 2086.6">
<defs>
<style type="text/css">
.l50d0 {stroke: rgb(42, 255, 120); fill: rgb(42, 255, 120); fill-opacity: 0.5;}
</style>
</defs>
<rect x="48441.45" y="-78523.55" width="22518.1" height="2086.6" fill="#222" stroke="none"/>
<g id="(50, 0)" transform="scale(1 -1)">
<polygon class="l50d0" points="69936.0,77500.0 69936.0,77483.0 69914.0,77483.0 69914.0,77500.0 69936.0,77500.0"/>
<polygon class="l50d0" points="69386.0,77482.5 69386.0,77460.5 69364.0,77460.5 69364.0,77482.5 69386.0,77482.5"/>
<polygon class="l50d0" points="69433.0,77482.5 69433.0,77460.5 69411.0,77460.5 69411.0,77482.5 69433.0,77482.5"/>
<polygon class="l50d0" points="69480.0,77482.5 69480.0,77460.5 69458.0,77460.5 69458.0,77482.5 69480.0,77482.5"/>
<polygon class="l50d0" points="69527.0,77482.5 69527.0,77460.5 69505.0,77460.5 69505.0,77482.5 69527.0,77482.5"/>
<polygon class="l50d0" points="69574.0,77482.5 69574.0,77460.5 69552.0,77460.5 69552.0,77482.5 69574.0,77482.5"/>
<polygon class="l50d0" points="69621.0,77482.5 69621.0,77460.5 69599.0,77460.5 69599.0,77482.5 69621.0,77482.5"/>
<polygon class="l50d0" points="69668.0,77482.5 69668.0,77460.5 69646.0,77460.5 69646.0,77482.5 69668.0,77482.5"/>
<polygon class="l50d0" points="69715.0,77482.5 69715.0,77460.5 69693.0,77460.5 69693.0,77482.5 69715.0,77482.5"/>
<polygon class="l50d0" points="69762.0,77482.5 69762.0,77460.5 69740.0,77460.5 69740.0,77482.5 69762.0,77482.5"/>
<polygon class="l50d0" points="55130.00000000001,77482.5 55130.00000000001,77460.5 55108.00000000001,77460.5 55108.00000000001,77482.5 55130.00000000001,77482.5"/>
<polygon class="l50d0" points="55177.0,77482.5 55177.0,77460.5 55155.00000000001,77460.5 55155.00000000001,77482.5 55177.0,77482.5"/>
<polygon class="l50d0" points="55224.0,77482.5 55224.0,77460.5 55202.0,77460.5 55202.0,77482.5 55224.0,77482.5"/>
<polygon class="l50d0" points="55271.0,77482.5 55271.0,77460.5 55249.0,77460.5 55249.0,77482.5 55271.0,77482.5"/>
<polygon class="l50d0" points="55318.00000000001,77482.5 55318.00000000001,77460.5 55296.0,77460.5 55296.0,77482.5 55318.00000000001,77482.5"/>
<polygon class="l50d0" points="55365.0,77482.5 55365.0,77460.5 55343.00000000001,77460.5 55343.00000000001,77482.5 55365.0,77482.5"/>
<polygon class="l50d0" points="55412.0,77482.5 55412.0,77460.5 55390.0,77460.5 55390.0,77482.5 55412.0,77482.5"/>
<polygon class="l50d0" points="55459.0,77482.5 55459.0,77460.5 55437.0,77460.5 55437.0,77482.5 55459.0,77482.5"/>
<polygon class="l50d0" points="55506.00000000001,77482.5 55506.00000000001,77460.5 55484.0,77460.5 55484.0,77482.5 55506.00000000001,77482.5"/>
<polygon class="l50d0" points="65154.49999999999,77482.5 65154.49999999999,77460.5 65132.50000000001,77460.5 65132.50000000001,77482.5 65154.49999999999,77482.5"/>
<polygon class="l50d0" points="65201.5,77482.5 65201.5,77460.5 65179.49999999999,77460.5 65179.49999999999,77482.5 65201.5,77482.5"/>
<polygon class="l50d0" points="65248.5,77482.5 65248.5,77460.5 65226.5,77460.5 65226.5,77482.5 65248.5,77482.5"/>
<polygon class="l50d0" points="65295.50000000001,77482.5 65295.50000000001,77460.5 65273.5,77460.5 65273.5,77482.5 65295.50000000001,77482.5"/>
<polygon class="l50d0" points="65342.50000000001,77482.5 65342.50000000001,77460.5 65320.50000000001,77460.5 65320.50000000001,77482.5 65342.50000000001,77482.5"/>
<polygon class="l50d0" points="65389.5,77482.5 65389.5,77460.5 65367.50000000001,77460.5 65367.50000000001,77482.5 65389.5,77482.5"/>
<polygon class="l50d0" points="65436.5,77482.5 65436.5,77460.5 65414.5,77460.5 65414.5,77482.5 65436.5,77482.5"/>
<polygon class="l50d0" points="65483.5,77482.5 65483.5,77460.5 65461.5,77460.5 65461.5,77482.5 65483.5,77482.5"/>
<polygon class="l50d0" points="65530.50000000001,77482.5 65530.50000000001,77460.5 65508.5,77460.5 65508.5,77482.5 65530.50000000001,77482.5"/>
<polygon class="l50d0" points="65577.5,77482.5 65577.5,77460.5 65555.5,77460.5 65555.5,77482.5 65577.5,77482.5"/>
<polygon class="l50d0" points="65624.5,77482.5 65624.5,77460.5 65602.5,77460.5 65602.5,77482.5 65624.5,77482.5"/>
<polygon class="l50d0" points="65671.5,77482.5 65671.5,77460.5 65649.5,77460.5 65649.5,77482.5 65671.5,77482.5"/>
<polygon class="l50d0" points="65718.5,77482.5 65718.5,77460.5 65696.5,77460.5 65696.5,77482.5 65718.5,77482.5"/>
<polygon class="l50d0" points="65765.5,77482.5 65765.5,77460.5 65743.5,77460.5 65743.5,77482.5 65765.5,77482.5"/>
<polygon class="l50d0" points="65812.5,77482.5 65812.5,77460.5 65790.5,77460.5 65790.5,77482.5 65812.5,77482.5"/>
<polygon class="l50d0" points="65859.5,77482.5 65859.5,77460.5 65837.5,77460.5 65837.5,77482.5 65859.5,77482.5"/>
<polygon class="l50d0" points="65906.5,77482.5 65906.5,77460.5 65884.5,77460.5 65884.5,77482.5 65906.5,77482.5"/>
<polygon class="l50d0" points="65953.5,77482.5 65953.5,77460.5 65931.5,77460.5 65931.5,77482.5 65953.5,77482.5"/>
<polygon class="l50d0" points="66000.5,77482.5 66000.5,77460.5 65978.5,77460.5 65978.5,77482.5 66000.5,77482.5"/>
<polygon class="l50d0" points="66047.5,77482.5 66047.5,77460.5 66025.5,77460.5 66025.5,77482.5 66047.5,77482.5"/>
<polygon class="l50d0" points="66094.5,77482.5 66094.5,77460.5 66072.5,77460.5 66072.5,77482.5 66094.5,77482.5"/>
<polygon class="l50d0" points="66141.5,77482.5 66141.5,77460.5 66119.5,77460.5 66119.5,77482.5 66141.5,77482.5"/>
<polygon class="l50d0" points="66188.5,77482.5 66188.5,77460.5 66166.5,77460.5 66166.5,77482.5 66188.5,77482.5"/>
<polygon class="l50d0" points="66235.5,77482.5 66235.5,77460.5 66213.5,77460.5 66213.5,77482.5 66235.5,77482.5"/>
<polygon class="l50d0" points="66282.5,77482.5 66282.5,77460.5 66260.5,77460.5 66260.5,77482.5 66282.5,77482.5"/>
<polygon class="l50d0" points="66329.5,77482.5 66329.5,77460.5 66307.5,77460.5 66307.5,77482.5 66329.5,77482.5"/>
<polygon class="l50d0" points="66376.5,77482.5 66376.5,77460.5 66354.5,77460.5 66354.5,77482.5 66376.5,77482.5"/>
<polygon class="l50d0" points="66423.5,77482.5 66423.5,77460.5 66401.5,77460.5 66401.5,77482.5 66423.5,77482.5"/>
<polygon class="l50d0" points="66470.5,77482.5 66470.5,77460.5 66448.5,77460.5 66448.5,77482.5 66470.5,77482.5"/>
<polygon class="l50d0" points="66517.5,77482.5 66517.5,77460.5 66495.5,77460.5 66495.5,77482.5 66517.5,77482.5"/>
<polygon class="l50d0" points="66564.5,77482.5 66564.5,77460.5 66542.5,77460.5 66542.5,77482.5 66564.5,77482.5"/>
<polygon class="l50d0" points="66611.5,77482.5 66611.5,77460.5 66589.5,77460.5 66589.5,77482.5 66611.5,77482.5"/>
<polygon class="l50d0" points="66658.5,77482.5 66658.5,77460.5 66636.5,77460.5 66636.5,77482.5 66658.5,77482.5"/>
<polygon class="l50d0" points="66705.5,77482.5 66705.5,77460.5 66683.5,77460.5 66683.5,77482.5 66705.5,77482.5"/>
<polygon class="l50d0" points="66752.5,77482.5 66752.5,77460.5 66730.5,77460.5 66730.5,77482.5 66752.5,77482.5"/>
<polygon class="l50d0" points="66799.5,77482.5 66799.5,77460.5 66777.5,77460.5 66777.5,77482.5 66799.5,77482.5"/>
<polygon class="l50d0" points="66846.5,77482.5 66846.5,77460.5 66824.5,77460.5 66824.5,77482.5 66846.5,77482.5"/>
<polygon class="l50d0" points="66893.5,77482.5 66893.5,77460.5 66871.5,77460.5 66871.5,77482.5 66893.5,77482.5"/>
<polygon class="l50d0" points="66940.5,77482.5 66940.5,77460.5 66918.5,77460.5 66918.5,77482.5 66940.5,77482.5"/>
<polygon class="l50d0" points="66987.5,77482.5 66987.5,77460.5 66965.5,77460.5 66965.5,77482.5 66987.5,77482.5"/>
<polygon class="l50d0" points="67034.5,77482.5 67034.5,77460.5 67012.5,77460.5 67012.5,77482.5 67034.5,77482.5"/>
<polygon class="l50d0" points="67081.5,77482.5 67081.5,77460.5 67059.5,77460.5 67059.5,77482.5 67081.5,77482.5"/>
<polygon class="l50d0" points="67128.5,77482.5 67128.5,77460.5 67106.5,77460.5 67106.5,77482.5 67128.5,77482.5"/>
<polygon class="l50d0" points="67175.5,77482.5 67175.5,77460.5 67153.5,77460.5 67153.5,77482.5 67175.5,77482.5"/>
<polygon class="l50d0" points="67222.5,77482.5 67222.5,77460.5 67200.5,77460.5 67200.5,77482.5 67222.5,77482.5"/>
<polygon class="l50d0" points="67269.5,77482.5 67269.5,77460.5 67247.5,77460.5 67247.5,77482.5 67269.5,77482.5"/>
<polygon class="l50d0" points="67316.5,77482.5 67316.5,77460.5 67294.5,77460.5 67294.5,77482.5 67316.5,77482.5"/>
<polygon class="l50d0" points="67363.5,77482.5 67363.5,77460.5 67341.5,77460.5 67341.5,77482.5 67363.5,77482.5"/>
<polygon class="l50d0" points="67410.5,77482.5 67410.5,77460.5 67388.5,77460.5 67388.5,77482.5 67410.5,77482.5"/>
<polygon class="l50d0" points="67457.5,77482.5 67457.5,77460.5 67435.5,77460.5 67435.5,77482.5 67457.5,77482.5"/>
<polygon class="l50d0" points="67504.5,77482.5 67504.5,77460.5 67482.5,77460.5 67482.5,77482.5 67504.5,77482.5"/>
<polygon class="l50d0" points="67551.5,77482.5 67551.5,77460.5 67529.5,77460.5 67529.5,77482.5 67551.5,77482.5"/>
<polygon class="l50d0" points="67598.5,77482.5 67598.5,77460.5 67576.5,77460.5 67576.5,77482.5 67598.5,77482.5"/>
<polygon class="l50d0" points="67645.5,77482.5 67645.5,77460.5 67623.5,77460.5 67623.5,77482.5 67645.5,77482.5"/>
<polygon class="l50d0" points="67692.5,77482.5 67692.5,77460.5 67670.5,77460.5 67670.5,77482.5 67692.5,77482.5"/>
<polygon class="l50d0" points="67739.5,77482.5 67739.5,77460.5 67717.5,77460.5 67717.5,77482.5 67739.5,77482.5"/>
<polygon class="l50d0" points="67786.5,77482.5 67786.5,77460.5 67764.5,77460.5 67764.5,77482.5 67786.5,77482.5"/>
<polygon class="l50d0" points="67833.5,77482.5 67833.5,77460.5 67811.5,77460.5 67811.5,77482.5 67833.5,77482.5"/>
<polygon class="l50d0" points="67880.5,77482.5 67880.5,77460.5 67858.5,77460.5 67858.5,77482.5 67880.5,77482.5"/>
<polygon class="l50d0" points="67927.5,77482.5 67927.5,77460.5 67905.5,77460.5 67905.5,77482.5 67927.5,77482.5"/>
<polygon class="l50d0" points="67974.5,77482.5 67974.5,77460.5 67952.5,77460.5 67952.5,77482.5 67974.5,77482.5"/>
<polygon class="l50d0" points="68021.5,77482.5 68021.5,77460.5 67999.5,77460.5 67999.5,77482.5 68021.5,77482.5"/>
<polygon class="l50d0" points="68068.5,77482.5 68068.5,77460.5 68046.5,77460.5 68046.5,77482.5 68068.5,77482.5"/>
<polygon class="l50d0" points="68115.5,77482.5 68115.5,77460.5 68093.5,77460.5 68093.5,77482.5 68115.5,77482.5"/>
<polygon class="l50d0" points="68162.5,77482.5 68162.5,77460.5 68140.5,77460.5 68140.5,77482.5 68162.5,77482.5"/>
<polygon class="l50d0" points="68209.5,77482.5 68209.5,77460.5 68187.5,77460.5 68187.5,77482.5 68209.5,77482.5"/>
<polygon class="l50d0" points="68256.5,77482.5 68256.5,77460.5 68234.5,77460.5 68234.5,77482.5 68256.5,77482.5"/>
<polygon class="l50d0" points="68303.5,77482.5 68303.5,77460.5 68281.5,77460.5 68281.5,77482.5 68303.5,77482.5"/>
<polygon class="l50d0" points="68350.5,77482.5 68350.5,77460.5 68328.5,77460.5 68328.5,77482.5 68350.5,77482.5"/>
<polygon class="l50d0" points="68397.5,77482.5 68397.5,77460.5 68375.5,77460.5 68375.5,77482.5 68397.5,77482.5"/>
<polygon class="l50d0" points="68444.5,77482.5 68444.5,77460.5 68422.5,77460.5 68422.5,77482.5 68444.5,77482.5"/>
<polygon class="l50d0" points="68491.5,77482.5 68491.5,77460.5 68469.5,77460.5 68469.5,77482.5 68491.5,77482.5"/>
<polygon class="l50d0" points="68538.5,77482.5 68538.5,77460.5 68516.5,77460.5 68516.5,77482.5 68538.5,77482.5"/>
<polygon class="l50d0" points="68585.5,77482.5 68585.5,77460.5 68563.5,77460.5 68563.5,77482.5 68585.5,77482.5"/>
<polygon class="l50d0" points="68632.5,77482.5 68632.5,77460.5 68610.5,77460.5 68610.5,77482.5 68632.5,77482.5"/>
<polygon class="l50d0" points="68679.5,77482.5 68679.5,77460.5 68657.5,77460.5 68657.5,77482.5 68679.5,77482.5"/>
<polygon class="l50d0" points="68726.5,77482.5 68726.5,77460.5 68704.5,77460.5 68704.5,77482.5 68726.5,77482.5"/>
<polygon class="l50d0" points="68773.5,77482.5 68773.5,77460.5 68751.5,77460.5 68751.5,77482.5 68773.5,77482.5"/>
<polygon class="l50d0" points="68820.5,77482.5 68820.5,77460.5 68798.5,77460.5 68798.5,77482.5 68820.5,77482.5"/>
<polygon class="l50d0" points="68867.5,77482.5 68867.5,77460.5 68845.5,77460.5 68845.5,77482.5 68867.5,77482.5"/>
<polygon class="l50d0" points="68914.5,77482.5 68914.5,77460.5 68892.5,77460.5 68892.5,77482.5 68914.5,77482.5"/>
<polygon class="l50d0" points="68961.5,77482.5 68961.5,77460.5 68939.5,77460.5 68939.5,77482.5 68961.5,77482.5"/>
<polygon class="l50d0" points="69008.5,77482.5 69008.5,77460.5 68986.5,77460.5 68986.5,77482.5 69008.5,77482.5"/>
<polygon class="l50d0" points="69055.5,77482.5 69055.5,77460.5 69033.5,77460.5 69033.5,77482.5 69055.5,77482.5"/>
<polygon class="l50d0" points="69102.5,77482.5 69102.5,77460.5 69080.5,77460.5 69080.5,77482.5 69102.5,77482.5"/>
<polygon class="l50d0" points="69149.5,77482.5 69149.5,77460.5 69127.5,77460.5 69127.5,77482.5 69149.5,77482.5"/>
<polygon class="l50d0" points="69196.5,77482.5 69196.5,77460.5 69174.5,77460.5 69174.5,77482.5 69196.5,77482.5"/>
<polygon class="l50d0" points="69243.5,77482.5 69243.5,77460.5 69221.5,77460.5 69221.5,77482.5 69243.5,77482.5"/>
<polygon class="l50d0" points="60930.50000000001,77482.5 60930.50000000001,77460.5 60908.5,77460.5 60908.5,77482.5 60930.50000000001,77482.5"/>
<polygon class="l50d0" points="60977.5,77482.5 60977.5,77460.5 60955.50000000001,77460.5 60955.50000000001,77482.5 60977.5,77482.5"/>
<polygon class="l50d0" points="61024.5,77482.5 61024.5,77460.5 61002.5,77460.5 61002.5,77482.5 61024.5,77482.5"/>
<polygon class="l50d0" points="61071.5,77482.5 61071.5,77460.5 61049.5,77460.5 61049.5,77482.5 61071.5,77482.5"/>
<polygon class="l50d0" points="61118.50000000001,77482.5 61118.50000000001,77460.5 61096.5,77460.5 61096.5,77482.5 61118.50000000001,77482.5"/>
<polygon class="l50d0" points="61165.5,77482.5 61165.5,77460.5 61143.50000000001,77460.5 61143.50000000001,77482.5 61165.5,77482.5"/>
<polygon class="l50d0" points="61212.5,77482.5 61212.5,77460.5 61190.5,77460.5 61190.5,77482.5 61212.5,77482.5"/>
<polygon class="l50d0" points="61259.5,77482.5 61259.5,77460.5 61237.5,77460.5 61237.5,77482.5 61259.5,77482.5"/>
<polygon class="l50d0" points="61306.50000000001,77482.5 61306.50000000001,77460.5 61284.5,77460.5 61284.5,77482.5 61306.50000000001,77482.5"/>
<polygon class="l50d0" points="61353.5,77482.5 61353.5,77460.5 61331.50000000001,77460.5 61331.50000000001,77482.5 61353.5,77482.5"/>
<polygon class="l50d0" points="61400.5,77482.5 61400.5,77460.5 61378.5,77460.5 61378.5,77482.5 61400.5,77482.5"/>
<polygon class="l50d0" points="61447.5,77482.5 61447.5,77460.5 61425.5,77460.5 61425.5,77482.5 61447.5,77482.5"/>
<polygon class="l50d0" points="61494.50000000001,77482.5 61494.50000000001,77460.5 61472.5,77460.5 61472.5,77482.5 61494.50000000001,77482.5"/>
<polygon class="l50d0" points="61541.5,77482.5 61541.5,77460.5 61519.50000000001,77460.5 61519.50000000001,77482.5 61541.5,77482.5"/>
<polygon class="l50d0" points="61588.5,77482.5 61588.5,77460.5 61566.5,77460.5 61566.5,77482.5 61588.5,77482.5"/>
<polygon class="l50d0" points="61635.5,77482.5 61635.5,77460.5 61613.5,77460.5 61613.5,77482.5 61635.5,77482.5"/>
<polygon class="l50d0" points="61682.50000000001,77482.5 61682.50000000001,77460.5 61660.5,77460.5 61660.5,77482.5 61682.50000000001,77482.5"/>
<polygon class="l50d0" points="61729.49999999999,77482.5 61729.49999999999,77460.5 61707.50000000001,77460.5 61707.50000000001,77482.5 61729.49999999999,77482.5"/>
<polygon class="l50d0" points="61776.5,77482.5 61776.5,77460.5 61754.49999999999,77460.5 61754.49999999999,77482.5 61776.5,77482.5"/>
<polygon class="l50d0" points="61823.5,77482.5 61823.5,77460.5 61801.5,77460.5 61801.5,77482.5 61823.5,77482.5"/>
<polygon class="l50d0" points="61870.50000000001,77482.5 61870.50000000001,77460.5 61848.5,77460.5 61848.5,77482.5 61870.50000000001,77482.5"/>
<polygon class="l50d0" points="61917.50000000001,77482.5 61917.50000000001,77460.5 61895.50000000001,77460.5 61895.50000000001,77482.5 61917.50000000001,77482.5"/>
<polygon class="l50d0" points="61964.5,77482.5 61964.5,77460.5 61942.50000000001,77460.5 61942.50000000001,77482.5 61964.5,77482.5"/>
<polygon class="l50d0" points="62011.5,77482.5 62011.5,77460.5 61989.5,77460.5 61989.5,77482.5 62011.5,77482.5"/>
<polygon class="l50d0" points="62058.5,77482.5 62058.5,77460.5 62036.5,77460.5 62036.5,77482.5 62058.5,77482.5"/>
<polygon class="l50d0" points="62105.50000000001,77482.5 62105.50000000001,77460.5 62083.5,77460.5 62083.5,77482.5 62105.50000000001,77482.5"/>
<polygon class="l50d0" points="62152.5,77482.5 62152.5,77460.5 62130.50000000001,77460.5 62130.50000000001,77482.5 62152.5,77482.5"/>
<polygon class="l50d0" points="62199.5,77482.5 62199.5,77460.5 62177.5,77460.5 62177.5,77482.5 62199.5,77482.5"/>
<polygon class="l50d0" points="62246.5,77482.5 62246.5,77460.5 62224.5,77460.5 62224.5,77482.5 62246.5,77482.5"/>
<polygon class="l50d0" points="62293.50000000001,77482.5 62293.50000000001,77460.5 62271.5,77460.5 62271.5,77482.5 62293.50000000001,77482.5"/>
<polygon class="l50d0" points="62340.5,77482.5 62340.5,77460.5 62318.50000000001,77460.5 62318.50000000001,77482.5 62340.5,77482.5"/>
<polygon class="l50d0" points="62387.5,77482.5 62387.5,77460.5 62365.5,77460.5 62365.5,77482.5 62387.5,77482.5"/>
<polygon class="l50d0" points="62434.5,77482.5 62434.5,77460.5 62412.5,77460.5 62412.5,77482.5 62434.5,77482.5"/>
<polygon class="l50d0" points="62481.50000000001,77482.5 62481.50000000001,77460.5 62459.5,77460.5 62459.5,77482.5 62481.50000000001,77482.5"/>
<polygon class="l50d0" points="62528.5,77482.5 62528.5,77460.5 62506.50000000001,77460.5 62506.50000000001,77482.5 62528.5,77482.5"/>
<polygon class="l50d0" points="62575.5,77482.5 62575.5,77460.5 62553.5,77460.5 62553.5,77482.5 62575.5,77482.5"/>
<polygon class="l50d0" points="62622.5,77482.5 62622.5,77460.5 62600.5,77460.5 62600.5,77482.5 62622.5,77482.5"/>
<polygon class="l50d0" points="62669.50000000001,77482.5 62669.50000000001,77460.5 62647.5,77460.5 62647.5,77482.5 62669.50000000001,77482.5"/>
<polygon class="l50d0" points="62716.5,77482.5 62716.5,77460.5 62694.50000000001,77460.5 62694.50000000001,77482.5 62716.5,77482.5"/>
<polygon class="l50d0" points="62763.5,77482.5 62763.5,77460.5 62741.5,77460.5 62741.5,77482.5 62763.5,77482.5"/>
<polygon class="l50d0" points="62810.5,77482.5 62810.5,77460.5 62788.5,77460.5 62788.5,77482.5 62810.5,77482.5"/>
<polygon class="l50d0" points="62857.50000000001,77482.5 62857.50000000001,77460.5 62835.5,77460.5 62835.5,77482.5 62857.50000000001,77482.5"/>
<polygon class="l50d0" points="62904.49999999999,77482.5 62904.49999999999,77460.5 62882.50000000001,77460.5 62882.50000000001,77482.5 62904.49999999999,77482.5"/>
<polygon class="l50d0" points="62951.5,77482.5 62951.5,77460.5 62929.49999999999,77460.5 62929.49999999999,77482.5 62951.5,77482.5"/>
<polygon class="l50d0" points="62998.5,77482.5 62998.5,77460.5 62976.5,77460.5 62976.5,77482.5 62998.5,77482.5"/>
<polygon class="l50d0" points="63045.50000000001,77482.5 63045.50000000001,77460.5 63023.5,77460.5 63023.5,77482.5 63045.50000000001,77482.5"/>
<polygon class="l50d0" points="63092.50000000001,77482.5 63092.50000000001,77460.5 63070.50000000001,77460.5 63070.50000000001,77482.5 63092.50000000001,77482.5"/>
<polygon class="l50d0" points="63139.5,77482.5 63139.5,77460.5 63117.50000000001,77460.5 63117.50000000001,77482.5 63139.5,77482.5"/>
<polygon class="l50d0" points="63186.5,77482.5 63186.5,77460.5 63164.5,77460.5 63164.5,77482.5 63186.5,77482.5"/>
<polygon class="l50d0" points="63233.5,77482.5 63233.5,77460.5 63211.5,77460.5 63211.5,77482.5 63233.5,77482.5"/>
<polygon class="l50d0" points="63280.50000000001,77482.5 63280.50000000001,77460.5 63258.5,77460.5 63258.5,77482.5 63280.50000000001,77482.5"/>
<polygon class="l50d0" points="63327.5,77482.5 63327.5,77460.5 63305.50000000001,77460.5 63305.50000000001,77482.5 63327.5,77482.5"/>
<polygon class="l50d0" points="63374.5,77482.5 63374.5,77460.5 63352.5,77460.5 63352.5,77482.5 63374.5,77482.5"/>
<polygon class="l50d0" points="63421.5,77482.5 63421.5,77460.5 63399.5,77460.5 63399.5,77482.5 63421.5,77482.5"/>
<polygon class="l50d0" points="63468.50000000001,77482.5 63468.50000000001,77460.5 63446.5,77460.5 63446.5,77482.5 63468.50000000001,77482.5"/>
<polygon class="l50d0" points="63515.5,77482.5 63515.5,77460.5 63493.50000000001,77460.5 63493.50000000001,77482.5 63515.5,77482.5"/>
<polygon class="l50d0" points="63562.5,77482.5 63562.5,77460.5 63540.5,77460.5 63540.5,77482.5 63562.5,77482.5"/>
<polygon class="l50d0" points="63609.5,77482.5 63609.5,77460.5 63587.5,77460.5 63587.5,77482.5 63609.5,77482.5"/>
<polygon class="l50d0" points="63656.50000000001,77482.5 63656.50000000001,77460.5 63634.5,77460.5 63634.5,77482.5 63656.50000000001,77482.5"/>
<polygon class="l50d0" points="63703.5,77482.5 63703.5,77460.5 63681.50000000001,77460.5 63681.50000000001,77482.5 63703.5,77482.5"/>
<polygon class="l50d0" points="63750.5,77482.5 63750.5,77460.5 63728.5,77460.5 63728.5,77482.5 63750.5,77482.5"/>
<polygon class="l50d0" points="63797.5,77482.5 63797.5,77460.5 63775.5,77460.5 63775.5,77482.5 63797.5,77482.5"/>
<polygon class="l50d0" points="63844.50000000001,77482.5 63844.50000000001,77460.5 63822.5,77460.5 63822.5,77482.5 63844.50000000001,77482.5"/>
<polygon class="l50d0" points="63891.5,77482.5 63891.5,77460.5 63869.50000000001,77460.5 63869.50000000001,77482.5 63891.5,77482.5"/>
<polygon class="l50d0" points="63938.5,77482.5 63938.5,77460.5 63916.5,77460.5 63916.5,77482.5 63938.5,77482.5"/>
<polygon class="l50d0" points="63985.5,77482.5 63985.5,77460.5 63963.5,77460.5 63963.5,77482.5 63985.5,77482.5"/>
<polygon class="l50d0" points="64032.50000000001,77482.5 64032.50000000001,77460.5 64010.5,77460.5 64010.5,77482.5 64032.50000000001,77482.5"/>
<polygon class="l50d0" points="64079.49999999999,77482.5 64079.49999999999,77460.5 64057.50000000001,77460.5 64057.50000000001,77482.5 64079.49999999999,77482.5"/>
<polygon class="l50d0" points="64126.5,77482.5 64126.5,77460.5 64104.49999999999,77460.5 64104.49999999999,77482.5 64126.5,77482.5"/>
<polygon class="l50d0" points="64173.5,77482.5 64173.5,77460.5 64151.5,77460.5 64151.5,77482.5 64173.5,77482.5"/>
<polygon class="l50d0" points="64220.50000000001,77482.5 64220.50000000001,77460.5 64198.5,77460.5 64198.5,77482.5 64220.50000000001,77482.5"/>
<polygon class="l50d0" points="64267.50000000001,77482.5 64267.50000000001,77460.5 64245.50000000001,77460.5 64245.50000000001,77482.5 64267.50000000001,77482.5"/>
<polygon class="l50d0" points="64314.5,77482.5 64314.5,77460.5 64292.50000000001,77460.5 64292.50000000001,77482.5 64314.5,77482.5"/>
<polygon class="l50d0" points="64361.5,77482.5 64361.5,77460.5 64339.5,77460.5 64339.5,77482.5 64361.5,77482.5"/>
<polygon class="l50d0" points="64408.5,77482.5 64408.5,77460.5 64386.5,77460.5 64386.5,77482.5 64408.5,77482.5"/>
<polygon class="l50d0" points="64455.50000000001,77482.5 64455.50000000001,77460.5 64433.5,77460.5 64433.5,77482.5 64455.50000000001,77482.5"/>
<polygon class="l50d0" points="64502.5,77482.5 64502.5,77460.5 64480.50000000001,77460.5 64480.50000000001,77482.5 64502.5,77482.5"/>
<polygon class="l50d0" points="64549.5,77482.5 64549.5,77460.5 64527.5,77460.5 64527.5,77482.5 64549.5,77482.5"/>
<polygon class="l50d0" points="64596.5,77482.5 64596.5,77460.5 64574.5,77460.5 64574.5,77482.5 64596.5,77482.5"/>
<polygon class="l50d0" points="64643.50000000001,77482.5 64643.50000000001,77460.5 64621.5,77460.5 64621.5,77482.5 64643.50000000001,77482.5"/>
<polygon class="l50d0" points="64690.5,77482.5 64690.5,77460.5 64668.50000000001,77460.5 64668.50000000001,77482.5 64690.5,77482.5"/>
<polygon class="l50d0" points="64737.5,77482.5 64737.5,77460.5 64715.5,77460.5 64715.5,77482.5 64737.5,77482.5"/>
<polygon class="l50d0" points="64784.5,77482.5 64784.5,77460.5 64762.5,77460.5 64762.5,77482.5 64784.5,77482.5"/>
<polygon class="l50d0" points="64831.50000000001,77482.5 64831.50000000001,77460.5 64809.5,77460.5 64809.5,77482.5 64831.50000000001,77482.5"/>
<polygon class="l50d0" points="64878.5,77482.5 64878.5,77460.5 64856.50000000001,77460.5 64856.50000000001,77482.5 64878.5,77482.5"/>
<polygon class="l50d0" points="64925.5,77482.5 64925.5,77460.5 64903.5,77460.5 64903.5,77482.5 64925.5,77482.5"/>
<polygon class="l50d0" points="64972.5,77482.5 64972.5,77460.5 64950.5,77460.5 64950.5,77482.5 64972.5,77482.5"/>
<polygon class="l50d0" points="65019.50000000001,77482.5 65019.50000000001,77460.5 64997.5,77460.5 64997.5,77482.5 65019.50000000001,77482.5"/>
<polygon class="l50d0" points="56706.50000000001,77482.5 56706.50000000001,77460.5 56684.5,77460.5 56684.5,77482.5 56706.50000000001,77482.5"/>
<polygon class="l50d0" points="56753.5,77482.5 56753.5,77460.5 56731.50000000001,77460.5 56731.50000000001,77482.5 56753.5,77482.5"/>
<polygon class="l50d0" points="56800.5,77482.5 56800.5,77460.5 56778.5,77460.5 56778.5,77482.5 56800.5,77482.5"/>
<polygon class="l50d0" points="56847.5,77482.5 56847.5,77460.5 56825.5,77460.5 56825.5,77482.5 56847.5,77482.5"/>
<polygon class="l50d0" points="56894.50000000001,77482.5 56894.50000000001,77460.5 56872.5,77460.5 56872.5,77482.5 56894.50000000001,77482.5"/>
<polygon class="l50d0" points="56941.5,77482.5 56941.5,77460.5 56919.50000000001,77460.5 56919.50000000001,77482.5 56941.5,77482.5"/>
<polygon class="l50d0" points="56988.5,77482.5 56988.5,77460.5 56966.5,77460.5 56966.5,77482.5 56988.5,77482.5"/>
<polygon class="l50d0" points="57035.5,77482.5 57035.5,77460.5 57013.5,77460.5 57013.5,77482.5 57035.5,77482.5"/>
<polygon class="l50d0" points="57082.50000000001,77482.5 57082.50000000001,77460.5 57060.5,77460.5 57060.5,77482.5 57082.50000000001,77482.5"/>
<polygon class="l50d0" points="57129.49999999999,77482.5 57129.49999999999,77460.5 57107.50000000001,77460.5 57107.50000000001,77482.5 57129.49999999999,77482.5"/>
<polygon class="l50d0" points="57176.5,77482.5 57176.5,77460.5 57154.49999999999,77460.5 57154.49999999999,77482.5 57176.5,77482.5"/>
<polygon class="l50d0" points="57223.5,77482.5 57223.5,77460.5 57201.5,77460.5 57201.5,77482.5 57223.5,77482.5"/>
<polygon class="l50d0" points="57270.50000000001,77482.5 57270.50000000001,77460.5 57248.5,77460.5 57248.5,77482.5 57270.50000000001,77482.5"/>
<polygon class="l50d0" points="57317.50000000001,77482.5 57317.50000000001,77460.5 57295.50000000001,77460.5 57295.50000000001,77482.5 57317.50000000001,77482.5"/>
<polygon class="l50d0" points="57364.5,77482.5 57364.5,77460.5 57342.50000000001,77460.5 57342.50000000001,77482.5 57364.5,77482.5"/>
<polygon class="l50d0" points="57411.5,77482.5 57411.5,77460.5 57389.5,77460.5 57389.5,77482.5 57411.5,77482.5"/>
<polygon class="l50d0" points="57458.5,77482.5 57458.5,77460.5 57436.5,77460.5 57436.5,77482.5 57458.5,77482.5"/>
<polygon class="l50d0" points="57505.50000000001,77482.5 57505.50000000001,77460.5 57483.5,77460.5 57483.5,77482.5 57505.50000000001,77482.5"/>
<polygon class="l50d0" points="57552.5,77482.5 57552.5,77460.5 57530.50000000001,77460.5 57530.50000000001,77482.5 57552.5,77482.5"/>
<polygon class="l50d0" points="57599.5,77482.5 57599.5,77460.5 57577.5,77460.5 57577.5,77482.5 57599.5,77482.5"/>
<polygon class="l50d0" points="57646.5,77482.5 57646.5,77460.5 57624.5,77460.5 57624.5,77482.5 57646.5,77482.5"/>
<polygon class="l50d0" points="57693.50000000001,77482.5 57693.50000000001,77460.5 57671.5,77460.5 57671.5,77482.5 57693.50000000001,77482.5"/>
<polygon class="l50d0" points="57740.5,77482.5 57740.5,77460.5 57718.50000000001,77460.5 57718.50000000001,77482.5 57740.5,77482.5"/>
<polygon class="l50d0" points="57787.5,77482.5 57787.5,77460.5 57765.5,77460.5 57765.5,77482.5 57787.5,77482.5"/>
<polygon class="l50d0" points="57834.5,77482.5 57834.5,77460.5 57812.5,77460.5 57812.5,77482.5 57834.5,77482.5"/>
<polygon class="l50d0" points="57881.50000000001,77482.5 57881.50000000001,77460.5 57859.5,77460.5 57859.5,77482.5 57881.50000000001,77482.5"/>
<polygon class="l50d0" points="57928.5,77482.5 57928.5,77460.5 57906.50000000001,77460.5 57906.50000000001,77482.5 57928.5,77482.5"/>
<polygon class="l50d0" points="57975.5,77482.5 57975.5,77460.5 57953.5,77460.5 57953.5,77482.5 57975.5,77482.5"/>
<polygon class="l50d0" points="58022.5,77482.5 58022.5,77460.5 58000.5,77460.5 58000.5,77482.5 58022.5,77482.5"/>
<polygon class="l50d0" points="58069.50000000001,77482.5 58069.50000000001,77460.5 58047.5,77460.5 58047.5,77482.5 58069.50000000001,77482.5"/>
<polygon class="l50d0" points="58116.5,77482.5 58116.5,77460.5 58094.50000000001,77460.5 58094.50000000001,77482.5 58116.5,77482.5"/>
<polygon class="l50d0" points="58163.5,77482.5 58163.5,77460.5 58141.5,77460.5 58141.5,77482.5 58163.5,77482.5"/>
<polygon class="l50d0" points="58210.5,77482.5 58210.5,77460.5 58188.5,77460.5 58188.5,77482.5 58210.5,77482.5"/>
<polygon class="l50d0" points="58257.50000000001,77482.5 58257.50000000001,77460.5 58235.5,77460.5 58235.5,77482.5 58257.50000000001,77482.5"/>
<polygon class="l50d0" points="58304.49999999999,77482.5 58304.49999999999,77460.5 58282.50000000001,77460.5 58282.50000000001,77482.5 58304.49999999999,77482.5"/>
<polygon class="l50d0" points="58351.5,77482.5 58351.5,77460.5 58329.49999999999,77460.5 58329.49999999999,77482.5 58351.5,77482.5"/>
<polygon class="l50d0" points="58398.5,77482.5 58398.5,77460.5 58376.5,77460.5 58376.5,77482.5 58398.5,77482.5"/>
<polygon class="l50d0" points="58445.50000000001,77482.5 58445.50000000001,77460.5 58423.5,77460.5 58423.5,77482.5 58445.50000000001,77482.5"/>
<polygon class="l50d0" points="58492.50000000001,77482.5 58492.50000000001,77460.5 58470.50000000001,77460.5 58470.50000000001,77482.5 58492.50000000001,77482.5"/>
<polygon class="l50d0" points="58539.5,77482.5 58539.5,77460.5 58517.50000000001,77460.5 58517.50000000001,77482.5 58539.5,77482.5"/>
<polygon class="l50d0" points="58586.5,77482.5 58586.5,77460.5 58564.5,77460.5 58564.5,77482.5 58586.5,77482.5"/>
<polygon class="l50d0" points="58633.5,77482.5 58633.5,77460.5 58611.5,77460.5 58611.5,77482.5 58633.5,77482.5"/>
<polygon class="l50d0" points="58680.50000000001,77482.5 58680.50000000001,77460.5 58658.5,77460.5 58658.5,77482.5 58680.50000000001,77482.5"/>
<polygon class="l50d0" points="58727.5,77482.5 58727.5,77460.5 58705.50000000001,77460.5 58705.50000000001,77482.5 58727.5,77482.5"/>
<polygon class="l50d0" points="58774.5,77482.5 58774.5,77460.5 58752.5,77460.5 58752.5,77482.5 58774.5,77482.5"/>
<polygon class="l50d0" points="58821.5,77482.5 58821.5,77460.5 58799.5,77460.5 58799.5,77482.5 58821.5,77482.5"/>
<polygon class="l50d0" points="58868.50000000001,77482.5 58868.50000000001,77460.5 58846.5,77460.5 58846.5,77482.5 58868.50000000001,77482.5"/>
<polygon class="l50d0" points="58915.5,77482.5 58915.5,77460.5 58893.50000000001,77460.5 58893.50000000001,77482.5 58915.5,77482.5"/>
<polygon class="l50d0" points="58962.5,77482.5 58962.5,77460.5 58940.5,77460.5 58940.5,77482.5 58962.5,77482.5"/>
<polygon class="l50d0" points="59009.5,77482.5 59009.5,77460.5 58987.5,77460.5 58987.5,77482.5 59009.5,77482.5"/>
<polygon class="l50d0" points="59056.50000000001,77482.5 59056.50000000001,77460.5 59034.5,77460.5 59034.5,77482.5 59056.50000000001,77482.5"/>
<polygon class="l50d0" points="59103.5,77482.5 59103.5,77460.5 59081.50000000001,77460.5 59081.50000000001,77482.5 59103.5,77482.5"/>
<polygon class="l50d0" points="59150.5,77482.5 59150.5,77460.5 59128.5,77460.5 59128.5,77482.5 59150.5,77482.5"/>
<polygon class="l50d0" points="59197.5,77482.5 59197.5,77460.5 59175.5,77460.5 59175.5,77482.5 59197.5,77482.5"/>
<polygon class="l50d0" points="59244.50000000001,77482.5 59244.50000000001,77460.5 59222.5,77460.5 59222.5,77482.5 59244.50000000001,77482.5"/>
<polygon class="l50d0" points="59291.5,77482.5 59291.5,77460.5 59269.50000000001,77460.5 59269.50000000001,77482.5 59291.5,77482.5"/>
<polygon class="l50d0" points="59338.5,77482.5 59338.5,77460.5 59316.5,77460.5 59316.5,77482.5 59338.5,77482.5"/>
<polygon class="l50d0" points="59385.5,77482.5 59385.5,77460.5 59363.5,77460.5 59363.5,77482.5 59385.5,77482.5"/>
<polygon class="l50d0" points="59432.50000000001,77482.5 59432.50000000001,77460.5 59410.5,77460.5 59410.5,77482.5 59432.50000000001,77482.5"/>
<polygon class="l50d0" points="59479.49999999999,77482.5 59479.49999999999,77460.5 59457.50000000001,77460.5 59457.50000000001,77482.5 59479.49999999999,77482.5"/>
<polygon class="l50d0" points="59526.5,77482.5 59526.5,77460.5 59504.49999999999,77460.5 59504.49999999999,77482.5 59526.5,77482.5"/>
<polygon class="l50d0" points="59573.5,77482.5 59573.5,77460.5 59551.5,77460.5 59551.5,77482.5 59573.5,77482.5"/>
<polygon class="l50d0" points="59620.50000000001,77482.5 59620.50000000001,77460.5 59598.5,77460.5 59598.5,77482.5 59620.50000000001,77482.5"/>
<polygon class="l50d0" points="59667.50000000001,77482.5 59667.50000000001,77460.5 59645.50000000001,77460.5 59645.50000000001,77482.5 59667.50000000001,77482.5"/>
<polygon class="l50d0" points="59714.5,77482.5 59714.5,77460.5 59692.50000000001,77460.5 59692.50000000001,77482.5 59714.5,77482.5"/>
<polygon class="l50d0" points="59761.5,77482.5 59761.5,77460.5 59739.5,77460.5 59739.5,77482.5 59761.5,77482.5"/>
<polygon class="l50d0" points="59808.5,77482.5 59808.5,77460.5 59786.5,77460.5 59786.5,77482.5 59808.5,77482.5"/>
<polygon class="l50d0" points="59855.50000000001,77482.5 59855.50000000001,77460.5 59833.5,77460.5 59833.5,77482.5 59855.50000000001,77482.5"/>
<polygon class="l50d0" points="59902.5,77482.5 59902.5,77460.5 59880.50000000001,77460.5 59880.50000000001,77482.5 59902.5,77482.5"/>
<polygon class="l50d0" points="59949.5,77482.5 59949.5,77460.5 59927.5,77460.5 59927.5,77482.5 59949.5,77482.5"/>
<polygon class="l50d0" points="59996.5,77482.5 59996.5,77460.5 59974.5,77460.5 59974.5,77482.5 59996.5,77482.5"/>
<polygon class="l50d0" points="60043.50000000001,77482.5 60043.50000000001,77460.5 60021.5,77460.5 60021.5,77482.5 60043.50000000001,77482.5"/>
<polygon class="l50d0" points="60090.5,77482.5 60090.5,77460.5 60068.50000000001,77460.5 60068.50000000001,77482.5 60090.5,77482.5"/>
<polygon class="l50d0" points="60137.5,77482.5 60137.5,77460.5 60115.5,77460.5 60115.5,77482.5 60137.5,77482.5"/>
<polygon class="l50d0" points="60184.5,77482.5 60184.5,77460.5 60162.5,77460.5 60162.5,77482.5 60184.5,77482.5"/>
<polygon class="l50d0" points="60231.50000000001,77482.5 60231.50000000001,77460.5 60209.5,77460.5 60209.5,77482.5 60231.50000000001,77482.5"/>
<polygon class="l50d0" points="60278.5,77482.5 60278.5,77460.5 60256.50000000001,77460.5 60256.50000000001,77482.5 60278.5,77482.5"/>
<polygon class="l50d0" points="60325.5,77482.5 60325.5,77460.5 60303.5,77460.5 60303.5,77482.5 60325.5,77482.5"/>
<polygon class="l50d0" points="60372.5,77482.5 60372.5,77460.5 60350.5,77460.5 60350.5,77482.5 60372.5,77482.5"/>
<polygon class="l50d0" points="60419.50000000001,77482.5 60419.50000000001,77460.5 60397.5,77460.5 60397.5,77482.5 60419.50000000001,77482.5"/>
<polygon class="l50d0" points="60466.5,77482.5 60466.5,77460.5 60444.50000000001,77460.5 60444.50000000001,77482.5 60466.5,77482.5"/>
<polygon class="l50d0" points="60513.5,77482.5 60513.5,77460.5 60491.5,77460.5 60491.5,77482.5 60513.5,77482.5"/>
<polygon class="l50d0" points="60560.5,77482.5 60560.5,77460.5 60538.5,77460.5 60538.5,77482.5 60560.5,77482.5"/>
<polygon class="l50d0" points="60607.50000000001,77482.5 60607.50000000001,77460.5 60585.5,77460.5 60585.5,77482.5 60607.50000000001,77482.5"/>
<polygon class="l50d0" points="60654.49999999999,77482.5 60654.49999999999,77460.5 60632.50000000001,77460.5 60632.50000000001,77482.5 60654.49999999999,77482.5"/>
<polygon class="l50d0" points="60701.5,77482.5 60701.5,77460.5 60679.49999999999,77460.5 60679.49999999999,77482.5 60701.5,77482.5"/>
<polygon class="l50d0" points="60748.5,77482.5 60748.5,77460.5 60726.5,77460.5 60726.5,77482.5 60748.5,77482.5"/>
<polygon class="l50d0" points="60795.50000000001,77482.5 60795.50000000001,77460.5 60773.5,77460.5 60773.5,77482.5 60795.50000000001,77482.5"/>
<polygon class="l50d0" points="51623.0,77482.5 51623.0,77460.5 51601.0,77460.5 51601.0,77482.5 51623.0,77482.5"/>
<polygon class="l50d0" points="54080.50000000001,77482.5 54080.50000000001,77460.5 54058.5,77460.5 54058.5,77482.5 54080.50000000001,77482.5"/>
<polygon class="l50d0" points="54127.5,77482.5 54127.5,77460.5 54105.50000000001,77460.5 54105.50000000001,77482.5 54127.5,77482.5"/>
<polygon class="l50d0" points="54174.5,77482.5 54174.5,77460.5 54152.5,77460.5 54152.5,77482.5 54174.5,77482.5"/>
<polygon class="l50d0" points="54221.5,77482.5 54221.5,77460.5 54199.5,77460.5 54199.5,77482.5 54221.5,77482.5"/>
<polygon class="l50d0" points="54268.50000000001,77482.5 54268.50000000001,77460.5 54246.5,77460.5 54246.5,77482.5 54268.50000000001,77482.5"/>
<polygon class="l50d0" points="54315.5,77482.5 54315.5,77460.5 54293.50000000001,77460.5 54293.50000000001,77482.5 54315.5,77482.5"/>
<polygon class="l50d0" points="54362.5,77482.5 54362.5,77460.5 54340.5,77460.5 54340.5,77482.5 54362.5,77482.5"/>
<polygon class="l50d0" points="54409.5,77482.5 54409.5,77460.5 54387.5,77460.5 54387.5,77482.5 54409.5,77482.5"/>
<polygon class="l50d0" points="54456.50000000001,77482.5 54456.50000000001,77460.5 54434.5,77460.5 54434.5,77482.5 54456.50000000001,77482.5"/>
<polygon class="l50d0" points="54503.5,77482.5 54503.5,77460.5 54481.50000000001,77460.5 54481.50000000001,77482.5 54503.5,77482.5"/>
<polygon class="l50d0" points="54550.5,77482.5 54550.5,77460.5 54528.5,77460.5 54528.5,77482.5 54550.5,77482.5"/>
<polygon class="l50d0" points="54597.5,77482.5 54597.5,77460.5 54575.5,77460.5 54575.5,77482.5 54597.5,77482.5"/>
<polygon class="l50d0" points="54644.50000000001,77482.5 54644.50000000001,77460.5 54622.5,77460.5 54622.5,77482.5 54644.50000000001,77482.5"/>
<polygon class="l50d0" points="54691.5,77482.5 54691.5,77460.5 54669.50000000001,77460.5 54669.50000000001,77482.5 54691.5,77482.5"/>
<polygon class="l50d0" points="54738.5,77482.5 54738.5,77460.5 54716.5,77460.5 54716.5,77482.5 54738.5,77482.5"/>
<polygon class="l50d0" points="54785.5,77482.5 54785.5,77460.5 54763.5,77460.5 54763.5,77482.5 54785.5,77482.5"/>
<polygon class="l50d0" points="54832.50000000001,77482.5 54832.50000000001,77460.5 54810.5,77460.5 54810.5,77482.5 54832.50000000001,77482.5"/>
<polygon class="l50d0" points="54879.49999999999,77482.5 54879.49999999999,77460.5 54857.50000000001,77460.5 54857.50000000001,77482.5 54879.49999999999,77482.5"/>
<polygon class="l50d0" points="54926.5,77482.5 54926.5,77460.5 54904.49999999999,77460.5 54904.49999999999,77482.5 54926.5,77482.5"/>
<polygon class="l50d0" points="54973.5,77482.5 54973.5,77460.5 54951.5,77460.5 54951.5,77482.5 54973.5,77482.5"/>
<polygon class="l50d0" points="50274.0,77500.0 50274.0,77483.0 50252.00000000001,77483.0 50252.00000000001,77500.0 50274.0,77500.0"/>
<polygon class="l50d0" points="50542.0,77500.0 50542.0,77483.0 50520.0,77483.0 50520.0,77500.0 50542.0,77500.0"/>
<polygon class="l50d0" points="50226.0,77482.5 50226.0,77460.5 50204.0,77460.5 50204.0,77482.5 50226.0,77482.5"/>
<polygon class="l50d0" points="50372.5,77482.5 50372.5,77460.5 50350.5,77460.5 50350.5,77482.5 50372.5,77482.5"/>
<polygon class="l50d0" points="50419.5,77482.5 50419.5,77460.5 50397.5,77460.5 50397.5,77482.5 50419.5,77482.5"/>
<polygon class="l50d0" points="50736.0,77500.0 50736.0,77483.0 50714.0,77483.0 50714.0,77500.0 50736.0,77500.0"/>
<polygon class="l50d0" points="51004.0,77500.0 51004.0,77483.0 50982.0,77483.0 50982.0,77500.0 51004.0,77500.0"/>
<polygon class="l50d0" points="50688.0,77482.5 50688.0,77460.5 50666.0,77460.5 50666.0,77482.5 50688.0,77482.5"/>
<polygon class="l50d0" points="50834.5,77482.5 50834.5,77460.5 50812.5,77460.5 50812.5,77482.5 50834.5,77482.5"/>
<polygon class="l50d0" points="50881.5,77482.5 50881.5,77460.5 50859.5,77460.5 50859.5,77482.5 50881.5,77482.5"/>
<polygon class="l50d0" points="51791.99999999999,77500.0 51791.99999999999,77483.0 51770.00000000001,77483.0 51770.00000000001,77500.0 51791.99999999999,77500.0"/>
<polygon class="l50d0" points="52060.0,77500.0 52060.0,77483.0 52038.0,77483.0 52038.0,77500.0 52060.0,77500.0"/>
<polygon class="l50d0" points="51744.00000000001,77482.5 51744.00000000001,77460.5 51722.0,77460.5 51722.0,77482.5 51744.00000000001,77482.5"/>
<polygon class="l50d0" points="51890.5,77482.5 51890.5,77460.5 51868.50000000001,77460.5 51868.50000000001,77482.5 51890.5,77482.5"/>
<polygon class="l50d0" points="51937.5,77482.5 51937.5,77460.5 51915.5,77460.5 51915.5,77482.5 51937.5,77482.5"/>
<polygon class="l50d0" points="51198.0,77500.0 51198.0,77483.0 51176.0,77483.0 51176.0,77500.0 51198.0,77500.0"/>
<polygon class="l50d0" points="51466.0,77500.0 51466.0,77483.0 51444.00000000001,77483.0 51444.00000000001,77500.0 51466.0,77500.0"/>
<polygon class="l50d0" points="51150.0,77482.5 51150.0,77460.5 51128.0,77460.5 51128.0,77482.5 51150.0,77482.5"/>
<polygon class="l50d0" points="51296.5,77482.5 51296.5,77460.5 51274.5,77460.5 51274.5,77482.5 51296.5,77482.5"/>
<polygon class="l50d0" points="51343.50000000001,77482.5 51343.50000000001,77460.5 51321.5,77460.5 51321.5,77482.5 51343.50000000001,77482.5"/>
<polygon class="l50d0" points="52254.0,77500.0 52254.0,77483.0 52232.00000000001,77483.0 52232.00000000001,77500.0 52254.0,77500.0"/>
<polygon class="l50d0" points="52522.0,77500.0 52522.0,77483.0 52500.0,77483.0 52500.0,77500.0 52522.0,77500.0"/>
<polygon class="l50d0" points="52206.00000000001,77482.5 52206.00000000001,77460.5 52184.0,77460.5 52184.0,77482.5 52206.00000000001,77482.5"/>
<polygon class="l50d0" points="52352.5,77482.5 52352.5,77460.5 52330.50000000001,77460.5 52330.50000000001,77482.5 52352.5,77482.5"/>
<polygon class="l50d0" points="52399.5,77482.5 52399.5,77460.5 52377.5,77460.5 52377.5,77482.5 52399.5,77482.5"/>
<polygon class="l50d0" points="52716.0,77500.0 52716.0,77483.0 52694.00000000001,77483.0 52694.00000000001,77500.0 52716.0,77500.0"/>
<polygon class="l50d0" points="52984.0,77500.0 52984.0,77483.0 52962.0,77483.0 52962.0,77500.0 52984.0,77500.0"/>
<polygon class="l50d0" points="52668.00000000001,77482.5 52668.00000000001,77460.5 52646.0,77460.5 52646.0,77482.5 52668.00000000001,77482.5"/>
<polygon class="l50d0" points="52814.5,77482.5 52814.5,77460.5 52792.49999999999,77460.5 52792.49999999999,77482.5 52814.5,77482.5"/>
<polygon class="l50d0" points="52861.5,77482.5 52861.5,77460.5 52839.5,77460.5 52839.5,77482.5 52861.5,77482.5"/>
<polygon class="l50d0" points="53178.0,77500.0 53178.0,77483.0 53156.00000000001,77483.0 53156.00000000001,77500.0 53178.0,77500.0"/>
<polygon class="l50d0" points="53446.0,77500.0 53446.0,77483.0 53424.0,77483.0 53424.0,77500.0 53446.0,77500.0"/>
<polygon class="l50d0" points="53129.99999999999,77482.5 53129.99999999999,77460.5 53108.00000000001,77460.5 53108.00000000001,77482.5 53129.99999999999,77482.5"/>
<polygon class="l50d0" points="53276.5,77482.5 53276.5,77460.5 53254.49999999999,77460.5 53254.49999999999,77482.5 53276.5,77482.5"/>
<polygon class="l50d0" points="53323.5,77482.5 53323.5,77460.5 53301.5,77460.5 53301.5,77482.5 53323.5,77482.5"/>
<polygon class="l50d0" points="53640.0,77500.0 53640.0,77483.0 53618.00000000001,77483.0 53618.00000000001,77500.0 53640.0,77500.0"/>
<polygon class="l50d0" points="53908.00000000001,77500.0 53908.00000000001,77483.0 53886.0,77483.0 53886.0,77500.0 53908.00000000001,77500.0"/>
<polygon class="l50d0" points="53591.99999999999,77482.5 53591.99999999999,77460.5 53570.00000000001,77460.5 53570.00000000001,77482.5 53591.99999999999,77482.5"/>
<polygon class="l50d0" points="53738.5,77482.5 53738.5,77460.5 53716.5,77460.5 53716.5,77482.5 53738.5,77482.5"/>
<polygon class="l50d0" points="53785.5,77482.5 53785.5,77460.5 53763.5,77460.5 53763.5,77482.5 53785.5,77482.5"/>
<polygon class="l50d0" points="49487.0,77500.0 49487.0,77483.0 49465.0,77483.0 49465.0,77500.0 49487.0,77500.0"/>
<polygon class="l50d0" points="49771.5,77500.0 49771.5,77483.0 49749.5,77483.0 49749.5,77500.0 49771.5,77500.0"/>
<polygon class="l50d0" points="49819.5,77482.5 49819.5,77460.5 49797.5,77460.5 49797.5,77482.5 49819.5,77482.5"/>
<polygon class="l50d0" points="56518.00000000001,77500.0 56518.00000000001,77483.0 56496.0,77483.0 56496.0,77500.0 56518.00000000001,77500.0"/>
<polygon class="l50d0" points="56566.0,77482.5 56566.0,77460.5 56544.00000000001,77460.5 56544.00000000001,77482.5 56566.0,77482.5"/>
</g>
</svg>