<?xml version="1.0" encoding="UTF-8"?>
<svg xmlns="http://www.w3.org/2000/svg" xmlns:xlink="http://www.w3.org/1999/xlink"
     width="22770.0" height="3470.0" viewBox="48265.0 -78535.0 22770.0 3470.0">
<defs>
<style type="text/css">
.l63d0 {stroke: rgb(255, 197, 149); fill: rgb(255, 197, 149); fill-opacity: 0.5;}
</style>
</defs>
<rect x="48265.0" y="-78535.0" width="22770.0" height="3470.0" fill="#222" stroke="none"/>
<g id="(63, 0)" transform="scale(1 -1)">
<polygon class="l63d0" points="62945.00000000001,77500.0 62945.00000000001,77462.0 62916.99999999999,77462.0 62916.99999999999,77500.0 62945.00000000001,77500.0"/>
<polygon class="l63d0" points="49300.0,77490.0 62945.00000000001,77490.0 62945.00000000001,77462.0 49300.0,77462.0 49300.0,77490.0"/>
<polygon class="l63d0" points="70000.0,77462.0 65227.0,77462.0 65227.0,77490.0 70000.0,77490.0 70000.0,77462.0"/>
<polygon class="l63d0" points="54139.0,77266.0 66311.0,77266.0 66311.0,77238.0 54139.0,77238.0 54139.0,77266.0"/>
<polygon class="l63d0" points="70000.0,77014.0 66283.0,77014.0 66283.0,77042.0 70000.0,77042.0 70000.0,77014.0"/>
<polygon class="l63d0" points="52885.0,77098.0 52979.0,77098.0 52979.0,77070.0 52885.0,77070.0 52885.0,77098.0"/>
<polygon class="l63d0" points="52159.0,77098.0 52781.00000000001,77098.0 52781.00000000001,77070.0 52159.0,77070.0 52159.0,77098.0"/>
<polygon class="l63d0" points="70000.0,76846.0 69781.0,76846.0 69781.0,76874.0 70000.0,76874.0 70000.0,76846.0"/>
<polygon class="l63d0" points="49300.0,76370.0 63935.0,76370.0 63935.0,76342.0 49300.0,76342.0 49300.0,76370.0"/>
<polygon class="l63d0" points="70000.0,77406.0 65227.0,77406.0 65227.0,77434.0 70000.0,77434.0 70000.0,77406.0"/>
<polygon class="l63d0" points="70000.0,77294.0 58495.00000000001,77294.0 58495.00000000001,77322.0 70000.0,77322.0 70000.0,77294.0"/>
<polygon class="l63d0" points="70000.0,77350.0 59287.0,77350.0 59287.0,77378.0 70000.0,77378.0 70000.0,77350.0"/>
<polygon class="l63d0" points="64633.00000000001,76370.0 65255.00000000001,76370.0 65255.00000000001,76342.0 64633.00000000001,76342.0 64633.00000000001,76370.0"/>
<polygon class="l63d0" points="70000.0,77070.0 68923.0,77070.0 68923.0,77098.0 70000.0,77098.0 70000.0,77070.0"/>
<polygon class="l63d0" points="68923.0,77070.0 68923.0,77210.0 68951.0,77210.0 68951.0,77070.0 68923.0,77070.0"/>
<polygon class="l63d0" points="49300.0,77210.0 68951.0,77210.0 68951.0,77182.0 49300.0,77182.0 49300.0,77210.0"/>
<polygon class="l63d0" points="49892.0,76426.0 49966.0,76426.0 49966.0,76398.0 49892.0,76398.0 49892.0,76426.0"/>
<polygon class="l63d0" points="49892.0,77154.0 49966.0,77154.0 49966.0,77126.0 49892.0,77126.0 49892.0,77154.0"/>
<polygon class="l63d0" points="62828.0,76426.0 62902.0,76426.0 62902.0,76398.0 62828.0,76398.0 62828.0,76426.0"/>
<polygon class="l63d0" points="62828.0,77154.0 62902.0,77154.0 62902.0,77126.0 62828.0,77126.0 62828.0,77154.0"/>
<polygon class="l63d0" points="56756.00000000001,76426.0 56830.00000000001,76426.0 56830.00000000001,76398.0 56756.00000000001,76398.0 56756.00000000001,76426.0"/>
<polygon class="l63d0" points="56756.00000000001,77154.0 56830.00000000001,77154.0 56830.00000000001,77126.0 56756.00000000001,77126.0 56756.00000000001,77154.0"/>
<polygon class="l63d0" points="54134.0,77266.0 54172.0,77266.0 54172.0,77238.0 54134.0,77238.0 54134.0,77266.0"/>
<polygon class="l63d0" points="66278.0,77266.0 66316.0,77266.0 66316.0,77238.0 66278.0,77238.0 66278.0,77266.0"/>
<polygon class="l63d0" points="66278.0,77042.0 66316.0,77042.0 66316.0,77014.0 66278.0,77014.0 66278.0,77042.0"/>
<polygon class="l63d0" points="52879.99999999999,77098.0 52918.00000000001,77098.0 52918.00000000001,77070.0 52879.99999999999,77070.0 52879.99999999999,77098.0"/>
<polygon class="l63d0" points="52154.0,77098.0 52191.99999999999,77098.0 52191.99999999999,77070.0 52154.0,77070.0 52154.0,77098.0"/>
<polygon class="l63d0" points="58490.0,77322.0 58528.0,77322.0 58528.0,77294.0 58490.0,77294.0 58490.0,77322.0"/>
<polygon class="l63d0" points="59282.00000000001,77378.0 59320.00000000001,77378.0 59320.00000000001,77350.0 59282.00000000001,77350.0 59282.00000000001,77378.0"/>
<polygon class="l63d0" points="65222.0,77490.0 65260.0,77490.0 65260.0,77462.0 65222.0,77462.0 65222.0,77490.0"/>
<polygon class="l63d0" points="65222.0,76370.0 65260.0,76370.0 65260.0,76342.0 65222.0,76342.0 65222.0,76370.0"/>
<polygon class="l63d0" points="52946.0,77098.0 52984.0,77098.0 52984.0,77070.0 52946.0,77070.0 52946.0,77098.0"/>
<polygon class="l63d0" points="52748.0,77098.0 52786.0,77098.0 52786.0,77070.0 52748.0,77070.0 52748.0,77098.0"/>
<polygon class="l63d0" points="49910.0,76426.0 49948.0,76426.0 49948.0,76398.0 49910.0,76398.0 49910.0,76426.0"/>
<polygon class="l63d0" points="49910.0,77154.0 49948.0,77154.0 49948.0,77126.0 49910.0,77126.0 49910.0,77154.0"/>
<polygon class="l63d0" points="69776.0,76874.0 69814.0,76874.0 69814.0,76846.0 69776.0,76846.0 69776.0,76874.0"/>
<polygon class="l63d0" points="63902.0,76370.0 63940.0,76370.0 63940.0,76342.0 63902.0,76342.0 63902.0,76370.0"/>
<polygon class="l63d0" points="70000.0,77406.0 69974.0,77406.0 69974.0,77434.0 70000.0,77434.0 70000.0,77406.0"/>
<polygon class="l63d0" points="65222.0,77434.0 65260.0,77434.0 65260.0,77406.0 65222.0,77406.0 65222.0,77434.0"/>
<polygon class="l63d0" points="64628.0,76370.0 64666.0,76370.0 64666.0,76342.0 64628.0,76342.0 64628.0,76370.0"/>
<polygon class="l63d0" points="62846.0,76426.0 62884.0,76426.0 62884.0,76398.0 62846.0,76398.0 62846.0,76426.0"/>
<polygon class="l63d0" points="62846.0,77154.0 62884.0,77154.0 62884.0,77126.0 62846.0,77126.0 62846.0,77154.0"/>
<polygon class="l63d0" points="56774.0,76426.0 56812.0,76426.0 56812.0,76398.0 56774.0,76398.0 56774.0,76426.0"/>
<polygon class="l63d0" points="56774.0,77154.0 56812.0,77154.0 56812.0,77126.0 56774.0,77126.0 56774.0,77154.0"/>
<polygon class="l63d0" points="64024.0,77488.0 65024.0,77488.0 65024.0,77408.0 64024.0,77408.0 64024.0,77488.0"/>
<polygon class="l63d0" points="64024.0,76480.0 65024.0,76480.0 65024.0,76400.0 64024.0,76400.0 64024.0,76480.0"/>
<polygon class="l63d0" points="65324.0,76984.0 66324.0,76984.0 66324.0,76904.0 65324.0,76904.0 65324.0,76984.0"/>
<polygon class="l63d0" points="64024.0,77488.0 65024.0,77488.0 65024.0,77408.0 64024.0,77408.0 64024.0,77488.0"/>
<polygon class="l63d0" points="64024.0,76480.0 65024.0,76480.0 65024.0,76400.0 64024.0,76400.0 64024.0,76480.0"/>
<polygon class="l63d0" points="65324.0,76984.0 66324.0,76984.0 66324.0,76904.0 65324.0,76904.0 65324.0,76984.0"/>
<polygon class="l63d0" points="64024.0,76100.0 64024.0,76262.0 64693.00000000001,76262.0 64693.00000000001,76100.0 64024.0,76100.0"/>
<polygon class="l63d0" points="49300.0,76262.0 69269.5,76262.0 69269.5,76100.0 49300.0,76100.0 49300.0,76262.0"/>
</g>
</svg>