<?xml version="1.0" encoding="UTF-8"?>
<svg xmlns="http://www.w3.org/2000/svg" xmlns:xlink="http://www.w3.org/1999/xlink"
     width="21833.35" height="3384.85" viewBox="48428.575 -78492.425 21833.35 3384.85">
<defs>
<style type="text/css">
.l64d0 {stroke: rgb(0, 255, 116); fill: rgb(0, 255, 116); fill-opacity: 0.5;}
</style>
</defs>
<rect x="48428.575" y="-78492.425" width="21833.35" height="3384.85" fill="#222" stroke="none"/>
<g id="(64, 0)" transform="scale(1 -1)">
<polygon class="l64d0" points="59447.0,77500.0 59447.0,76454.0 59419.00000000001,76454.0 59419.00000000001,77500.0 59447.0,77500.0"/>
<polygon class="l64d0" points="61031.00000000001,77500.0 61031.00000000001,77182.0 61003.0,77182.0 61003.0,77500.0 61031.00000000001,77500.0"/>
<polygon class="l64d0" points="61003.0,76100.0 61003.0,76258.0 61031.00000000001,76258.0 61031.00000000001,76100.0 61003.0,76100.0"/>
<polygon class="l64d0" points="66509.0,77500.0 66509.0,77350.0 66481.0,77350.0 66481.0,77500.0 66509.0,77500.0"/>
<polygon class="l64d0" points="56779.0,76398.0 56779.0,77154.0 56807.00000000001,77154.0 56807.00000000001,76398.0 56779.0,76398.0"/>
<polygon class="l64d0" points="67141.0,76100.0 67141.0,76258.0 67169.0,76258.0 67169.0,76100.0 67141.0,76100.0"/>
<polygon class="l64d0" points="62851.0,76398.0 62851.0,77154.0 62879.0,77154.0 62879.0,76398.0 62851.0,76398.0"/>
<polygon class="l64d0" points="65227.0,76342.0 65227.0,77490.0 65255.00000000001,77490.0 65255.00000000001,76342.0 65227.0,76342.0"/>
<polygon class="l64d0" points="59287.0,76100.0 59287.0,77378.0 59315.0,77378.0 59315.0,76100.0 59287.0,76100.0"/>
<polygon class="l64d0" points="58495.00000000001,76100.0 58495.00000000001,77322.0 58523.0,77322.0 58523.0,76100.0 58495.00000000001,76100.0"/>
<polygon class="l64d0" points="49915.0,76398.0 49915.0,77154.0 49943.0,77154.0 49943.0,76398.0 49915.0,76398.0"/>
<polygon class="l64d0" points="52093.00000000001,77098.0 52187.0,77098.0 52187.0,77070.0 52093.00000000001,77070.0 52093.00000000001,77098.0"/>
<polygon class="l64d0" points="52093.00000000001,76100.0 52093.00000000001,77098.0 52121.0,77098.0 52121.0,76100.0 52093.00000000001,76100.0"/>
<polygon class="l64d0" points="50867.0,77500.0 50867.0,76100.0 50839.0,76100.0 50839.0,77500.0 50867.0,77500.0"/>
<polygon class="l64d0" points="52885.0,77098.0 52979.0,77098.0 52979.0,77070.0 52885.0,77070.0 52885.0,77098.0"/>
<polygon class="l64d0" points="52951.0,76100.0 52951.0,77098.0 52979.0,77098.0 52979.0,76100.0 52951.0,76100.0"/>
<polygon class="l64d0" points="66283.0,77014.0 66283.0,77266.0 66311.0,77266.0 66311.0,77014.0 66283.0,77014.0"/>
<polygon class="l64d0" points="54139.0,76100.0 54139.0,77266.0 54166.99999999999,77266.0 54166.99999999999,76100.0 54139.0,76100.0"/>
<polygon class="l64d0" points="67136.0,76258.0 67174.0,76258.0 67174.0,76230.0 67136.0,76230.0 67136.0,76258.0"/>
<polygon class="l64d0" points="66476.0,77378.0 66514.0,77378.0 66514.0,77350.0 66476.0,77350.0 66476.0,77378.0"/>
<polygon class="l64d0" points="60998.0,76258.0 61036.0,76258.0 61036.0,76230.0 60998.0,76230.0 60998.0,76258.0"/>
<polygon class="l64d0" points="60998.0,77210.0 61036.0,77210.0 61036.0,77182.0 60998.0,77182.0 60998.0,77210.0"/>
<polygon class="l64d0" points="59414.0,76482.0 59452.0,76482.0 59452.0,76454.0 59414.0,76454.0 59414.0,76482.0"/>
<polygon class="l64d0" points="49910.0,76426.0 49948.0,76426.0 49948.0,76398.0 49910.0,76398.0 49910.0,76426.0"/>
<polygon class="l64d0" points="49910.0,77154.0 49948.0,77154.0 49948.0,77126.0 49910.0,77126.0 49910.0,77154.0"/>
<polygon class="l64d0" points="62846.0,76426.0 62884.0,76426.0 62884.0,76398.0 62846.0,76398.0 62846.0,76426.0"/>
<polygon class="l64d0" points="62846.0,77154.0 62884.0,77154.0 62884.0,77126.0 62846.0,77126.0 62846.0,77154.0"/>
<polygon class="l64d0" points="56774.0,76426.0 56812.0,76426.0 56812.0,76398.0 56774.0,76398.0 56774.0,76426.0"/>
<polygon class="l64d0" points="56774.0,77154.0 56812.0,77154.0 56812.0,77126.0 56774.0,77126.0 56774.0,77154.0"/>
<polygon class="l64d0" points="54134.0,77266.0 54172.0,77266.0 54172.0,77238.0 54134.0,77238.0 54134.0,77266.0"/>
<polygon class="l64d0" points="66278.0,77266.0 66316.0,77266.0 66316.0,77238.0 66278.0,77238.0 66278.0,77266.0"/>
<polygon class="l64d0" points="66278.0,77042.0 66316.0,77042.0 66316.0,77014.0 66278.0,77014.0 66278.0,77042.0"/>
<polygon class="l64d0" points="52879.99999999999,77098.0 52918.00000000001,77098.0 52918.00000000001,77070.0 52879.99999999999,77070.0 52879.99999999999,77098.0"/>
<polygon class="l64d0" points="52154.0,77098.0 52191.99999999999,77098.0 52191.99999999999,77070.0 52154.0,77070.0 52154.0,77098.0"/>
<polygon class="l64d0" points="58490.0,77322.0 58528.0,77322.0 58528.0,77294.0 58490.0,77294.0 58490.0,77322.0"/>
<polygon class="l64d0" points="59282.00000000001,77378.0 59320.00000000001,77378.0 59320.00000000001,77350.0 59282.00000000001,77350.0 59282.00000000001,77378.0"/>
<polygon class="l64d0" points="65222.0,77490.0 65260.0,77490.0 65260.0,77462.0 65222.0,77462.0 65222.0,77490.0"/>
<polygon class="l64d0" points="65222.0,76370.0 65260.0,76370.0 65260.0,76342.0 65222.0,76342.0 65222.0,76370.0"/>
<polygon class="l64d0" points="64024.0,77488.0 65024.0,77488.0 65024.0,77408.0 64024.0,77408.0 64024.0,77488.0"/>
<polygon class="l64d0" points="64024.0,76480.0 65024.0,76480.0 65024.0,76400.0 64024.0,76400.0 64024.0,76480.0"/>
<polygon class="l64d0" points="65324.0,76984.0 66324.0,76984.0 66324.0,76904.0 65324.0,76904.0 65324.0,76984.0"/>
<polygon class="l64d0" points="64024.0,77488.0 65024.0,77488.0 65024.0,77408.0 64024.0,77408.0 64024.0,77488.0"/>
<polygon class="l64d0" points="64024.0,76480.0 65024.0,76480.0 65024.0,76400.0 64024.0,76400.0 64024.0,76480.0"/>
<polygon class="l64d0" points="65324.0,76984.0 66324.0,76984.0 66324.0,76904.0 65324.0,76904.0 65324.0,76984.0"/>
<polygon class="l64d0" points="64024.0,76100.0 64024.0,76262.0 64693.00000000001,76262.0 64693.00000000001,76100.0 64024.0,76100.0"/>
<polygon class="l64d0" points="64024.0,76100.0 64024.0,76262.0 64693.00000000001,76262.0 64693.00000000001,76100.0 64024.0,76100.0"/>
<polygon class="l64d0" points="69069.5,76100.0 69069.5,76262.0 69269.5,76262.0 69269.5,76100.0 69069.5,76100.0"/>
<polygon class="l64d0" points="68509.0,76100.0 68509.0,76262.0 68607.0,76262.0 68607.0,76100.0 68509.0,76100.0"/>
<polygon class="l64d0" points="67785.0,76100.0 67785.0,76262.0 67939.0,76262.0 67939.0,76100.0 67785.0,76100.0"/>
<polygon class="l64d0" points="66777.0,76100.0 66777.0,76262.0 67015.0,76262.0 67015.0,76100.0 66777.0,76100.0"/>
<polygon class="l64d0" points="66075.0,76100.0 66075.0,76262.0 66313.0,76262.0 66313.0,76100.0 66075.0,76100.0"/>
<polygon class="l64d0" points="65151.0,76100.0 65151.0,76262.0 65305.00000000001,76262.0 65305.00000000001,76100.0 65151.0,76100.0"/>
<polygon class="l64d0" points="64721.0,76100.0 64721.0,76262.0 64875.0,76262.0 64875.0,76100.0 64721.0,76100.0"/>
<polygon class="l64d0" points="63713.0,76100.0 63713.0,76262.0 63951.0,76262.0 63951.0,76100.0 63713.0,76100.0"/>
<polygon class="l64d0" points="63011.0,76100.0 63011.0,76262.0 63249.0,76262.0 63249.0,76100.0 63011.0,76100.0"/>
<polygon class="l64d0" points="62087.0,76100.0 62087.0,76262.0 62241.0,76262.0 62241.0,76100.0 62087.0,76100.0"/>
<polygon class="l64d0" points="61657.00000000001,76100.0 61657.00000000001,76262.0 61811.0,76262.0 61811.0,76100.0 61657.00000000001,76100.0"/>
<polygon class="l64d0" points="60649.0,76100.0 60649.0,76262.0 60887.0,76262.0 60887.0,76100.0 60649.0,76100.0"/>
<polygon class="l64d0" points="59947.0,76100.0 59947.0,76262.0 60185.0,76262.0 60185.0,76100.0 59947.0,76100.0"/>
<polygon class="l64d0" points="59023.0,76100.0 59023.0,76262.0 59177.0,76262.0 59177.0,76100.0 59023.0,76100.0"/>
<polygon class="l64d0" points="58593.00000000001,76100.0 58593.00000000001,76262.0 58747.0,76262.0 58747.0,76100.0 58593.00000000001,76100.0"/>
<polygon class="l64d0" points="57585.0,76100.0 57585.0,76262.0 57823.0,76262.0 57823.0,76100.0 57585.0,76100.0"/>
<polygon class="l64d0" points="56883.00000000001,76100.0 56883.00000000001,76262.0 57121.0,76262.0 57121.0,76100.0 56883.00000000001,76100.0"/>
<polygon class="l64d0" points="55959.0,76100.0 55959.0,76262.0 56113.0,76262.0 56113.0,76100.0 55959.0,76100.0"/>
<polygon class="l64d0" points="55160.0,76100.0 55160.0,76262.0 55270.00000000001,76262.0 55270.00000000001,76100.0 55160.0,76100.0"/>
<polygon class="l64d0" points="54523.0,76100.0 54523.0,76262.0 54609.0,76262.0 54609.0,76100.0 54523.0,76100.0"/>
<polygon class="l64d0" points="53947.0,76100.0 53947.0,76262.0 54033.00000000001,76262.0 54033.00000000001,76100.0 53947.0,76100.0"/>
<polygon class="l64d0" points="53370.00000000001,76100.0 53370.00000000001,76262.0 53458.00000000001,76262.0 53458.00000000001,76100.0 53370.00000000001,76100.0"/>
<polygon class="l64d0" points="53183.00000000001,76100.0 53183.00000000001,76262.0 53283.00000000001,76262.0 53283.00000000001,76100.0 53183.00000000001,76100.0"/>
<polygon class="l64d0" points="52269.00000000001,76100.0 52269.00000000001,76262.0 52437.0,76262.0 52437.0,76100.0 52269.00000000001,76100.0"/>
<polygon class="l64d0" points="51181.0,76100.0 51181.0,76262.0 51561.0,76262.0 51561.0,76100.0 51181.0,76100.0"/>
<polygon class="l64d0" points="50511.0,76100.0 50511.0,76262.0 50675.0,76262.0 50675.0,76100.0 50511.0,76100.0"/>
<polygon class="l64d0" points="49421.0,76100.0 49421.0,76262.0 49801.0,76262.0 49801.0,76100.0 49421.0,76100.0"/>
</g>
</svg>