<?xml version="1.0" encoding="UTF-8"?>
<svg xmlns="http://www.w3.org/2000/svg" xmlns:xlink="http://www.w3.org/1999/xlink"
     width="8444.699999999992" height="2167.6999999999994" viewBox="59121.15000000001 -77883.85 8444.699999999992 2167.6999999999994">
<defs>
<style type="text/css">
.l66d0 {stroke: rgb(255, 42, 42); fill: rgb(255, 42, 42); fill-opacity: 0.5;}
</style>
</defs>
<rect x="59121.15000000001" y="-77883.85" width="8444.699999999992" height="2167.6999999999994" fill="#222" stroke="none"/>
<g id="(66, 0)" transform="scale(1 -1)">
<polygon class="l66d0" points="65024.0,77500.0 65024.0,76100.0 64024.0,76100.0 64024.0,77500.0 65024.0,77500.0"/>
<polygon class="l66d0" points="66324.0,77500.0 66324.0,76100.0 65324.0,76100.0 65324.0,77500.0 66324.0,77500.0"/>
<polygon class="l66d0" points="65153.0,76558.0 65153.0,77274.0 65197.0,77274.0 65197.0,76558.0 65153.0,76558.0"/>
<polygon class="l66d0" points="67177.0,77500.0 67177.0,76222.0 67133.0,76222.0 67133.0,77500.0 67177.0,77500.0"/>
<polygon class="l66d0" points="60995.00000000001,76222.0 60995.00000000001,77218.0 61039.0,77218.0 61039.0,76222.0 60995.00000000001,76222.0"/>
<polygon class="l66d0" points="67128.0,76271.0 67182.0,76271.0 67182.0,76217.0 67128.0,76217.0 67128.0,76271.0"/>
<polygon class="l66d0" points="60990.0,76271.0 61044.00000000001,76271.0 61044.00000000001,76217.0 60990.0,76217.0 60990.0,76271.0"/>
<polygon class="l66d0" points="60990.0,77223.0 61044.00000000001,77223.0 61044.00000000001,77169.0 60990.0,77169.0 60990.0,77223.0"/>
<polygon class="l66d0" points="65148.0,77279.0 65202.0,77279.0 65202.0,77225.0 65148.0,77225.0 65148.0,77279.0"/>
<polygon class="l66d0" points="65148.0,76607.0 65202.0,76607.0 65202.0,76553.0 65148.0,76553.0 65148.0,76607.0"/>
<polygon class="l66d0" points="60396.0,76327.0 60450.0,76327.0 60450.0,76273.0 60396.0,76273.0 60396.0,76327.0"/>
<polygon class="l66d0" points="59505.00000000001,76439.0 59559.0,76439.0 59559.0,76385.0 59505.00000000001,76385.0 59505.00000000001,76439.0"/>
<polygon class="l66d0" points="59505.00000000001,77391.0 59559.0,77391.0 59559.0,77337.0 59505.00000000001,77337.0 59505.00000000001,77391.0"/>
<polygon class="l66d0" points="64024.0,76100.0 64024.0,76262.0 65024.0,76262.0 65024.0,76100.0 64024.0,76100.0"/>
<polygon class="l66d0" points="64024.0,77488.0 65024.0,77488.0 65024.0,77408.0 64024.0,77408.0 64024.0,77488.0"/>
<polygon class="l66d0" points="64024.0,76480.0 65024.0,76480.0 65024.0,76400.0 64024.0,76400.0 64024.0,76480.0"/>
<polygon class="l66d0" points="65324.0,76984.0 66324.0,76984.0 66324.0,76904.0 65324.0,76904.0 65324.0,76984.0"/>
</g>
</svg>