<?xml version="1.0" encoding="UTF-8"?>
<svg xmlns="http://www.w3.org/2000/svg" xmlns:xlink="http://www.w3.org/1999/xlink"
     width="16218.4" height="2704.4" viewBox="50960.8 -78198.2 16218.4 2704.4">
<defs>
<style type="text/css">
.l70d0 {stroke: rgb(128, 255, 255); fill: rgb(128, 255, 255); fill-opacity: 0.5;}
</style>
</defs>
<rect x="50960.8" y="-78198.2" width="16218.4" height="2704.4" fill="#222" stroke="none"/>
<g id="(70, 0)" transform="scale(1 -1)">
<polygon class="l70d0" points="54998.0,77377.0 55024.0,77377.0 55024.0,77351.0 54998.0,77351.0 54998.0,77377.0"/>
<polygon class="l70d0" points="65954.0,76873.0 65980.0,76873.0 65980.0,76847.0 65954.0,76847.0 65954.0,76873.0"/>
<polygon class="l70d0" points="51698.0,76537.0 51724.0,76537.0 51724.0,76511.0 51698.0,76511.0 51698.0,76537.0"/>
<polygon class="l70d0" points="54470.00000000001,76537.0 54496.0,76537.0 54496.0,76511.0 54470.00000000001,76511.0 54470.00000000001,76537.0"/>
<polygon class="l70d0" points="53479.99999999999,77265.0 53506.00000000001,77265.0 53506.00000000001,77239.0 53479.99999999999,77239.0 53479.99999999999,77265.0"/>
<polygon class="l70d0" points="53479.99999999999,76369.0 53506.00000000001,76369.0 53506.00000000001,76343.0 53479.99999999999,76343.0 53479.99999999999,76369.0"/>
<polygon class="l70d0" points="65228.0,76257.0 65254.0,76257.0 65254.0,76231.0 65228.0,76231.0 65228.0,76257.0"/>
<polygon class="l70d0" points="56780.00000000001,77377.0 56806.00000000001,77377.0 56806.00000000001,77351.0 56780.00000000001,77351.0 56780.00000000001,77377.0"/>
<polygon class="l70d0" points="66416.0,77377.0 66442.0,77377.0 66442.0,77351.0 66416.0,77351.0 66416.0,77377.0"/>
<polygon class="l70d0" points="59552.0,77321.0 59578.0,77321.0 59578.0,77295.0 59552.0,77295.0 59552.0,77321.0"/>
<polygon class="l70d0" points="59552.0,77209.0 59578.0,77209.0 59578.0,77183.0 59552.0,77183.0 59552.0,77209.0"/>
<polygon class="l70d0" points="64979.0,77461.0 65005.00000000001,77461.0 65005.00000000001,77435.0 64979.0,77435.0 64979.0,77461.0"/>
<polygon class="l70d0" points="64927.0,77461.0 64953.0,77461.0 64953.0,77435.0 64927.0,77435.0 64927.0,77461.0"/>
<polygon class="l70d0" points="64875.0,77461.0 64901.0,77461.0 64901.0,77435.0 64875.0,77435.0 64875.0,77461.0"/>
<polygon class="l70d0" points="64823.0,77461.0 64849.0,77461.0 64849.0,77435.0 64823.0,77435.0 64823.0,77461.0"/>
<polygon class="l70d0" points="64771.0,77461.0 64797.0,77461.0 64797.0,77435.0 64771.0,77435.0 64771.0,77461.0"/>
<polygon class="l70d0" points="64719.00000000001,77461.0 64745.00000000001,77461.0 64745.00000000001,77435.0 64719.00000000001,77435.0 64719.00000000001,77461.0"/>
<polygon class="l70d0" points="64666.99999999999,77461.0 64693.00000000001,77461.0 64693.00000000001,77435.0 64666.99999999999,77435.0 64666.99999999999,77461.0"/>
<polygon class="l70d0" points="64615.0,77461.0 64641.0,77461.0 64641.0,77435.0 64615.0,77435.0 64615.0,77461.0"/>
<polygon class="l70d0" points="64563.0,77461.0 64589.0,77461.0 64589.0,77435.0 64563.0,77435.0 64563.0,77461.0"/>
<polygon class="l70d0" points="64511.0,77461.0 64537.0,77461.0 64537.0,77435.0 64511.0,77435.0 64511.0,77461.0"/>
<polygon class="l70d0" points="64459.0,77461.0 64485.0,77461.0 64485.0,77435.0 64459.0,77435.0 64459.0,77461.0"/>
<polygon class="l70d0" points="64407.00000000001,77461.0 64433.00000000001,77461.0 64433.00000000001,77435.0 64407.00000000001,77435.0 64407.00000000001,77461.0"/>
<polygon class="l70d0" points="64355.00000000001,77461.0 64381.00000000001,77461.0 64381.00000000001,77435.0 64355.00000000001,77435.0 64355.00000000001,77461.0"/>
<polygon class="l70d0" points="64303.0,77461.0 64329.0,77461.0 64329.0,77435.0 64303.0,77435.0 64303.0,77461.0"/>
<polygon class="l70d0" points="64251.0,77461.0 64277.0,77461.0 64277.0,77435.0 64251.0,77435.0 64251.0,77461.0"/>
<polygon class="l70d0" points="64199.0,77461.0 64225.0,77461.0 64225.0,77435.0 64199.0,77435.0 64199.0,77461.0"/>
<polygon class="l70d0" points="64147.0,77461.0 64173.0,77461.0 64173.0,77435.0 64147.0,77435.0 64147.0,77461.0"/>
<polygon class="l70d0" points="64095.00000000001,77461.0 64121.0,77461.0 64121.0,77435.0 64095.00000000001,77435.0 64095.00000000001,77461.0"/>
<polygon class="l70d0" points="64043.00000000001,77461.0 64069.00000000001,77461.0 64069.00000000001,77435.0 64043.00000000001,77435.0 64043.00000000001,77461.0"/>
<polygon class="l70d0" points="64979.0,76453.0 65005.00000000001,76453.0 65005.00000000001,76427.0 64979.0,76427.0 64979.0,76453.0"/>
<polygon class="l70d0" points="64927.0,76453.0 64953.0,76453.0 64953.0,76427.0 64927.0,76427.0 64927.0,76453.0"/>
<polygon class="l70d0" points="64875.0,76453.0 64901.0,76453.0 64901.0,76427.0 64875.0,76427.0 64875.0,76453.0"/>
<polygon class="l70d0" points="64823.0,76453.0 64849.0,76453.0 64849.0,76427.0 64823.0,76427.0 64823.0,76453.0"/>
<polygon class="l70d0" points="64771.0,76453.0 64797.0,76453.0 64797.0,76427.0 64771.0,76427.0 64771.0,76453.0"/>
<polygon class="l70d0" points="64719.00000000001,76453.0 64745.00000000001,76453.0 64745.00000000001,76427.0 64719.00000000001,76427.0 64719.00000000001,76453.0"/>
<polygon class="l70d0" points="64666.99999999999,76453.0 64693.00000000001,76453.0 64693.00000000001,76427.0 64666.99999999999,76427.0 64666.99999999999,76453.0"/>
<polygon class="l70d0" points="64615.0,76453.0 64641.0,76453.0 64641.0,76427.0 64615.0,76427.0 64615.0,76453.0"/>
<polygon class="l70d0" points="64563.0,76453.0 64589.0,76453.0 64589.0,76427.0 64563.0,76427.0 64563.0,76453.0"/>
<polygon class="l70d0" points="64511.0,76453.0 64537.0,76453.0 64537.0,76427.0 64511.0,76427.0 64511.0,76453.0"/>
<polygon class="l70d0" points="64459.0,76453.0 64485.0,76453.0 64485.0,76427.0 64459.0,76427.0 64459.0,76453.0"/>
<polygon class="l70d0" points="64407.00000000001,76453.0 64433.00000000001,76453.0 64433.00000000001,76427.0 64407.00000000001,76427.0 64407.00000000001,76453.0"/>
<polygon class="l70d0" points="64355.00000000001,76453.0 64381.00000000001,76453.0 64381.00000000001,76427.0 64355.00000000001,76427.0 64355.00000000001,76453.0"/>
<polygon class="l70d0" points="64303.0,76453.0 64329.0,76453.0 64329.0,76427.0 64303.0,76427.0 64303.0,76453.0"/>
<polygon class="l70d0" points="64251.0,76453.0 64277.0,76453.0 64277.0,76427.0 64251.0,76427.0 64251.0,76453.0"/>
<polygon class="l70d0" points="64199.0,76453.0 64225.0,76453.0 64225.0,76427.0 64199.0,76427.0 64199.0,76453.0"/>
<polygon class="l70d0" points="64147.0,76453.0 64173.0,76453.0 64173.0,76427.0 64147.0,76427.0 64147.0,76453.0"/>
<polygon class="l70d0" points="64095.00000000001,76453.0 64121.0,76453.0 64121.0,76427.0 64095.00000000001,76427.0 64095.00000000001,76453.0"/>
<polygon class="l70d0" points="64043.00000000001,76453.0 64069.00000000001,76453.0 64069.00000000001,76427.0 64043.00000000001,76427.0 64043.00000000001,76453.0"/>
<polygon class="l70d0" points="66279.0,76957.0 66305.0,76957.0 66305.0,76931.0 66279.0,76931.0 66279.0,76957.0"/>
<polygon class="l70d0" points="66227.0,76957.0 66253.0,76957.0 66253.0,76931.0 66227.0,76931.0 66227.0,76957.0"/>
<polygon class="l70d0" points="66175.0,76957.0 66201.0,76957.0 66201.0,76931.0 66175.0,76931.0 66175.0,76957.0"/>
<polygon class="l70d0" points="66123.0,76957.0 66149.0,76957.0 66149.0,76931.0 66123.0,76931.0 66123.0,76957.0"/>
<polygon class="l70d0" points="66071.0,76957.0 66097.0,76957.0 66097.0,76931.0 66071.0,76931.0 66071.0,76957.0"/>
<polygon class="l70d0" points="66019.0,76957.0 66045.0,76957.0 66045.0,76931.0 66019.0,76931.0 66019.0,76957.0"/>
<polygon class="l70d0" points="65967.0,76957.0 65993.0,76957.0 65993.0,76931.0 65967.0,76931.0 65967.0,76957.0"/>
<polygon class="l70d0" points="65915.0,76957.0 65941.0,76957.0 65941.0,76931.0 65915.0,76931.0 65915.0,76957.0"/>
<polygon class="l70d0" points="65863.0,76957.0 65889.0,76957.0 65889.0,76931.0 65863.0,76931.0 65863.0,76957.0"/>
<polygon class="l70d0" points="65811.0,76957.0 65837.0,76957.0 65837.0,76931.0 65811.0,76931.0 65811.0,76957.0"/>
<polygon class="l70d0" points="65759.0,76957.0 65785.0,76957.0 65785.0,76931.0 65759.0,76931.0 65759.0,76957.0"/>
<polygon class="l70d0" points="65707.0,76957.0 65733.0,76957.0 65733.0,76931.0 65707.0,76931.0 65707.0,76957.0"/>
<polygon class="l70d0" points="65655.0,76957.0 65681.0,76957.0 65681.0,76931.0 65655.0,76931.0 65655.0,76957.0"/>
<polygon class="l70d0" points="65603.0,76957.0 65629.0,76957.0 65629.0,76931.0 65603.0,76931.0 65603.0,76957.0"/>
<polygon class="l70d0" points="65551.0,76957.0 65577.0,76957.0 65577.0,76931.0 65551.0,76931.0 65551.0,76957.0"/>
<polygon class="l70d0" points="65499.0,76957.0 65525.0,76957.0 65525.0,76931.0 65499.0,76931.0 65499.0,76957.0"/>
<polygon class="l70d0" points="65447.0,76957.0 65473.0,76957.0 65473.0,76931.0 65447.0,76931.0 65447.0,76957.0"/>
<polygon class="l70d0" points="65395.00000000001,76957.0 65421.0,76957.0 65421.0,76931.0 65395.00000000001,76931.0 65395.00000000001,76957.0"/>
<polygon class="l70d0" points="65343.00000000001,76957.0 65369.00000000001,76957.0 65369.00000000001,76931.0 65343.00000000001,76931.0 65343.00000000001,76957.0"/>
</g>
</svg>