<?xml version="1.0" encoding="UTF-8"?>
<svg xmlns="http://www.w3.org/2000/svg" xmlns:xlink="http://www.w3.org/1999/xlink"
     width="21800.35" height="3347.85" viewBox="48451.075 -78479.925 21800.35 3347.85">
<defs>
<style type="text/css">
.l72d0 {stroke: rgb(255, 139, 0); fill: rgb(255, 139, 0); fill-opacity: 0.5;}
</style>
</defs>
<rect x="48451.075" y="-78479.925" width="21800.35" height="3347.85" fill="#222" stroke="none"/>
<g id="(72, 0)" transform="scale(1 -1)">
<polygon class="l72d0" points="49916.0,76425.0 49942.0,76425.0 49942.0,76399.0 49916.0,76399.0 49916.0,76425.0"/>
<polygon class="l72d0" points="49916.0,77153.0 49942.0,77153.0 49942.0,77127.0 49916.0,77127.0 49916.0,77153.0"/>
<polygon class="l72d0" points="62852.0,76425.0 62878.0,76425.0 62878.0,76399.0 62852.0,76399.0 62852.0,76425.0"/>
<polygon class="l72d0" points="62852.0,77153.0 62878.0,77153.0 62878.0,77127.0 62852.0,77127.0 62852.0,77153.0"/>
<polygon class="l72d0" points="56780.00000000001,76425.0 56806.00000000001,76425.0 56806.00000000001,76399.0 56780.00000000001,76399.0 56780.00000000001,76425.0"/>
<polygon class="l72d0" points="56780.00000000001,77153.0 56806.00000000001,77153.0 56806.00000000001,77127.0 56780.00000000001,77127.0 56780.00000000001,77153.0"/>
<polygon class="l72d0" points="54140.0,77265.0 54166.0,77265.0 54166.0,77239.0 54140.0,77239.0 54140.0,77265.0"/>
<polygon class="l72d0" points="66284.0,77265.0 66310.0,77265.0 66310.0,77239.0 66284.0,77239.0 66284.0,77265.0"/>
<polygon class="l72d0" points="66284.0,77041.0 66310.0,77041.0 66310.0,77015.0 66284.0,77015.0 66284.0,77041.0"/>
<polygon class="l72d0" points="52886.0,77097.0 52912.0,77097.0 52912.0,77071.0 52886.0,77071.0 52886.0,77097.0"/>
<polygon class="l72d0" points="52160.0,77097.0 52186.0,77097.0 52186.0,77071.0 52160.0,77071.0 52160.0,77097.0"/>
<polygon class="l72d0" points="58496.0,77321.0 58522.0,77321.0 58522.0,77295.0 58496.0,77295.0 58496.0,77321.0"/>
<polygon class="l72d0" points="59288.0,77377.0 59314.0,77377.0 59314.0,77351.0 59288.0,77351.0 59288.0,77377.0"/>
<polygon class="l72d0" points="65228.0,77489.0 65254.0,77489.0 65254.0,77463.0 65228.0,77463.0 65228.0,77489.0"/>
<polygon class="l72d0" points="65228.0,76369.0 65254.0,76369.0 65254.0,76343.0 65228.0,76343.0 65228.0,76369.0"/>
<polygon class="l72d0" points="64979.0,77461.0 65005.00000000001,77461.0 65005.00000000001,77435.0 64979.0,77435.0 64979.0,77461.0"/>
<polygon class="l72d0" points="64927.0,77461.0 64953.0,77461.0 64953.0,77435.0 64927.0,77435.0 64927.0,77461.0"/>
<polygon class="l72d0" points="64875.0,77461.0 64901.0,77461.0 64901.0,77435.0 64875.0,77435.0 64875.0,77461.0"/>
<polygon class="l72d0" points="64823.0,77461.0 64849.0,77461.0 64849.0,77435.0 64823.0,77435.0 64823.0,77461.0"/>
<polygon class="l72d0" points="64771.0,77461.0 64797.0,77461.0 64797.0,77435.0 64771.0,77435.0 64771.0,77461.0"/>
<polygon class="l72d0" points="64719.00000000001,77461.0 64745.00000000001,77461.0 64745.00000000001,77435.0 64719.00000000001,77435.0 64719.00000000001,77461.0"/>
<polygon class="l72d0" points="64666.99999999999,77461.0 64693.00000000001,77461.0 64693.00000000001,77435.0 64666.99999999999,77435.0 64666.99999999999,77461.0"/>
<polygon class="l72d0" points="64615.0,77461.0 64641.0,77461.0 64641.0,77435.0 64615.0,77435.0 64615.0,77461.0"/>
<polygon class="l72d0" points="64563.0,77461.0 64589.0,77461.0 64589.0,77435.0 64563.0,77435.0 64563.0,77461.0"/>
<polygon class="l72d0" points="64511.0,77461.0 64537.0,77461.0 64537.0,77435.0 64511.0,77435.0 64511.0,77461.0"/>
<polygon class="l72d0" points="64459.0,77461.0 64485.0,77461.0 64485.0,77435.0 64459.0,77435.0 64459.0,77461.0"/>
<polygon class="l72d0" points="64407.00000000001,77461.0 64433.00000000001,77461.0 64433.00000000001,77435.0 64407.00000000001,77435.0 64407.00000000001,77461.0"/>
<polygon class="l72d0" points="64355.00000000001,77461.0 64381.00000000001,77461.0 64381.00000000001,77435.0 64355.00000000001,77435.0 64355.00000000001,77461.0"/>
<polygon class="l72d0" points="64303.0,77461.0 64329.0,77461.0 64329.0,77435.0 64303.0,77435.0 64303.0,77461.0"/>
<polygon class="l72d0" points="64251.0,77461.0 64277.0,77461.0 64277.0,77435.0 64251.0,77435.0 64251.0,77461.0"/>
<polygon class="l72d0" points="64199.0,77461.0 64225.0,77461.0 64225.0,77435.0 64199.0,77435.0 64199.0,77461.0"/>
<polygon class="l72d0" points="64147.0,77461.0 64173.0,77461.0 64173.0,77435.0 64147.0,77435.0 64147.0,77461.0"/>
<polygon class="l72d0" points="64095.00000000001,77461.0 64121.0,77461.0 64121.0,77435.0 64095.00000000001,77435.0 64095.00000000001,77461.0"/>
<polygon class="l72d0" points="64043.00000000001,77461.0 64069.00000000001,77461.0 64069.00000000001,77435.0 64043.00000000001,77435.0 64043.00000000001,77461.0"/>
<polygon class="l72d0" points="64979.0,76453.0 65005.00000000001,76453.0 65005.00000000001,76427.0 64979.0,76427.0 64979.0,76453.0"/>
<polygon class="l72d0" points="64927.0,76453.0 64953.0,76453.0 64953.0,76427.0 64927.0,76427.0 64927.0,76453.0"/>
<polygon class="l72d0" points="64875.0,76453.0 64901.0,76453.0 64901.0,76427.0 64875.0,76427.0 64875.0,76453.0"/>
<polygon class="l72d0" points="64823.0,76453.0 64849.0,76453.0 64849.0,76427.0 64823.0,76427.0 64823.0,76453.0"/>
<polygon class="l72d0" points="64771.0,76453.0 64797.0,76453.0 64797.0,76427.0 64771.0,76427.0 64771.0,76453.0"/>
<polygon class="l72d0" points="64719.00000000001,76453.0 64745.00000000001,76453.0 64745.00000000001,76427.0 64719.00000000001,76427.0 64719.00000000001,76453.0"/>
<polygon class="l72d0" points="64666.99999999999,76453.0 64693.00000000001,76453.0 64693.00000000001,76427.0 64666.99999999999,76427.0 64666.99999999999,76453.0"/>
<polygon class="l72d0" points="64615.0,76453.0 64641.0,76453.0 64641.0,76427.0 64615.0,76427.0 64615.0,76453.0"/>
<polygon class="l72d0" points="64563.0,76453.0 64589.0,76453.0 64589.0,76427.0 64563.0,76427.0 64563.0,76453.0"/>
<polygon class="l72d0" points="64511.0,76453.0 64537.0,76453.0 64537.0,76427.0 64511.0,76427.0 64511.0,76453.0"/>
<polygon class="l72d0" points="64459.0,76453.0 64485.0,76453.0 64485.0,76427.0 64459.0,76427.0 64459.0,76453.0"/>
<polygon class="l72d0" points="64407.00000000001,76453.0 64433.00000000001,76453.0 64433.00000000001,76427.0 64407.00000000001,76427.0 64407.00000000001,76453.0"/>
<polygon class="l72d0" points="64355.00000000001,76453.0 64381.00000000001,76453.0 64381.00000000001,76427.0 64355.00000000001,76427.0 64355.00000000001,76453.0"/>
<polygon class="l72d0" points="64303.0,76453.0 64329.0,76453.0 64329.0,76427.0 64303.0,76427.0 64303.0,76453.0"/>
<polygon class="l72d0" points="64251.0,76453.0 64277.0,76453.0 64277.0,76427.0 64251.0,76427.0 64251.0,76453.0"/>
<polygon class="l72d0" points="64199.0,76453.0 64225.0,76453.0 64225.0,76427.0 64199.0,76427.0 64199.0,76453.0"/>
<polygon class="l72d0" points="64147.0,76453.0 64173.0,76453.0 64173.0,76427.0 64147.0,76427.0 64147.0,76453.0"/>
<polygon class="l72d0" points="64095.00000000001,76453.0 64121.0,76453.0 64121.0,76427.0 64095.00000000001,76427.0 64095.00000000001,76453.0"/>
<polygon class="l72d0" points="64043.00000000001,76453.0 64069.00000000001,76453.0 64069.00000000001,76427.0 64043.00000000001,76427.0 64043.00000000001,76453.0"/>
<polygon class="l72d0" points="66279.0,76957.0 66305.0,76957.0 66305.0,76931.0 66279.0,76931.0 66279.0,76957.0"/>
<polygon class="l72d0" points="66227.0,76957.0 66253.0,76957.0 66253.0,76931.0 66227.0,76931.0 66227.0,76957.0"/>
<polygon class="l72d0" points="66175.0,76957.0 66201.0,76957.0 66201.0,76931.0 66175.0,76931.0 66175.0,76957.0"/>
<polygon class="l72d0" points="66123.0,76957.0 66149.0,76957.0 66149.0,76931.0 66123.0,76931.0 66123.0,76957.0"/>
<polygon class="l72d0" points="66071.0,76957.0 66097.0,76957.0 66097.0,76931.0 66071.0,76931.0 66071.0,76957.0"/>
<polygon class="l72d0" points="66019.0,76957.0 66045.0,76957.0 66045.0,76931.0 66019.0,76931.0 66019.0,76957.0"/>
<polygon class="l72d0" points="65967.0,76957.0 65993.0,76957.0 65993.0,76931.0 65967.0,76931.0 65967.0,76957.0"/>
<polygon class="l72d0" points="65915.0,76957.0 65941.0,76957.0 65941.0,76931.0 65915.0,76931.0 65915.0,76957.0"/>
<polygon class="l72d0" points="65863.0,76957.0 65889.0,76957.0 65889.0,76931.0 65863.0,76931.0 65863.0,76957.0"/>
<polygon class="l72d0" points="65811.0,76957.0 65837.0,76957.0 65837.0,76931.0 65811.0,76931.0 65811.0,76957.0"/>
<polygon class="l72d0" points="65759.0,76957.0 65785.0,76957.0 65785.0,76931.0 65759.0,76931.0 65759.0,76957.0"/>
<polygon class="l72d0" points="65707.0,76957.0 65733.0,76957.0 65733.0,76931.0 65707.0,76931.0 65707.0,76957.0"/>
<polygon class="l72d0" points="65655.0,76957.0 65681.0,76957.0 65681.0,76931.0 65655.0,76931.0 65655.0,76957.0"/>
<polygon class="l72d0" points="65603.0,76957.0 65629.0,76957.0 65629.0,76931.0 65603.0,76931.0 65603.0,76957.0"/>
<polygon class="l72d0" points="65551.0,76957.0 65577.0,76957.0 65577.0,76931.0 65551.0,76931.0 65551.0,76957.0"/>
<polygon class="l72d0" points="65499.0,76957.0 65525.0,76957.0 65525.0,76931.0 65499.0,76931.0 65499.0,76957.0"/>
<polygon class="l72d0" points="65447.0,76957.0 65473.0,76957.0 65473.0,76931.0 65447.0,76931.0 65447.0,76957.0"/>
<polygon class="l72d0" points="65395.00000000001,76957.0 65421.0,76957.0 65421.0,76931.0 65395.00000000001,76931.0 65395.00000000001,76957.0"/>
<polygon class="l72d0" points="65343.00000000001,76957.0 65369.00000000001,76957.0 65369.00000000001,76931.0 65343.00000000001,76931.0 65343.00000000001,76957.0"/>
<polygon class="l72d0" points="64657.50000000001,76253.0 64683.5,76253.0 64683.5,76227.0 64657.50000000001,76227.0 64657.50000000001,76253.0"/>
<polygon class="l72d0" points="64657.50000000001,76201.0 64683.5,76201.0 64683.5,76175.0 64657.50000000001,76175.0 64657.50000000001,76201.0"/>
<polygon class="l72d0" points="64657.50000000001,76149.0 64683.5,76149.0 64683.5,76123.0 64657.50000000001,76123.0 64657.50000000001,76149.0"/>
<polygon class="l72d0" points="64605.50000000001,76253.0 64631.50000000001,76253.0 64631.50000000001,76227.0 64605.50000000001,76227.0 64605.50000000001,76253.0"/>
<polygon class="l72d0" points="64605.50000000001,76201.0 64631.50000000001,76201.0 64631.50000000001,76175.0 64605.50000000001,76175.0 64605.50000000001,76201.0"/>
<polygon class="l72d0" points="64605.50000000001,76149.0 64631.50000000001,76149.0 64631.50000000001,76123.0 64605.50000000001,76123.0 64605.50000000001,76149.0"/>
<polygon class="l72d0" points="64553.5,76253.0 64579.49999999999,76253.0 64579.49999999999,76227.0 64553.5,76227.0 64553.5,76253.0"/>
<polygon class="l72d0" points="64553.5,76201.0 64579.49999999999,76201.0 64579.49999999999,76175.0 64553.5,76175.0 64553.5,76201.0"/>
<polygon class="l72d0" points="64553.5,76149.0 64579.49999999999,76149.0 64579.49999999999,76123.0 64553.5,76123.0 64553.5,76149.0"/>
<polygon class="l72d0" points="64501.5,76253.0 64527.5,76253.0 64527.5,76227.0 64501.5,76227.0 64501.5,76253.0"/>
<polygon class="l72d0" points="64501.5,76201.0 64527.5,76201.0 64527.5,76175.0 64501.5,76175.0 64501.5,76201.0"/>
<polygon class="l72d0" points="64501.5,76149.0 64527.5,76149.0 64527.5,76123.0 64501.5,76123.0 64501.5,76149.0"/>
<polygon class="l72d0" points="64449.5,76253.0 64475.5,76253.0 64475.5,76227.0 64449.5,76227.0 64449.5,76253.0"/>
<polygon class="l72d0" points="64449.5,76201.0 64475.5,76201.0 64475.5,76175.0 64449.5,76175.0 64449.5,76201.0"/>
<polygon class="l72d0" points="64449.5,76149.0 64475.5,76149.0 64475.5,76123.0 64449.5,76123.0 64449.5,76149.0"/>
<polygon class="l72d0" points="64397.5,76253.0 64423.5,76253.0 64423.5,76227.0 64397.5,76227.0 64397.5,76253.0"/>
<polygon class="l72d0" points="64397.5,76201.0 64423.5,76201.0 64423.5,76175.0 64397.5,76175.0 64397.5,76201.0"/>
<polygon class="l72d0" points="64397.5,76149.0 64423.5,76149.0 64423.5,76123.0 64397.5,76123.0 64397.5,76149.0"/>
<polygon class="l72d0" points="64345.50000000001,76253.0 64371.5,76253.0 64371.5,76227.0 64345.50000000001,76227.0 64345.50000000001,76253.0"/>
<polygon class="l72d0" points="64345.50000000001,76201.0 64371.5,76201.0 64371.5,76175.0 64345.50000000001,76175.0 64345.50000000001,76201.0"/>
<polygon class="l72d0" points="64345.50000000001,76149.0 64371.5,76149.0 64371.5,76123.0 64345.50000000001,76123.0 64345.50000000001,76149.0"/>
<polygon class="l72d0" points="64293.50000000001,76253.0 64319.50000000001,76253.0 64319.50000000001,76227.0 64293.50000000001,76227.0 64293.50000000001,76253.0"/>
<polygon class="l72d0" points="64293.50000000001,76201.0 64319.50000000001,76201.0 64319.50000000001,76175.0 64293.50000000001,76175.0 64293.50000000001,76201.0"/>
<polygon class="l72d0" points="64293.50000000001,76149.0 64319.50000000001,76149.0 64319.50000000001,76123.0 64293.50000000001,76123.0 64293.50000000001,76149.0"/>
<polygon class="l72d0" points="64241.5,76253.0 64267.50000000001,76253.0 64267.50000000001,76227.0 64241.5,76227.0 64241.5,76253.0"/>
<polygon class="l72d0" points="64241.5,76201.0 64267.50000000001,76201.0 64267.50000000001,76175.0 64241.5,76175.0 64241.5,76201.0"/>
<polygon class="l72d0" points="64241.5,76149.0 64267.50000000001,76149.0 64267.50000000001,76123.0 64241.5,76123.0 64241.5,76149.0"/>
<polygon class="l72d0" points="64189.5,76253.0 64215.5,76253.0 64215.5,76227.0 64189.5,76227.0 64189.5,76253.0"/>
<polygon class="l72d0" points="64189.5,76201.0 64215.5,76201.0 64215.5,76175.0 64189.5,76175.0 64189.5,76201.0"/>
<polygon class="l72d0" points="64189.5,76149.0 64215.5,76149.0 64215.5,76123.0 64189.5,76123.0 64189.5,76149.0"/>
<polygon class="l72d0" points="64137.5,76253.0 64163.5,76253.0 64163.5,76227.0 64137.5,76227.0 64137.5,76253.0"/>
<polygon class="l72d0" points="64137.5,76201.0 64163.5,76201.0 64163.5,76175.0 64137.5,76175.0 64137.5,76201.0"/>
<polygon class="l72d0" points="64137.5,76149.0 64163.5,76149.0 64163.5,76123.0 64137.5,76123.0 64137.5,76149.0"/>
<polygon class="l72d0" points="64085.5,76253.0 64111.5,76253.0 64111.5,76227.0 64085.5,76227.0 64085.5,76253.0"/>
<polygon class="l72d0" points="64085.5,76201.0 64111.5,76201.0 64111.5,76175.0 64085.5,76175.0 64085.5,76201.0"/>
<polygon class="l72d0" points="64085.5,76149.0 64111.5,76149.0 64111.5,76123.0 64085.5,76123.0 64085.5,76149.0"/>
<polygon class="l72d0" points="64033.5,76253.0 64059.5,76253.0 64059.5,76227.0 64033.5,76227.0 64033.5,76253.0"/>
<polygon class="l72d0" points="64033.5,76201.0 64059.5,76201.0 64059.5,76175.0 64033.5,76175.0 64033.5,76201.0"/>
<polygon class="l72d0" points="64033.5,76149.0 64059.5,76149.0 64059.5,76123.0 64033.5,76123.0 64033.5,76149.0"/>
<polygon class="l72d0" points="69104.5,76253.0 69104.5,76227.0 69078.5,76227.0 69078.5,76253.0 69104.5,76253.0"/>
<polygon class="l72d0" points="69104.5,76201.0 69104.5,76175.0 69078.5,76175.0 69078.5,76201.0 69104.5,76201.0"/>
<polygon class="l72d0" points="69104.5,76149.0 69104.5,76123.0 69078.5,76123.0 69078.5,76149.0 69104.5,76149.0"/>
<polygon class="l72d0" points="69156.5,76253.0 69156.5,76227.0 69130.5,76227.0 69130.5,76253.0 69156.5,76253.0"/>
<polygon class="l72d0" points="69156.5,76201.0 69156.5,76175.0 69130.5,76175.0 69130.5,76201.0 69156.5,76201.0"/>
<polygon class="l72d0" points="69156.5,76149.0 69156.5,76123.0 69130.5,76123.0 69130.5,76149.0 69156.5,76149.0"/>
<polygon class="l72d0" points="69208.5,76253.0 69208.5,76227.0 69182.5,76227.0 69182.5,76253.0 69208.5,76253.0"/>
<polygon class="l72d0" points="69208.5,76201.0 69208.5,76175.0 69182.5,76175.0 69182.5,76201.0 69208.5,76201.0"/>
<polygon class="l72d0" points="69208.5,76149.0 69208.5,76123.0 69182.5,76123.0 69182.5,76149.0 69208.5,76149.0"/>
<polygon class="l72d0" points="69260.5,76253.0 69260.5,76227.0 69234.5,76227.0 69234.5,76253.0 69260.5,76253.0"/>
<polygon class="l72d0" points="69260.5,76201.0 69260.5,76175.0 69234.5,76175.0 69234.5,76201.0 69260.5,76201.0"/>
<polygon class="l72d0" points="69260.5,76149.0 69260.5,76123.0 69234.5,76123.0 69234.5,76149.0 69260.5,76149.0"/>
<polygon class="l72d0" points="68545.0,76253.0 68545.0,76227.0 68519.0,76227.0 68519.0,76253.0 68545.0,76253.0"/>
<polygon class="l72d0" points="68545.0,76201.0 68545.0,76175.0 68519.0,76175.0 68519.0,76201.0 68545.0,76201.0"/>
<polygon class="l72d0" points="68545.0,76149.0 68545.0,76123.0 68519.0,76123.0 68519.0,76149.0 68545.0,76149.0"/>
<polygon class="l72d0" points="68597.0,76253.0 68597.0,76227.0 68571.0,76227.0 68571.0,76253.0 68597.0,76253.0"/>
<polygon class="l72d0" points="68597.0,76201.0 68597.0,76175.0 68571.0,76175.0 68571.0,76201.0 68597.0,76201.0"/>
<polygon class="l72d0" points="68597.0,76149.0 68597.0,76123.0 68571.0,76123.0 68571.0,76149.0 68597.0,76149.0"/>
<polygon class="l72d0" points="67823.0,76253.0 67823.0,76227.0 67797.0,76227.0 67797.0,76253.0 67823.0,76253.0"/>
<polygon class="l72d0" points="67823.0,76201.0 67823.0,76175.0 67797.0,76175.0 67797.0,76201.0 67823.0,76201.0"/>
<polygon class="l72d0" points="67823.0,76149.0 67823.0,76123.0 67797.0,76123.0 67797.0,76149.0 67823.0,76149.0"/>
<polygon class="l72d0" points="67875.0,76253.0 67875.0,76227.0 67849.0,76227.0 67849.0,76253.0 67875.0,76253.0"/>
<polygon class="l72d0" points="67875.0,76201.0 67875.0,76175.0 67849.0,76175.0 67849.0,76201.0 67875.0,76201.0"/>
<polygon class="l72d0" points="67875.0,76149.0 67875.0,76123.0 67849.0,76123.0 67849.0,76149.0 67875.0,76149.0"/>
<polygon class="l72d0" points="67927.0,76253.0 67927.0,76227.0 67901.0,76227.0 67901.0,76253.0 67927.0,76253.0"/>
<polygon class="l72d0" points="67927.0,76201.0 67927.0,76175.0 67901.0,76175.0 67901.0,76201.0 67927.0,76201.0"/>
<polygon class="l72d0" points="67927.0,76149.0 67927.0,76123.0 67901.0,76123.0 67901.0,76149.0 67927.0,76149.0"/>
<polygon class="l72d0" points="66831.0,76253.0 66831.0,76227.0 66805.0,76227.0 66805.0,76253.0 66831.0,76253.0"/>
<polygon class="l72d0" points="66831.0,76201.0 66831.0,76175.0 66805.0,76175.0 66805.0,76201.0 66831.0,76201.0"/>
<polygon class="l72d0" points="66831.0,76149.0 66831.0,76123.0 66805.0,76123.0 66805.0,76149.0 66831.0,76149.0"/>
<polygon class="l72d0" points="66883.0,76253.0 66883.0,76227.0 66857.0,76227.0 66857.0,76253.0 66883.0,76253.0"/>
<polygon class="l72d0" points="66883.0,76201.0 66883.0,76175.0 66857.0,76175.0 66857.0,76201.0 66883.0,76201.0"/>
<polygon class="l72d0" points="66883.0,76149.0 66883.0,76123.0 66857.0,76123.0 66857.0,76149.0 66883.0,76149.0"/>
<polygon class="l72d0" points="66935.0,76253.0 66935.0,76227.0 66909.0,76227.0 66909.0,76253.0 66935.0,76253.0"/>
<polygon class="l72d0" points="66935.0,76201.0 66935.0,76175.0 66909.0,76175.0 66909.0,76201.0 66935.0,76201.0"/>
<polygon class="l72d0" points="66935.0,76149.0 66935.0,76123.0 66909.0,76123.0 66909.0,76149.0 66935.0,76149.0"/>
<polygon class="l72d0" points="66987.0,76253.0 66987.0,76227.0 66961.0,76227.0 66961.0,76253.0 66987.0,76253.0"/>
<polygon class="l72d0" points="66987.0,76201.0 66987.0,76175.0 66961.0,76175.0 66961.0,76201.0 66987.0,76201.0"/>
<polygon class="l72d0" points="66987.0,76149.0 66987.0,76123.0 66961.0,76123.0 66961.0,76149.0 66987.0,76149.0"/>
<polygon class="l72d0" points="66129.0,76253.0 66129.0,76227.0 66103.0,76227.0 66103.0,76253.0 66129.0,76253.0"/>
<polygon class="l72d0" points="66129.0,76201.0 66129.0,76175.0 66103.0,76175.0 66103.0,76201.0 66129.0,76201.0"/>
<polygon class="l72d0" points="66129.0,76149.0 66129.0,76123.0 66103.0,76123.0 66103.0,76149.0 66129.0,76149.0"/>
<polygon class="l72d0" points="66181.0,76253.0 66181.0,76227.0 66155.0,76227.0 66155.0,76253.0 66181.0,76253.0"/>
<polygon class="l72d0" points="66181.0,76201.0 66181.0,76175.0 66155.0,76175.0 66155.0,76201.0 66181.0,76201.0"/>
<polygon class="l72d0" points="66181.0,76149.0 66181.0,76123.0 66155.0,76123.0 66155.0,76149.0 66181.0,76149.0"/>
<polygon class="l72d0" points="66233.0,76253.0 66233.0,76227.0 66207.0,76227.0 66207.0,76253.0 66233.0,76253.0"/>
<polygon class="l72d0" points="66233.0,76201.0 66233.0,76175.0 66207.0,76175.0 66207.0,76201.0 66233.0,76201.0"/>
<polygon class="l72d0" points="66233.0,76149.0 66233.0,76123.0 66207.0,76123.0 66207.0,76149.0 66233.0,76149.0"/>
<polygon class="l72d0" points="66285.0,76253.0 66285.0,76227.0 66259.0,76227.0 66259.0,76253.0 66285.0,76253.0"/>
<polygon class="l72d0" points="66285.0,76201.0 66285.0,76175.0 66259.0,76175.0 66259.0,76201.0 66285.0,76201.0"/>
<polygon class="l72d0" points="66285.0,76149.0 66285.0,76123.0 66259.0,76123.0 66259.0,76149.0 66285.0,76149.0"/>
<polygon class="l72d0" points="65189.0,76253.0 65189.0,76227.0 65163.0,76227.0 65163.0,76253.0 65189.0,76253.0"/>
<polygon class="l72d0" points="65189.0,76201.0 65189.0,76175.0 65163.0,76175.0 65163.0,76201.0 65189.0,76201.0"/>
<polygon class="l72d0" points="65189.0,76149.0 65189.0,76123.0 65163.0,76123.0 65163.0,76149.0 65189.0,76149.0"/>
<polygon class="l72d0" points="65241.0,76253.0 65241.0,76227.0 65215.0,76227.0 65215.0,76253.0 65241.0,76253.0"/>
<polygon class="l72d0" points="65241.0,76201.0 65241.0,76175.0 65215.0,76175.0 65215.0,76201.0 65241.0,76201.0"/>
<polygon class="l72d0" points="65241.0,76149.0 65241.0,76123.0 65215.0,76123.0 65215.0,76149.0 65241.0,76149.0"/>
<polygon class="l72d0" points="65293.00000000001,76253.0 65293.00000000001,76227.0 65266.99999999999,76227.0 65266.99999999999,76253.0 65293.00000000001,76253.0"/>
<polygon class="l72d0" points="65293.00000000001,76201.0 65293.00000000001,76175.0 65266.99999999999,76175.0 65266.99999999999,76201.0 65293.00000000001,76201.0"/>
<polygon class="l72d0" points="65293.00000000001,76149.0 65293.00000000001,76123.0 65266.99999999999,76123.0 65266.99999999999,76149.0 65293.00000000001,76149.0"/>
<polygon class="l72d0" points="64759.0,76253.0 64759.0,76227.0 64733.00000000001,76227.0 64733.00000000001,76253.0 64759.0,76253.0"/>
<polygon class="l72d0" points="64759.0,76201.0 64759.0,76175.0 64733.00000000001,76175.0 64733.00000000001,76201.0 64759.0,76201.0"/>
<polygon class="l72d0" points="64759.0,76149.0 64759.0,76123.0 64733.00000000001,76123.0 64733.00000000001,76149.0 64759.0,76149.0"/>
<polygon class="l72d0" points="64811.0,76253.0 64811.0,76227.0 64785.0,76227.0 64785.0,76253.0 64811.0,76253.0"/>
<polygon class="l72d0" points="64811.0,76201.0 64811.0,76175.0 64785.0,76175.0 64785.0,76201.0 64811.0,76201.0"/>
<polygon class="l72d0" points="64811.0,76149.0 64811.0,76123.0 64785.0,76123.0 64785.0,76149.0 64811.0,76149.0"/>
<polygon class="l72d0" points="64863.0,76253.0 64863.0,76227.0 64837.0,76227.0 64837.0,76253.0 64863.0,76253.0"/>
<polygon class="l72d0" points="64863.0,76201.0 64863.0,76175.0 64837.0,76175.0 64837.0,76201.0 64863.0,76201.0"/>
<polygon class="l72d0" points="64863.0,76149.0 64863.0,76123.0 64837.0,76123.0 64837.0,76149.0 64863.0,76149.0"/>
<polygon class="l72d0" points="63766.99999999999,76253.0 63766.99999999999,76227.0 63741.0,76227.0 63741.0,76253.0 63766.99999999999,76253.0"/>
<polygon class="l72d0" points="63766.99999999999,76201.0 63766.99999999999,76175.0 63741.0,76175.0 63741.0,76201.0 63766.99999999999,76201.0"/>
<polygon class="l72d0" points="63766.99999999999,76149.0 63766.99999999999,76123.0 63741.0,76123.0 63741.0,76149.0 63766.99999999999,76149.0"/>
<polygon class="l72d0" points="63819.00000000001,76253.0 63819.00000000001,76227.0 63793.00000000001,76227.0 63793.00000000001,76253.0 63819.00000000001,76253.0"/>
<polygon class="l72d0" points="63819.00000000001,76201.0 63819.00000000001,76175.0 63793.00000000001,76175.0 63793.00000000001,76201.0 63819.00000000001,76201.0"/>
<polygon class="l72d0" points="63819.00000000001,76149.0 63819.00000000001,76123.0 63793.00000000001,76123.0 63793.00000000001,76149.0 63819.00000000001,76149.0"/>
<polygon class="l72d0" points="63871.0,76253.0 63871.0,76227.0 63845.00000000001,76227.0 63845.00000000001,76253.0 63871.0,76253.0"/>
<polygon class="l72d0" points="63871.0,76201.0 63871.0,76175.0 63845.00000000001,76175.0 63845.00000000001,76201.0 63871.0,76201.0"/>
<polygon class="l72d0" points="63871.0,76149.0 63871.0,76123.0 63845.00000000001,76123.0 63845.00000000001,76149.0 63871.0,76149.0"/>
<polygon class="l72d0" points="63923.0,76253.0 63923.0,76227.0 63897.0,76227.0 63897.0,76253.0 63923.0,76253.0"/>
<polygon class="l72d0" points="63923.0,76201.0 63923.0,76175.0 63897.0,76175.0 63897.0,76201.0 63923.0,76201.0"/>
<polygon class="l72d0" points="63923.0,76149.0 63923.0,76123.0 63897.0,76123.0 63897.0,76149.0 63923.0,76149.0"/>
<polygon class="l72d0" points="63065.0,76253.0 63065.0,76227.0 63039.0,76227.0 63039.0,76253.0 63065.0,76253.0"/>
<polygon class="l72d0" points="63065.0,76201.0 63065.0,76175.0 63039.0,76175.0 63039.0,76201.0 63065.0,76201.0"/>
<polygon class="l72d0" points="63065.0,76149.0 63065.0,76123.0 63039.0,76123.0 63039.0,76149.0 63065.0,76149.0"/>
<polygon class="l72d0" points="63116.99999999999,76253.0 63116.99999999999,76227.0 63091.0,76227.0 63091.0,76253.0 63116.99999999999,76253.0"/>
<polygon class="l72d0" points="63116.99999999999,76201.0 63116.99999999999,76175.0 63091.0,76175.0 63091.0,76201.0 63116.99999999999,76201.0"/>
<polygon class="l72d0" points="63116.99999999999,76149.0 63116.99999999999,76123.0 63091.0,76123.0 63091.0,76149.0 63116.99999999999,76149.0"/>
<polygon class="l72d0" points="63169.00000000001,76253.0 63169.00000000001,76227.0 63143.00000000001,76227.0 63143.00000000001,76253.0 63169.00000000001,76253.0"/>
<polygon class="l72d0" points="63169.00000000001,76201.0 63169.00000000001,76175.0 63143.00000000001,76175.0 63143.00000000001,76201.0 63169.00000000001,76201.0"/>
<polygon class="l72d0" points="63169.00000000001,76149.0 63169.00000000001,76123.0 63143.00000000001,76123.0 63143.00000000001,76149.0 63169.00000000001,76149.0"/>
<polygon class="l72d0" points="63221.0,76253.0 63221.0,76227.0 63195.00000000001,76227.0 63195.00000000001,76253.0 63221.0,76253.0"/>
<polygon class="l72d0" points="63221.0,76201.0 63221.0,76175.0 63195.00000000001,76175.0 63195.00000000001,76201.0 63221.0,76201.0"/>
<polygon class="l72d0" points="63221.0,76149.0 63221.0,76123.0 63195.00000000001,76123.0 63195.00000000001,76149.0 63221.0,76149.0"/>
<polygon class="l72d0" points="62125.0,76253.0 62125.0,76227.0 62099.0,76227.0 62099.0,76253.0 62125.0,76253.0"/>
<polygon class="l72d0" points="62125.0,76201.0 62125.0,76175.0 62099.0,76175.0 62099.0,76201.0 62125.0,76201.0"/>
<polygon class="l72d0" points="62125.0,76149.0 62125.0,76123.0 62099.0,76123.0 62099.0,76149.0 62125.0,76149.0"/>
<polygon class="l72d0" points="62177.0,76253.0 62177.0,76227.0 62151.0,76227.0 62151.0,76253.0 62177.0,76253.0"/>
<polygon class="l72d0" points="62177.0,76201.0 62177.0,76175.0 62151.0,76175.0 62151.0,76201.0 62177.0,76201.0"/>
<polygon class="l72d0" points="62177.0,76149.0 62177.0,76123.0 62151.0,76123.0 62151.0,76149.0 62177.0,76149.0"/>
<polygon class="l72d0" points="62229.0,76253.0 62229.0,76227.0 62203.0,76227.0 62203.0,76253.0 62229.0,76253.0"/>
<polygon class="l72d0" points="62229.0,76201.0 62229.0,76175.0 62203.0,76175.0 62203.0,76201.0 62229.0,76201.0"/>
<polygon class="l72d0" points="62229.0,76149.0 62229.0,76123.0 62203.0,76123.0 62203.0,76149.0 62229.0,76149.0"/>
<polygon class="l72d0" points="61695.00000000001,76253.0 61695.00000000001,76227.0 61669.00000000001,76227.0 61669.00000000001,76253.0 61695.00000000001,76253.0"/>
<polygon class="l72d0" points="61695.00000000001,76201.0 61695.00000000001,76175.0 61669.00000000001,76175.0 61669.00000000001,76201.0 61695.00000000001,76201.0"/>
<polygon class="l72d0" points="61695.00000000001,76149.0 61695.00000000001,76123.0 61669.00000000001,76123.0 61669.00000000001,76149.0 61695.00000000001,76149.0"/>
<polygon class="l72d0" points="61747.0,76253.0 61747.0,76227.0 61721.0,76227.0 61721.0,76253.0 61747.0,76253.0"/>
<polygon class="l72d0" points="61747.0,76201.0 61747.0,76175.0 61721.0,76175.0 61721.0,76201.0 61747.0,76201.0"/>
<polygon class="l72d0" points="61747.0,76149.0 61747.0,76123.0 61721.0,76123.0 61721.0,76149.0 61747.0,76149.0"/>
<polygon class="l72d0" points="61799.0,76253.0 61799.0,76227.0 61773.0,76227.0 61773.0,76253.0 61799.0,76253.0"/>
<polygon class="l72d0" points="61799.0,76201.0 61799.0,76175.0 61773.0,76175.0 61773.0,76201.0 61799.0,76201.0"/>
<polygon class="l72d0" points="61799.0,76149.0 61799.0,76123.0 61773.0,76123.0 61773.0,76149.0 61799.0,76149.0"/>
<polygon class="l72d0" points="60703.0,76253.0 60703.0,76227.0 60677.0,76227.0 60677.0,76253.0 60703.0,76253.0"/>
<polygon class="l72d0" points="60703.0,76201.0 60703.0,76175.0 60677.0,76175.0 60677.0,76201.0 60703.0,76201.0"/>
<polygon class="l72d0" points="60703.0,76149.0 60703.0,76123.0 60677.0,76123.0 60677.0,76149.0 60703.0,76149.0"/>
<polygon class="l72d0" points="60755.00000000001,76253.0 60755.00000000001,76227.0 60729.0,76227.0 60729.0,76253.0 60755.00000000001,76253.0"/>
<polygon class="l72d0" points="60755.00000000001,76201.0 60755.00000000001,76175.0 60729.0,76175.0 60729.0,76201.0 60755.00000000001,76201.0"/>
<polygon class="l72d0" points="60755.00000000001,76149.0 60755.00000000001,76123.0 60729.0,76123.0 60729.0,76149.0 60755.00000000001,76149.0"/>
<polygon class="l72d0" points="60807.00000000001,76253.0 60807.00000000001,76227.0 60781.00000000001,76227.0 60781.00000000001,76253.0 60807.00000000001,76253.0"/>
<polygon class="l72d0" points="60807.00000000001,76201.0 60807.00000000001,76175.0 60781.00000000001,76175.0 60781.00000000001,76201.0 60807.00000000001,76201.0"/>
<polygon class="l72d0" points="60807.00000000001,76149.0 60807.00000000001,76123.0 60781.00000000001,76123.0 60781.00000000001,76149.0 60807.00000000001,76149.0"/>
<polygon class="l72d0" points="60859.0,76253.0 60859.0,76227.0 60833.00000000001,76227.0 60833.00000000001,76253.0 60859.0,76253.0"/>
<polygon class="l72d0" points="60859.0,76201.0 60859.0,76175.0 60833.00000000001,76175.0 60833.00000000001,76201.0 60859.0,76201.0"/>
<polygon class="l72d0" points="60859.0,76149.0 60859.0,76123.0 60833.00000000001,76123.0 60833.00000000001,76149.0 60859.0,76149.0"/>
<polygon class="l72d0" points="60001.0,76253.0 60001.0,76227.0 59975.0,76227.0 59975.0,76253.0 60001.0,76253.0"/>
<polygon class="l72d0" points="60001.0,76201.0 60001.0,76175.0 59975.0,76175.0 59975.0,76201.0 60001.0,76201.0"/>
<polygon class="l72d0" points="60001.0,76149.0 60001.0,76123.0 59975.0,76123.0 59975.0,76149.0 60001.0,76149.0"/>
<polygon class="l72d0" points="60053.0,76253.0 60053.0,76227.0 60027.0,76227.0 60027.0,76253.0 60053.0,76253.0"/>
<polygon class="l72d0" points="60053.0,76201.0 60053.0,76175.0 60027.0,76175.0 60027.0,76201.0 60053.0,76201.0"/>
<polygon class="l72d0" points="60053.0,76149.0 60053.0,76123.0 60027.0,76123.0 60027.0,76149.0 60053.0,76149.0"/>
<polygon class="l72d0" points="60105.00000000001,76253.0 60105.00000000001,76227.0 60079.0,76227.0 60079.0,76253.0 60105.00000000001,76253.0"/>
<polygon class="l72d0" points="60105.00000000001,76201.0 60105.00000000001,76175.0 60079.0,76175.0 60079.0,76201.0 60105.00000000001,76201.0"/>
<polygon class="l72d0" points="60105.00000000001,76149.0 60105.00000000001,76123.0 60079.0,76123.0 60079.0,76149.0 60105.00000000001,76149.0"/>
<polygon class="l72d0" points="60157.00000000001,76253.0 60157.00000000001,76227.0 60131.00000000001,76227.0 60131.00000000001,76253.0 60157.00000000001,76253.0"/>
<polygon class="l72d0" points="60157.00000000001,76201.0 60157.00000000001,76175.0 60131.00000000001,76175.0 60131.00000000001,76201.0 60157.00000000001,76201.0"/>
<polygon class="l72d0" points="60157.00000000001,76149.0 60157.00000000001,76123.0 60131.00000000001,76123.0 60131.00000000001,76149.0 60157.00000000001,76149.0"/>
<polygon class="l72d0" points="59061.0,76253.0 59061.0,76227.0 59035.0,76227.0 59035.0,76253.0 59061.0,76253.0"/>
<polygon class="l72d0" points="59061.0,76201.0 59061.0,76175.0 59035.0,76175.0 59035.0,76201.0 59061.0,76201.0"/>
<polygon class="l72d0" points="59061.0,76149.0 59061.0,76123.0 59035.0,76123.0 59035.0,76149.0 59061.0,76149.0"/>
<polygon class="l72d0" points="59113.0,76253.0 59113.0,76227.0 59087.0,76227.0 59087.0,76253.0 59113.0,76253.0"/>
<polygon class="l72d0" points="59113.0,76201.0 59113.0,76175.0 59087.0,76175.0 59087.0,76201.0 59113.0,76201.0"/>
<polygon class="l72d0" points="59113.0,76149.0 59113.0,76123.0 59087.0,76123.0 59087.0,76149.0 59113.0,76149.0"/>
<polygon class="l72d0" points="59165.0,76253.0 59165.0,76227.0 59139.0,76227.0 59139.0,76253.0 59165.0,76253.0"/>
<polygon class="l72d0" points="59165.0,76201.0 59165.0,76175.0 59139.0,76175.0 59139.0,76201.0 59165.0,76201.0"/>
<polygon class="l72d0" points="59165.0,76149.0 59165.0,76123.0 59139.0,76123.0 59139.0,76149.0 59165.0,76149.0"/>
<polygon class="l72d0" points="58631.00000000001,76253.0 58631.00000000001,76227.0 58605.00000000001,76227.0 58605.00000000001,76253.0 58631.00000000001,76253.0"/>
<polygon class="l72d0" points="58631.00000000001,76201.0 58631.00000000001,76175.0 58605.00000000001,76175.0 58605.00000000001,76201.0 58631.00000000001,76201.0"/>
<polygon class="l72d0" points="58631.00000000001,76149.0 58631.00000000001,76123.0 58605.00000000001,76123.0 58605.00000000001,76149.0 58631.00000000001,76149.0"/>
<polygon class="l72d0" points="58683.00000000001,76253.0 58683.00000000001,76227.0 58657.00000000001,76227.0 58657.00000000001,76253.0 58683.00000000001,76253.0"/>
<polygon class="l72d0" points="58683.00000000001,76201.0 58683.00000000001,76175.0 58657.00000000001,76175.0 58657.00000000001,76201.0 58683.00000000001,76201.0"/>
<polygon class="l72d0" points="58683.00000000001,76149.0 58683.00000000001,76123.0 58657.00000000001,76123.0 58657.00000000001,76149.0 58683.00000000001,76149.0"/>
<polygon class="l72d0" points="58735.0,76253.0 58735.0,76227.0 58709.0,76227.0 58709.0,76253.0 58735.0,76253.0"/>
<polygon class="l72d0" points="58735.0,76201.0 58735.0,76175.0 58709.0,76175.0 58709.0,76201.0 58735.0,76201.0"/>
<polygon class="l72d0" points="58735.0,76149.0 58735.0,76123.0 58709.0,76123.0 58709.0,76149.0 58735.0,76149.0"/>
<polygon class="l72d0" points="57639.0,76253.0 57639.0,76227.0 57613.0,76227.0 57613.0,76253.0 57639.0,76253.0"/>
<polygon class="l72d0" points="57639.0,76201.0 57639.0,76175.0 57613.0,76175.0 57613.0,76201.0 57639.0,76201.0"/>
<polygon class="l72d0" points="57639.0,76149.0 57639.0,76123.0 57613.0,76123.0 57613.0,76149.0 57639.0,76149.0"/>
<polygon class="l72d0" points="57691.0,76253.0 57691.0,76227.0 57665.0,76227.0 57665.0,76253.0 57691.0,76253.0"/>
<polygon class="l72d0" points="57691.0,76201.0 57691.0,76175.0 57665.0,76175.0 57665.0,76201.0 57691.0,76201.0"/>
<polygon class="l72d0" points="57691.0,76149.0 57691.0,76123.0 57665.0,76123.0 57665.0,76149.0 57691.0,76149.0"/>
<polygon class="l72d0" points="57743.00000000001,76253.0 57743.00000000001,76227.0 57716.99999999999,76227.0 57716.99999999999,76253.0 57743.00000000001,76253.0"/>
<polygon class="l72d0" points="57743.00000000001,76201.0 57743.00000000001,76175.0 57716.99999999999,76175.0 57716.99999999999,76201.0 57743.00000000001,76201.0"/>
<polygon class="l72d0" points="57743.00000000001,76149.0 57743.00000000001,76123.0 57716.99999999999,76123.0 57716.99999999999,76149.0 57743.00000000001,76149.0"/>
<polygon class="l72d0" points="57795.00000000001,76253.0 57795.00000000001,76227.0 57769.00000000001,76227.0 57769.00000000001,76253.0 57795.00000000001,76253.0"/>
<polygon class="l72d0" points="57795.00000000001,76201.0 57795.00000000001,76175.0 57769.00000000001,76175.0 57769.00000000001,76201.0 57795.00000000001,76201.0"/>
<polygon class="l72d0" points="57795.00000000001,76149.0 57795.00000000001,76123.0 57769.00000000001,76123.0 57769.00000000001,76149.0 57795.00000000001,76149.0"/>
<polygon class="l72d0" points="56937.0,76253.0 56937.0,76227.0 56911.0,76227.0 56911.0,76253.0 56937.0,76253.0"/>
<polygon class="l72d0" points="56937.0,76201.0 56937.0,76175.0 56911.0,76175.0 56911.0,76201.0 56937.0,76201.0"/>
<polygon class="l72d0" points="56937.0,76149.0 56937.0,76123.0 56911.0,76123.0 56911.0,76149.0 56937.0,76149.0"/>
<polygon class="l72d0" points="56989.0,76253.0 56989.0,76227.0 56963.0,76227.0 56963.0,76253.0 56989.0,76253.0"/>
<polygon class="l72d0" points="56989.0,76201.0 56989.0,76175.0 56963.0,76175.0 56963.0,76201.0 56989.0,76201.0"/>
<polygon class="l72d0" points="56989.0,76149.0 56989.0,76123.0 56963.0,76123.0 56963.0,76149.0 56989.0,76149.0"/>
<polygon class="l72d0" points="57041.0,76253.0 57041.0,76227.0 57015.0,76227.0 57015.0,76253.0 57041.0,76253.0"/>
<polygon class="l72d0" points="57041.0,76201.0 57041.0,76175.0 57015.0,76175.0 57015.0,76201.0 57041.0,76201.0"/>
<polygon class="l72d0" points="57041.0,76149.0 57041.0,76123.0 57015.0,76123.0 57015.0,76149.0 57041.0,76149.0"/>
<polygon class="l72d0" points="57093.00000000001,76253.0 57093.00000000001,76227.0 57066.99999999999,76227.0 57066.99999999999,76253.0 57093.00000000001,76253.0"/>
<polygon class="l72d0" points="57093.00000000001,76201.0 57093.00000000001,76175.0 57066.99999999999,76175.0 57066.99999999999,76201.0 57093.00000000001,76201.0"/>
<polygon class="l72d0" points="57093.00000000001,76149.0 57093.00000000001,76123.0 57066.99999999999,76123.0 57066.99999999999,76149.0 57093.00000000001,76149.0"/>
<polygon class="l72d0" points="55997.0,76253.0 55997.0,76227.0 55971.0,76227.0 55971.0,76253.0 55997.0,76253.0"/>
<polygon class="l72d0" points="55997.0,76201.0 55997.0,76175.0 55971.0,76175.0 55971.0,76201.0 55997.0,76201.0"/>
<polygon class="l72d0" points="55997.0,76149.0 55997.0,76123.0 55971.0,76123.0 55971.0,76149.0 55997.0,76149.0"/>
<polygon class="l72d0" points="56049.0,76253.0 56049.0,76227.0 56023.0,76227.0 56023.0,76253.0 56049.0,76253.0"/>
<polygon class="l72d0" points="56049.0,76201.0 56049.0,76175.0 56023.0,76175.0 56023.0,76201.0 56049.0,76201.0"/>
<polygon class="l72d0" points="56049.0,76149.0 56049.0,76123.0 56023.0,76123.0 56023.0,76149.0 56049.0,76149.0"/>
<polygon class="l72d0" points="56101.0,76253.0 56101.0,76227.0 56075.0,76227.0 56075.0,76253.0 56101.0,76253.0"/>
<polygon class="l72d0" points="56101.0,76201.0 56101.0,76175.0 56075.0,76175.0 56075.0,76201.0 56101.0,76201.0"/>
<polygon class="l72d0" points="56101.0,76149.0 56101.0,76123.0 56075.0,76123.0 56075.0,76149.0 56101.0,76149.0"/>
<polygon class="l72d0" points="55202.0,76253.0 55202.0,76227.0 55176.0,76227.0 55176.0,76253.0 55202.0,76253.0"/>
<polygon class="l72d0" points="55202.0,76201.0 55202.0,76175.0 55176.0,76175.0 55176.0,76201.0 55202.0,76201.0"/>
<polygon class="l72d0" points="55202.0,76149.0 55202.0,76123.0 55176.0,76123.0 55176.0,76149.0 55202.0,76149.0"/>
<polygon class="l72d0" points="55254.0,76253.0 55254.0,76227.0 55228.0,76227.0 55228.0,76253.0 55254.0,76253.0"/>
<polygon class="l72d0" points="55254.0,76201.0 55254.0,76175.0 55228.0,76175.0 55228.0,76201.0 55254.0,76201.0"/>
<polygon class="l72d0" points="55254.0,76149.0 55254.0,76123.0 55228.0,76123.0 55228.0,76149.0 55254.0,76149.0"/>
<polygon class="l72d0" points="54579.0,76253.0 54579.0,76227.0 54553.0,76227.0 54553.0,76253.0 54579.0,76253.0"/>
<polygon class="l72d0" points="54579.0,76201.0 54579.0,76175.0 54553.0,76175.0 54553.0,76201.0 54579.0,76201.0"/>
<polygon class="l72d0" points="54579.0,76149.0 54579.0,76123.0 54553.0,76123.0 54553.0,76149.0 54579.0,76149.0"/>
<polygon class="l72d0" points="54003.0,76253.0 54003.0,76227.0 53977.0,76227.0 53977.0,76253.0 54003.0,76253.0"/>
<polygon class="l72d0" points="54003.0,76201.0 54003.0,76175.0 53977.0,76175.0 53977.0,76201.0 54003.0,76201.0"/>
<polygon class="l72d0" points="54003.0,76149.0 54003.0,76123.0 53977.0,76123.0 53977.0,76149.0 54003.0,76149.0"/>
<polygon class="l72d0" points="53427.0,76253.0 53427.0,76227.0 53401.0,76227.0 53401.0,76253.0 53427.0,76253.0"/>
<polygon class="l72d0" points="53427.0,76201.0 53427.0,76175.0 53401.0,76175.0 53401.0,76201.0 53427.0,76201.0"/>
<polygon class="l72d0" points="53427.0,76149.0 53427.0,76123.0 53401.0,76123.0 53401.0,76149.0 53427.0,76149.0"/>
<polygon class="l72d0" points="53220.00000000001,76253.0 53220.00000000001,76227.0 53194.00000000001,76227.0 53194.00000000001,76253.0 53220.00000000001,76253.0"/>
<polygon class="l72d0" points="53220.00000000001,76201.0 53220.00000000001,76175.0 53194.00000000001,76175.0 53194.00000000001,76201.0 53220.00000000001,76201.0"/>
<polygon class="l72d0" points="53220.00000000001,76149.0 53220.00000000001,76123.0 53194.00000000001,76123.0 53194.00000000001,76149.0 53220.00000000001,76149.0"/>
<polygon class="l72d0" points="53272.0,76253.0 53272.0,76227.0 53246.0,76227.0 53246.0,76253.0 53272.0,76253.0"/>
<polygon class="l72d0" points="53272.0,76201.0 53272.0,76175.0 53246.0,76175.0 53246.0,76201.0 53272.0,76201.0"/>
<polygon class="l72d0" points="53272.0,76149.0 53272.0,76123.0 53246.0,76123.0 53246.0,76149.0 53272.0,76149.0"/>
<polygon class="l72d0" points="52314.0,76253.0 52314.0,76227.0 52288.0,76227.0 52288.0,76253.0 52314.0,76253.0"/>
<polygon class="l72d0" points="52314.0,76201.0 52314.0,76175.0 52288.0,76175.0 52288.0,76201.0 52314.0,76201.0"/>
<polygon class="l72d0" points="52314.0,76149.0 52314.0,76123.0 52288.0,76123.0 52288.0,76149.0 52314.0,76149.0"/>
<polygon class="l72d0" points="52366.0,76253.0 52366.0,76227.0 52340.0,76227.0 52340.0,76253.0 52366.0,76253.0"/>
<polygon class="l72d0" points="52366.0,76201.0 52366.0,76175.0 52340.0,76175.0 52340.0,76201.0 52366.0,76201.0"/>
<polygon class="l72d0" points="52366.0,76149.0 52366.0,76123.0 52340.0,76123.0 52340.0,76149.0 52366.0,76149.0"/>
<polygon class="l72d0" points="52418.00000000001,76253.0 52418.00000000001,76227.0 52391.99999999999,76227.0 52391.99999999999,76253.0 52418.00000000001,76253.0"/>
<polygon class="l72d0" points="52418.00000000001,76201.0 52418.00000000001,76175.0 52391.99999999999,76175.0 52391.99999999999,76201.0 52418.00000000001,76201.0"/>
<polygon class="l72d0" points="52418.00000000001,76149.0 52418.00000000001,76123.0 52391.99999999999,76123.0 52391.99999999999,76149.0 52418.00000000001,76149.0"/>
<polygon class="l72d0" points="51228.0,76253.0 51228.0,76227.0 51202.0,76227.0 51202.0,76253.0 51228.0,76253.0"/>
<polygon class="l72d0" points="51228.0,76201.0 51228.0,76175.0 51202.0,76175.0 51202.0,76201.0 51228.0,76201.0"/>
<polygon class="l72d0" points="51228.0,76149.0 51228.0,76123.0 51202.0,76123.0 51202.0,76149.0 51228.0,76149.0"/>
<polygon class="l72d0" points="51279.99999999999,76253.0 51279.99999999999,76227.0 51254.0,76227.0 51254.0,76253.0 51279.99999999999,76253.0"/>
<polygon class="l72d0" points="51279.99999999999,76201.0 51279.99999999999,76175.0 51254.0,76175.0 51254.0,76201.0 51279.99999999999,76201.0"/>
<polygon class="l72d0" points="51279.99999999999,76149.0 51279.99999999999,76123.0 51254.0,76123.0 51254.0,76149.0 51279.99999999999,76149.0"/>
<polygon class="l72d0" points="51332.00000000001,76253.0 51332.00000000001,76227.0 51306.00000000001,76227.0 51306.00000000001,76253.0 51332.00000000001,76253.0"/>
<polygon class="l72d0" points="51332.00000000001,76201.0 51332.00000000001,76175.0 51306.00000000001,76175.0 51306.00000000001,76201.0 51332.00000000001,76201.0"/>
<polygon class="l72d0" points="51332.00000000001,76149.0 51332.00000000001,76123.0 51306.00000000001,76123.0 51306.00000000001,76149.0 51332.00000000001,76149.0"/>
<polygon class="l72d0" points="51384.0,76253.0 51384.0,76227.0 51358.00000000001,76227.0 51358.00000000001,76253.0 51384.0,76253.0"/>
<polygon class="l72d0" points="51384.0,76201.0 51384.0,76175.0 51358.00000000001,76175.0 51358.00000000001,76201.0 51384.0,76201.0"/>
<polygon class="l72d0" points="51384.0,76149.0 51384.0,76123.0 51358.00000000001,76123.0 51358.00000000001,76149.0 51384.0,76149.0"/>
<polygon class="l72d0" points="51436.0,76253.0 51436.0,76227.0 51410.0,76227.0 51410.0,76253.0 51436.0,76253.0"/>
<polygon class="l72d0" points="51436.0,76201.0 51436.0,76175.0 51410.0,76175.0 51410.0,76201.0 51436.0,76201.0"/>
<polygon class="l72d0" points="51436.0,76149.0 51436.0,76123.0 51410.0,76123.0 51410.0,76149.0 51436.0,76149.0"/>
<polygon class="l72d0" points="51488.0,76253.0 51488.0,76227.0 51462.0,76227.0 51462.0,76253.0 51488.0,76253.0"/>
<polygon class="l72d0" points="51488.0,76201.0 51488.0,76175.0 51462.0,76175.0 51462.0,76201.0 51488.0,76201.0"/>
<polygon class="l72d0" points="51488.0,76149.0 51488.0,76123.0 51462.0,76123.0 51462.0,76149.0 51488.0,76149.0"/>
<polygon class="l72d0" points="51540.0,76253.0 51540.0,76227.0 51514.0,76227.0 51514.0,76253.0 51540.0,76253.0"/>
<polygon class="l72d0" points="51540.0,76201.0 51540.0,76175.0 51514.0,76175.0 51514.0,76201.0 51540.0,76201.0"/>
<polygon class="l72d0" points="51540.0,76149.0 51540.0,76123.0 51514.0,76123.0 51514.0,76149.0 51540.0,76149.0"/>
<polygon class="l72d0" points="50554.0,76253.0 50554.0,76227.0 50528.0,76227.0 50528.0,76253.0 50554.0,76253.0"/>
<polygon class="l72d0" points="50554.0,76201.0 50554.0,76175.0 50528.0,76175.0 50528.0,76201.0 50554.0,76201.0"/>
<polygon class="l72d0" points="50554.0,76149.0 50554.0,76123.0 50528.0,76123.0 50528.0,76149.0 50554.0,76149.0"/>
<polygon class="l72d0" points="50606.0,76253.0 50606.0,76227.0 50580.0,76227.0 50580.0,76253.0 50606.0,76253.0"/>
<polygon class="l72d0" points="50606.0,76201.0 50606.0,76175.0 50580.0,76175.0 50580.0,76201.0 50606.0,76201.0"/>
<polygon class="l72d0" points="50606.0,76149.0 50606.0,76123.0 50580.0,76123.0 50580.0,76149.0 50606.0,76149.0"/>
<polygon class="l72d0" points="50658.0,76253.0 50658.0,76227.0 50632.0,76227.0 50632.0,76253.0 50658.0,76253.0"/>
<polygon class="l72d0" points="50658.0,76201.0 50658.0,76175.0 50632.0,76175.0 50632.0,76201.0 50658.0,76201.0"/>
<polygon class="l72d0" points="50658.0,76149.0 50658.0,76123.0 50632.0,76123.0 50632.0,76149.0 50658.0,76149.0"/>
<polygon class="l72d0" points="49468.0,76253.0 49468.0,76227.0 49442.0,76227.0 49442.0,76253.0 49468.0,76253.0"/>
<polygon class="l72d0" points="49468.0,76201.0 49468.0,76175.0 49442.0,76175.0 49442.0,76201.0 49468.0,76201.0"/>
<polygon class="l72d0" points="49468.0,76149.0 49468.0,76123.0 49442.0,76123.0 49442.0,76149.0 49468.0,76149.0"/>
<polygon class="l72d0" points="49520.0,76253.0 49520.0,76227.0 49494.0,76227.0 49494.0,76253.0 49520.0,76253.0"/>
<polygon class="l72d0" points="49520.0,76201.0 49520.0,76175.0 49494.0,76175.0 49494.0,76201.0 49520.0,76201.0"/>
<polygon class="l72d0" points="49520.0,76149.0 49520.0,76123.0 49494.0,76123.0 49494.0,76149.0 49520.0,76149.0"/>
<polygon class="l72d0" points="49572.0,76253.0 49572.0,76227.0 49546.0,76227.0 49546.0,76253.0 49572.0,76253.0"/>
<polygon class="l72d0" points="49572.0,76201.0 49572.0,76175.0 49546.0,76175.0 49546.0,76201.0 49572.0,76201.0"/>
<polygon class="l72d0" points="49572.0,76149.0 49572.0,76123.0 49546.0,76123.0 49546.0,76149.0 49572.0,76149.0"/>
<polygon class="l72d0" points="49624.0,76253.0 49624.0,76227.0 49598.0,76227.0 49598.0,76253.0 49624.0,76253.0"/>
<polygon class="l72d0" points="49624.0,76201.0 49624.0,76175.0 49598.0,76175.0 49598.0,76201.0 49624.0,76201.0"/>
<polygon class="l72d0" points="49624.0,76149.0 49624.0,76123.0 49598.0,76123.0 49598.0,76149.0 49624.0,76149.0"/>
<polygon class="l72d0" points="49676.0,76253.0 49676.0,76227.0 49650.0,76227.0 49650.0,76253.0 49676.0,76253.0"/>
<polygon class="l72d0" points="49676.0,76201.0 49676.0,76175.0 49650.0,76175.0 49650.0,76201.0 49676.0,76201.0"/>
<polygon class="l72d0" points="49676.0,76149.0 49676.0,76123.0 49650.0,76123.0 49650.0,76149.0 49676.0,76149.0"/>
<polygon class="l72d0" points="49728.0,76253.0 49728.0,76227.0 49702.00000000001,76227.0 49702.00000000001,76253.0 49728.0,76253.0"/>
<polygon class="l72d0" points="49728.0,76201.0 49728.0,76175.0 49702.00000000001,76175.0 49702.00000000001,76201.0 49728.0,76201.0"/>
<polygon class="l72d0" points="49728.0,76149.0 49728.0,76123.0 49702.00000000001,76123.0 49702.00000000001,76149.0 49728.0,76149.0"/>
<polygon class="l72d0" points="49780.0,76253.0 49780.0,76227.0 49754.0,76227.0 49754.0,76253.0 49780.0,76253.0"/>
<polygon class="l72d0" points="49780.0,76201.0 49780.0,76175.0 49754.0,76175.0 49754.0,76201.0 49780.0,76201.0"/>
<polygon class="l72d0" points="49780.0,76149.0 49780.0,76123.0 49754.0,76123.0 49754.0,76149.0 49780.0,76149.0"/>
</g>
</svg>