<?xml version="1.0" encoding="UTF-8"?>
<svg xmlns="http://www.w3.org/2000/svg" xmlns:xlink="http://www.w3.org/1999/xlink"
     width="8424.9" height="2131.9" viewBox="59131.05 -77848.95 8424.9 2131.9">
<defs>
<style type="text/css">
.l74d0 {stroke: rgb(158, 42, 255); fill: rgb(158, 42, 255); fill-opacity: 0.5;}
</style>
</defs>
<rect x="59131.05" y="-77848.95" width="8424.9" height="2131.9" fill="#222" stroke="none"/>
<g id="(74, 0)" transform="scale(1 -1)">
<polygon class="l74d0" points="67137.0,76262.0 67173.0,76262.0 67173.0,76226.0 67137.0,76226.0 67137.0,76262.0"/>
<polygon class="l74d0" points="60999.0,76262.0 61035.0,76262.0 61035.0,76226.0 60999.0,76226.0 60999.0,76262.0"/>
<polygon class="l74d0" points="60999.0,77214.0 61035.0,77214.0 61035.0,77178.0 60999.0,77178.0 60999.0,77214.0"/>
<polygon class="l74d0" points="65157.00000000001,77270.0 65193.00000000001,77270.0 65193.00000000001,77234.0 65157.00000000001,77234.0 65157.00000000001,77270.0"/>
<polygon class="l74d0" points="65157.00000000001,76598.0 65193.00000000001,76598.0 65193.00000000001,76562.0 65157.00000000001,76562.0 65157.00000000001,76598.0"/>
<polygon class="l74d0" points="60405.00000000001,76318.0 60441.0,76318.0 60441.0,76282.0 60405.00000000001,76282.0 60405.00000000001,76318.0"/>
<polygon class="l74d0" points="59514.0,76430.0 59550.0,76430.0 59550.0,76394.0 59514.0,76394.0 59514.0,76430.0"/>
<polygon class="l74d0" points="59514.0,77382.0 59550.0,77382.0 59550.0,77346.0 59514.0,77346.0 59514.0,77382.0"/>
<polygon class="l74d0" points="64967.50000000001,76251.0 65003.5,76251.0 65003.5,76215.0 64967.50000000001,76215.0 64967.50000000001,76251.0"/>
<polygon class="l74d0" points="64967.50000000001,76180.0 65003.5,76180.0 65003.5,76144.0 64967.50000000001,76144.0 64967.50000000001,76180.0"/>
<polygon class="l74d0" points="64967.50000000001,76100.0 64967.50000000001,76109.0 65003.5,76109.0 65003.5,76100.0 64967.50000000001,76100.0"/>
<polygon class="l74d0" points="64896.5,76251.0 64932.50000000001,76251.0 64932.50000000001,76215.0 64896.5,76215.0 64896.5,76251.0"/>
<polygon class="l74d0" points="64896.5,76180.0 64932.50000000001,76180.0 64932.50000000001,76144.0 64896.5,76144.0 64896.5,76180.0"/>
<polygon class="l74d0" points="64896.5,76100.0 64896.5,76109.0 64932.50000000001,76109.0 64932.50000000001,76100.0 64896.5,76100.0"/>
<polygon class="l74d0" points="64825.5,76251.0 64861.5,76251.0 64861.5,76215.0 64825.5,76215.0 64825.5,76251.0"/>
<polygon class="l74d0" points="64825.5,76180.0 64861.5,76180.0 64861.5,76144.0 64825.5,76144.0 64825.5,76180.0"/>
<polygon class="l74d0" points="64825.5,76100.0 64825.5,76109.0 64861.5,76109.0 64861.5,76100.0 64825.5,76100.0"/>
<polygon class="l74d0" points="64754.49999999999,76251.0 64790.5,76251.0 64790.5,76215.0 64754.49999999999,76215.0 64754.49999999999,76251.0"/>
<polygon class="l74d0" points="64754.49999999999,76180.0 64790.5,76180.0 64790.5,76144.0 64754.49999999999,76144.0 64754.49999999999,76180.0"/>
<polygon class="l74d0" points="64754.49999999999,76100.0 64754.49999999999,76109.0 64790.5,76109.0 64790.5,76100.0 64754.49999999999,76100.0"/>
<polygon class="l74d0" points="64683.5,76251.0 64719.50000000001,76251.0 64719.50000000001,76215.0 64683.5,76215.0 64683.5,76251.0"/>
<polygon class="l74d0" points="64683.5,76180.0 64719.50000000001,76180.0 64719.50000000001,76144.0 64683.5,76144.0 64683.5,76180.0"/>
<polygon class="l74d0" points="64683.5,76100.0 64683.5,76109.0 64719.50000000001,76109.0 64719.50000000001,76100.0 64683.5,76100.0"/>
<polygon class="l74d0" points="64612.5,76251.0 64648.5,76251.0 64648.5,76215.0 64612.5,76215.0 64612.5,76251.0"/>
<polygon class="l74d0" points="64612.5,76180.0 64648.5,76180.0 64648.5,76144.0 64612.5,76144.0 64612.5,76180.0"/>
<polygon class="l74d0" points="64612.5,76100.0 64612.5,76109.0 64648.5,76109.0 64648.5,76100.0 64612.5,76100.0"/>
<polygon class="l74d0" points="64541.5,76251.0 64577.5,76251.0 64577.5,76215.0 64541.5,76215.0 64541.5,76251.0"/>
<polygon class="l74d0" points="64541.5,76180.0 64577.5,76180.0 64577.5,76144.0 64541.5,76144.0 64541.5,76180.0"/>
<polygon class="l74d0" points="64541.5,76100.0 64541.5,76109.0 64577.5,76109.0 64577.5,76100.0 64541.5,76100.0"/>
<polygon class="l74d0" points="64470.50000000001,76251.0 64506.50000000001,76251.0 64506.50000000001,76215.0 64470.50000000001,76215.0 64470.50000000001,76251.0"/>
<polygon class="l74d0" points="64470.50000000001,76180.0 64506.50000000001,76180.0 64506.50000000001,76144.0 64470.50000000001,76144.0 64470.50000000001,76180.0"/>
<polygon class="l74d0" points="64470.50000000001,76100.0 64470.50000000001,76109.0 64506.50000000001,76109.0 64506.50000000001,76100.0 64470.50000000001,76100.0"/>
<polygon class="l74d0" points="64399.5,76251.0 64435.5,76251.0 64435.5,76215.0 64399.5,76215.0 64399.5,76251.0"/>
<polygon class="l74d0" points="64399.5,76180.0 64435.5,76180.0 64435.5,76144.0 64399.5,76144.0 64399.5,76180.0"/>
<polygon class="l74d0" points="64399.5,76100.0 64399.5,76109.0 64435.5,76109.0 64435.5,76100.0 64399.5,76100.0"/>
<polygon class="l74d0" points="64328.5,76251.0 64364.5,76251.0 64364.5,76215.0 64328.5,76215.0 64328.5,76251.0"/>
<polygon class="l74d0" points="64328.5,76180.0 64364.5,76180.0 64364.5,76144.0 64328.5,76144.0 64328.5,76180.0"/>
<polygon class="l74d0" points="64328.5,76100.0 64328.5,76109.0 64364.5,76109.0 64364.5,76100.0 64328.5,76100.0"/>
<polygon class="l74d0" points="64257.50000000001,76251.0 64293.50000000001,76251.0 64293.50000000001,76215.0 64257.50000000001,76215.0 64257.50000000001,76251.0"/>
<polygon class="l74d0" points="64257.50000000001,76180.0 64293.50000000001,76180.0 64293.50000000001,76144.0 64257.50000000001,76144.0 64257.50000000001,76180.0"/>
<polygon class="l74d0" points="64257.50000000001,76100.0 64257.50000000001,76109.0 64293.50000000001,76109.0 64293.50000000001,76100.0 64257.50000000001,76100.0"/>
<polygon class="l74d0" points="64186.5,76251.0 64222.5,76251.0 64222.5,76215.0 64186.5,76215.0 64186.5,76251.0"/>
<polygon class="l74d0" points="64186.5,76180.0 64222.5,76180.0 64222.5,76144.0 64186.5,76144.0 64186.5,76180.0"/>
<polygon class="l74d0" points="64186.5,76100.0 64186.5,76109.0 64222.5,76109.0 64222.5,76100.0 64186.5,76100.0"/>
<polygon class="l74d0" points="64115.5,76251.0 64151.5,76251.0 64151.5,76215.0 64115.5,76215.0 64115.5,76251.0"/>
<polygon class="l74d0" points="64115.5,76180.0 64151.5,76180.0 64151.5,76144.0 64115.5,76144.0 64115.5,76180.0"/>
<polygon class="l74d0" points="64115.5,76100.0 64115.5,76109.0 64151.5,76109.0 64151.5,76100.0 64115.5,76100.0"/>
<polygon class="l74d0" points="64044.50000000001,76251.0 64080.50000000001,76251.0 64080.50000000001,76215.0 64044.50000000001,76215.0 64044.50000000001,76251.0"/>
<polygon class="l74d0" points="64044.50000000001,76180.0 64080.50000000001,76180.0 64080.50000000001,76144.0 64044.50000000001,76144.0 64044.50000000001,76180.0"/>
<polygon class="l74d0" points="64044.50000000001,76100.0 64044.50000000001,76109.0 64080.50000000001,76109.0 64080.50000000001,76100.0 64044.50000000001,76100.0"/>
<polygon class="l74d0" points="64967.50000000001,77466.0 65003.5,77466.0 65003.5,77430.0 64967.50000000001,77430.0 64967.50000000001,77466.0"/>
<polygon class="l74d0" points="64896.5,77466.0 64932.50000000001,77466.0 64932.50000000001,77430.0 64896.5,77430.0 64896.5,77466.0"/>
<polygon class="l74d0" points="64825.5,77466.0 64861.5,77466.0 64861.5,77430.0 64825.5,77430.0 64825.5,77466.0"/>
<polygon class="l74d0" points="64754.49999999999,77466.0 64790.5,77466.0 64790.5,77430.0 64754.49999999999,77430.0 64754.49999999999,77466.0"/>
<polygon class="l74d0" points="64683.5,77466.0 64719.50000000001,77466.0 64719.50000000001,77430.0 64683.5,77430.0 64683.5,77466.0"/>
<polygon class="l74d0" points="64612.5,77466.0 64648.5,77466.0 64648.5,77430.0 64612.5,77430.0 64612.5,77466.0"/>
<polygon class="l74d0" points="64541.5,77466.0 64577.5,77466.0 64577.5,77430.0 64541.5,77430.0 64541.5,77466.0"/>
<polygon class="l74d0" points="64470.50000000001,77466.0 64506.50000000001,77466.0 64506.50000000001,77430.0 64470.50000000001,77430.0 64470.50000000001,77466.0"/>
<polygon class="l74d0" points="64399.5,77466.0 64435.5,77466.0 64435.5,77430.0 64399.5,77430.0 64399.5,77466.0"/>
<polygon class="l74d0" points="64328.5,77466.0 64364.5,77466.0 64364.5,77430.0 64328.5,77430.0 64328.5,77466.0"/>
<polygon class="l74d0" points="64257.50000000001,77466.0 64293.50000000001,77466.0 64293.50000000001,77430.0 64257.50000000001,77430.0 64257.50000000001,77466.0"/>
<polygon class="l74d0" points="64186.5,77466.0 64222.5,77466.0 64222.5,77430.0 64186.5,77430.0 64186.5,77466.0"/>
<polygon class="l74d0" points="64115.5,77466.0 64151.5,77466.0 64151.5,77430.0 64115.5,77430.0 64115.5,77466.0"/>
<polygon class="l74d0" points="64044.50000000001,77466.0 64080.50000000001,77466.0 64080.50000000001,77430.0 64044.50000000001,77430.0 64044.50000000001,77466.0"/>
<polygon class="l74d0" points="64967.50000000001,76458.0 65003.5,76458.0 65003.5,76422.0 64967.50000000001,76422.0 64967.50000000001,76458.0"/>
<polygon class="l74d0" points="64896.5,76458.0 64932.50000000001,76458.0 64932.50000000001,76422.0 64896.5,76422.0 64896.5,76458.0"/>
<polygon class="l74d0" points="64825.5,76458.0 64861.5,76458.0 64861.5,76422.0 64825.5,76422.0 64825.5,76458.0"/>
<polygon class="l74d0" points="64754.49999999999,76458.0 64790.5,76458.0 64790.5,76422.0 64754.49999999999,76422.0 64754.49999999999,76458.0"/>
<polygon class="l74d0" points="64683.5,76458.0 64719.50000000001,76458.0 64719.50000000001,76422.0 64683.5,76422.0 64683.5,76458.0"/>
<polygon class="l74d0" points="64612.5,76458.0 64648.5,76458.0 64648.5,76422.0 64612.5,76422.0 64612.5,76458.0"/>
<polygon class="l74d0" points="64541.5,76458.0 64577.5,76458.0 64577.5,76422.0 64541.5,76422.0 64541.5,76458.0"/>
<polygon class="l74d0" points="64470.50000000001,76458.0 64506.50000000001,76458.0 64506.50000000001,76422.0 64470.50000000001,76422.0 64470.50000000001,76458.0"/>
<polygon class="l74d0" points="64399.5,76458.0 64435.5,76458.0 64435.5,76422.0 64399.5,76422.0 64399.5,76458.0"/>
<polygon class="l74d0" points="64328.5,76458.0 64364.5,76458.0 64364.5,76422.0 64328.5,76422.0 64328.5,76458.0"/>
<polygon class="l74d0" points="64257.50000000001,76458.0 64293.50000000001,76458.0 64293.50000000001,76422.0 64257.50000000001,76422.0 64257.50000000001,76458.0"/>
<polygon class="l74d0" points="64186.5,76458.0 64222.5,76458.0 64222.5,76422.0 64186.5,76422.0 64186.5,76458.0"/>
<polygon class="l74d0" points="64115.5,76458.0 64151.5,76458.0 64151.5,76422.0 64115.5,76422.0 64115.5,76458.0"/>
<polygon class="l74d0" points="64044.50000000001,76458.0 64080.50000000001,76458.0 64080.50000000001,76422.0 64044.50000000001,76422.0 64044.50000000001,76458.0"/>
<polygon class="l74d0" points="66267.5,76962.0 66303.5,76962.0 66303.5,76926.0 66267.5,76926.0 66267.5,76962.0"/>
<polygon class="l74d0" points="66196.5,76962.0 66232.5,76962.0 66232.5,76926.0 66196.5,76926.0 66196.5,76962.0"/>
<polygon class="l74d0" points="66125.5,76962.0 66161.5,76962.0 66161.5,76926.0 66125.5,76926.0 66125.5,76962.0"/>
<polygon class="l74d0" points="66054.5,76962.0 66090.5,76962.0 66090.5,76926.0 66054.5,76926.0 66054.5,76962.0"/>
<polygon class="l74d0" points="65983.5,76962.0 66019.5,76962.0 66019.5,76926.0 65983.5,76926.0 65983.5,76962.0"/>
<polygon class="l74d0" points="65912.5,76962.0 65948.5,76962.0 65948.5,76926.0 65912.5,76926.0 65912.5,76962.0"/>
<polygon class="l74d0" points="65841.5,76962.0 65877.5,76962.0 65877.5,76926.0 65841.5,76926.0 65841.5,76962.0"/>
<polygon class="l74d0" points="65770.5,76962.0 65806.5,76962.0 65806.5,76926.0 65770.5,76926.0 65770.5,76962.0"/>
<polygon class="l74d0" points="65699.5,76962.0 65735.5,76962.0 65735.5,76926.0 65699.5,76926.0 65699.5,76962.0"/>
<polygon class="l74d0" points="65628.5,76962.0 65664.5,76962.0 65664.5,76926.0 65628.5,76926.0 65628.5,76962.0"/>
<polygon class="l74d0" points="65557.5,76962.0 65593.5,76962.0 65593.5,76926.0 65557.5,76926.0 65557.5,76962.0"/>
<polygon class="l74d0" points="65486.5,76962.0 65522.5,76962.0 65522.5,76926.0 65486.5,76926.0 65486.5,76962.0"/>
<polygon class="l74d0" points="65415.5,76962.0 65451.5,76962.0 65451.5,76926.0 65415.5,76926.0 65415.5,76962.0"/>
<polygon class="l74d0" points="65344.50000000001,76962.0 65380.50000000001,76962.0 65380.50000000001,76926.0 65344.50000000001,76926.0 65344.50000000001,76962.0"/>
</g>
</svg>